{"glyphs":{"0":{"ha":806,"x_min":83,"x_max":721,"o":"m 401 -19 q 545 4 486 -19 q 638 65 604 28 q 691 169 672 103 q 715 301 710 236 q 721 465 721 367 q 715 629 721 564 q 691 760 710 694 q 638 864 672 826 q 545 925 604 901 q 401 949 486 949 q 278 934 331 949 q 191 888 225 919 q 135 817 157 856 q 101 719 113 779 q 87 603 90 660 q 83 465 83 547 q 87 326 83 383 q 101 210 90 269 q 135 112 113 150 q 191 42 157 74 q 278 -5 225 10 q 401 -19 331 -19 m 401 63 q 303 81 343 63 q 238 128 263 99 q 201 212 214 158 q 185 322 189 265 q 181 465 181 379 q 185 608 181 551 q 201 717 189 664 q 238 801 214 771 q 303 849 263 831 q 401 867 343 867 q 501 849 460 867 q 565 801 542 831 q 602 717 589 771 q 619 608 615 664 q 624 465 624 551 q 619 322 624 379 q 602 212 615 265 q 565 128 589 158 q 501 81 542 99 q 401 63 460 63 z "},"1":{"ha":806,"x_min":185,"x_max":674,"o":"m 192 799 l 379 799 l 379 82 l 185 82 l 185 0 l 674 0 l 674 82 l 479 82 l 479 931 l 407 931 q 192 861 331 875 l 192 799 z "},"2":{"ha":806,"x_min":106,"x_max":701,"o":"m 238 82 l 524 390 q 647 549 603 476 q 692 703 692 622 q 406 950 692 950 q 190 881 254 950 q 125 681 125 811 l 211 681 q 253 821 211 774 q 406 868 294 868 q 551 826 508 868 q 594 704 594 783 q 563 592 594 643 q 469 472 532 540 l 106 79 l 106 0 l 701 0 l 701 82 l 238 82 z "},"3":{"ha":806,"x_min":104,"x_max":717,"o":"m 717 232 q 674 380 717 321 q 560 465 632 439 q 665 551 625 494 q 704 681 704 607 q 634 881 704 811 q 403 950 564 950 q 122 681 122 950 l 208 681 q 403 868 208 868 q 562 821 517 868 q 607 682 607 774 q 560 551 607 603 q 429 499 513 499 l 281 499 l 281 424 l 428 424 q 574 371 528 424 q 619 231 619 318 q 403 63 619 63 q 240 110 289 63 q 190 249 190 158 l 104 249 q 173 49 104 118 q 403 -19 242 -19 q 717 232 717 -19 z "},"4":{"ha":806,"x_min":44,"x_max":724,"o":"m 607 0 l 607 208 l 724 208 l 724 290 l 607 290 l 607 931 l 451 931 l 44 289 l 44 208 l 508 208 l 508 0 l 607 0 m 154 290 l 508 849 l 508 290 l 154 290 z "},"5":{"ha":806,"x_min":115,"x_max":714,"o":"m 135 474 l 286 474 q 543 426 469 474 q 617 272 617 379 q 569 115 617 167 q 406 63 522 63 q 246 115 290 63 q 201 271 201 168 l 115 271 q 182 54 115 128 q 406 -19 249 -19 q 643 54 572 -19 q 714 272 714 128 q 613 492 714 429 q 288 556 513 556 l 228 556 l 246 849 l 663 849 l 663 931 l 164 931 l 135 474 z "},"6":{"ha":806,"x_min":85,"x_max":713,"o":"m 713 281 q 401 532 713 532 q 182 496 303 532 q 187 624 182 572 q 205 725 192 675 q 242 804 218 775 q 306 851 265 833 q 403 868 346 868 q 562 822 514 868 q 610 669 610 775 l 696 669 q 628 882 694 814 q 400 950 561 950 q 263 926 319 950 q 172 862 207 903 q 118 749 138 821 q 92 598 99 678 q 85 401 85 518 q 152 81 85 181 q 407 -19 219 -19 q 642 59 571 -19 q 713 281 713 138 m 400 454 q 564 406 513 454 q 615 281 615 358 q 569 118 615 174 q 403 63 522 63 q 230 138 275 63 q 182 419 185 213 q 400 454 286 454 z "},"7":{"ha":806,"x_min":119,"x_max":715,"o":"m 119 706 l 193 706 l 193 849 l 608 849 l 242 0 l 349 0 l 715 853 l 715 931 l 119 931 l 119 706 z "},"8":{"ha":806,"x_min":92,"x_max":714,"o":"m 104 681 q 173 881 104 811 q 403 950 242 950 q 633 881 564 950 q 701 681 701 811 q 557 471 701 529 q 676 388 638 443 q 714 236 714 332 q 403 -19 714 -19 q 92 236 92 -19 q 244 464 92 406 q 104 681 104 517 m 189 236 q 401 63 189 63 q 617 236 617 63 q 583 363 617 321 q 464 419 549 406 l 357 436 q 189 236 189 407 m 604 681 q 560 820 604 772 q 403 868 515 868 q 246 820 290 868 q 201 681 201 772 q 235 563 201 601 q 356 511 269 525 l 436 497 q 604 681 604 526 z "},"9":{"ha":806,"x_min":88,"x_max":713,"o":"m 88 657 q 400 386 88 386 q 614 418 506 386 q 563 136 610 210 q 394 63 517 63 q 236 113 285 63 q 188 261 188 163 l 101 261 q 171 52 103 124 q 397 -19 239 -19 q 537 3 479 -19 q 628 65 594 26 q 681 170 663 104 q 706 306 700 236 q 713 478 713 375 q 701 691 713 610 q 657 835 690 772 q 563 924 624 897 q 404 950 501 950 q 165 874 239 950 q 88 657 90 799 m 406 465 q 237 520 289 465 q 185 657 185 575 q 235 815 185 761 q 403 868 286 868 q 572 794 531 868 q 615 493 614 719 q 406 465 510 465 z "},"\f":{"ha":0,"x_min":0,"x_max":0,"o":""}," ":{"ha":396,"x_min":0,"x_max":0,"o":""},"!":{"ha":439,"x_min":153,"x_max":286,"o":"m 218 -11 q 165 10 178 -11 q 153 69 153 32 q 156 109 153 94 q 174 138 158 124 q 218 151 189 151 q 274 129 261 151 q 286 69 286 107 q 284 41 286 53 q 276 16 282 29 q 255 -4 269 3 q 218 -11 240 -11 m 163 1014 l 163 794 l 188 257 l 249 257 l 274 794 l 274 1014 l 163 1014 z "},"\"":{"ha":556,"x_min":111,"x_max":444,"o":"m 333 1014 l 333 903 l 358 682 l 419 682 l 444 903 l 444 1014 l 333 1014 m 111 1014 l 111 903 l 136 682 l 197 682 l 222 903 l 222 1014 l 111 1014 z "},"#":{"ha":1104,"x_min":83,"x_max":1021,"o":"m 608 -147 l 707 -147 l 771 208 l 932 208 l 946 290 l 786 290 l 849 639 l 1007 639 l 1021 721 l 864 721 l 929 1076 l 831 1076 l 765 721 l 433 721 l 499 1076 l 400 1076 l 335 721 l 172 721 l 158 639 l 319 639 l 257 290 l 97 290 l 83 208 l 242 208 l 178 -147 l 276 -147 l 340 208 l 672 208 l 608 -147 m 418 639 l 750 639 l 688 290 l 356 290 l 418 639 z "},"$":{"ha":806,"x_min":101,"x_max":711,"o":"m 369 -103 l 439 -103 l 439 -18 q 648 58 585 -11 q 711 251 711 128 q 654 421 711 360 q 469 501 597 482 l 439 506 l 439 867 q 572 813 532 860 q 611 676 611 767 l 697 682 q 638 874 697 807 q 439 949 578 942 l 439 1033 l 369 1033 l 369 949 q 174 874 232 942 q 115 679 115 807 q 168 508 115 569 q 342 429 221 447 l 369 425 l 369 64 q 229 119 271 71 q 188 257 188 167 l 101 251 q 163 57 101 125 q 369 -18 225 -11 l 369 -103 m 469 410 q 614 251 614 385 q 575 117 614 164 q 439 64 536 69 l 439 414 l 469 410 m 213 679 q 247 811 213 765 q 369 865 282 857 l 369 517 l 342 521 q 213 679 213 542 z "},"%":{"ha":1364,"x_min":99,"x_max":1263,"o":"m 483 -92 l 556 -92 l 854 1021 l 781 1021 l 483 -92 m 1063 -11 q 1169 8 1128 -11 q 1231 70 1211 28 q 1256 159 1250 113 q 1263 282 1263 206 q 1259 381 1263 342 q 1244 460 1256 421 q 1211 523 1232 500 q 1153 560 1190 546 q 1063 574 1115 574 q 956 554 997 574 q 896 492 915 535 q 870 403 876 450 q 864 282 864 357 q 870 159 864 206 q 896 70 876 113 q 956 8 915 28 q 1063 -11 997 -11 m 1063 50 q 963 102 986 50 q 940 282 940 154 q 963 460 940 408 q 1063 513 986 513 q 1163 460 1140 513 q 1186 282 1186 408 q 1163 102 1186 154 q 1063 50 1140 50 m 297 364 q 404 383 363 364 q 465 445 446 403 q 491 534 485 488 q 497 657 497 581 q 494 756 497 717 q 478 835 490 796 q 446 898 467 875 q 388 935 425 921 q 297 949 350 949 q 191 929 232 949 q 131 867 150 910 q 105 778 111 825 q 99 657 99 732 q 105 534 99 581 q 131 445 111 488 q 191 383 150 403 q 297 364 232 364 m 297 425 q 198 477 221 425 q 175 657 175 529 q 198 835 175 783 q 297 888 221 888 q 398 835 375 888 q 421 657 421 783 q 398 477 421 529 q 297 425 375 425 z "},"&":{"ha":846,"x_min":76,"x_max":846,"o":"m 76 253 q 119 414 76 350 q 235 506 163 478 q 138 596 174 538 q 103 729 103 654 q 382 992 103 992 q 643 722 643 992 l 557 722 q 383 910 557 910 q 241 863 282 910 q 200 724 200 815 q 248 589 200 643 q 378 535 296 535 l 846 535 l 846 460 l 689 460 l 689 249 q 621 48 689 115 q 390 -19 553 -19 q 76 253 76 -19 m 174 247 q 390 63 174 63 q 553 110 504 63 q 603 249 603 158 l 603 460 l 365 460 q 219 402 265 460 q 174 247 174 344 z "},"'":{"ha":333,"x_min":111,"x_max":222,"o":"m 111 1014 l 111 903 l 136 682 l 197 682 l 222 903 l 222 1014 l 111 1014 z "},"(":{"ha":408,"x_min":90,"x_max":401,"o":"m 401 -92 q 281 -76 332 -92 q 197 -24 231 -60 q 141 55 163 11 q 108 167 119 99 q 94 302 97 235 q 90 465 90 369 q 96 657 90 581 q 119 808 101 733 q 171 926 138 883 q 262 994 204 968 q 401 1021 319 1021 l 401 935 q 322 921 356 935 q 267 877 289 907 q 231 811 244 847 q 209 717 217 775 q 199 603 201 658 q 197 465 197 547 q 199 327 197 383 q 209 213 201 271 q 231 119 217 156 q 267 52 244 82 q 322 8 289 22 q 401 -6 356 -6 l 401 -92 z "},")":{"ha":408,"x_min":7,"x_max":318,"o":"m 7 1021 q 127 1005 76 1021 q 212 953 178 989 q 267 874 246 918 q 300 763 289 831 q 315 627 311 694 q 318 464 318 560 q 313 272 318 349 q 289 121 307 196 q 238 3 271 46 q 147 -65 204 -39 q 7 -92 89 -92 l 7 -6 q 86 8 53 -6 q 142 52 119 22 q 178 118 164 82 q 199 213 192 154 q 209 326 207 271 q 211 464 211 382 q 209 602 211 546 q 199 716 207 658 q 178 810 192 774 q 142 877 164 847 q 86 921 119 907 q 7 935 53 935 l 7 1021 z "},"*":{"ha":767,"x_min":38,"x_max":729,"o":"m 328 1082 l 328 972 l 367 801 l 400 801 l 439 972 l 439 1082 l 328 1082 m 38 792 l 142 757 l 317 742 l 328 772 l 176 863 l 72 896 l 38 792 m 225 425 l 290 514 l 358 675 l 332 696 l 200 581 l 136 490 l 225 425 m 631 490 l 567 581 l 435 694 l 407 675 l 476 514 l 542 425 l 631 490 m 694 896 l 589 863 l 440 772 l 450 740 l 625 757 l 729 792 l 694 896 z "},"+":{"ha":806,"x_min":131,"x_max":675,"o":"m 131 400 l 361 400 l 361 169 l 444 169 l 444 400 l 675 400 l 675 483 l 444 483 l 444 714 l 361 714 l 361 483 l 131 483 l 131 400 z "},",":{"ha":314,"x_min":53,"x_max":224,"o":"m 90 69 q 99 22 90 51 q 107 -19 107 -7 q 99 -69 107 -47 q 81 -101 90 -90 q 53 -129 71 -112 l 85 -167 q 100 -156 90 -162 q 133 -124 110 -149 q 175 -74 157 -100 q 208 -9 193 -49 q 224 69 224 31 q 222 99 224 88 q 213 124 219 111 q 192 144 207 138 q 156 151 178 151 q 103 129 115 151 q 90 69 90 107 z "},"-":{"ha":683,"x_min":97,"x_max":586,"o":"m 97 400 l 586 400 l 586 483 l 97 483 l 97 400 z "},".":{"ha":314,"x_min":90,"x_max":224,"o":"m 156 -11 q 211 10 199 -11 q 224 69 224 32 q 222 99 224 88 q 213 124 219 111 q 192 144 207 138 q 156 151 178 151 q 103 129 115 151 q 90 69 90 107 q 93 31 90 46 q 112 3 96 17 q 156 -11 128 -11 z "},"/":{"ha":428,"x_min":0,"x_max":428,"o":"m 0 -147 l 99 -147 l 428 1076 l 329 1076 l 0 -147 z "},":":{"ha":314,"x_min":90,"x_max":224,"o":"m 156 -11 q 211 10 199 -11 q 224 69 224 32 q 222 99 224 88 q 213 124 219 111 q 192 144 207 138 q 156 151 178 151 q 103 129 115 151 q 90 69 90 107 q 93 31 90 46 q 112 3 96 17 q 156 -11 128 -11 m 156 574 q 211 595 199 574 q 224 654 224 617 q 222 684 224 672 q 213 709 219 696 q 192 729 207 722 q 156 736 178 736 q 103 714 115 736 q 90 654 90 692 q 93 616 90 631 q 112 588 96 601 q 156 574 128 574 z "},";":{"ha":314,"x_min":53,"x_max":224,"o":"m 90 69 q 99 22 90 51 q 107 -19 107 -7 q 99 -69 107 -47 q 81 -101 90 -90 q 53 -129 71 -112 l 85 -167 q 100 -156 90 -162 q 133 -124 110 -149 q 175 -74 157 -100 q 208 -9 193 -49 q 224 69 224 31 q 222 99 224 88 q 213 124 219 111 q 192 144 207 138 q 156 151 178 151 q 103 129 115 151 q 90 69 90 107 m 156 574 q 211 595 199 574 q 224 654 224 617 q 222 684 224 672 q 213 709 219 696 q 192 729 207 722 q 156 736 178 736 q 103 714 115 736 q 90 654 90 692 q 93 616 90 631 q 112 588 96 601 q 156 574 128 574 z "},"<":{"ha":806,"x_min":124,"x_max":682,"o":"m 124 388 l 682 154 l 682 246 l 206 440 l 682 635 l 682 726 l 124 493 l 124 388 z "},"=":{"ha":806,"x_min":131,"x_max":675,"o":"m 131 539 l 675 539 l 675 622 l 131 622 l 131 539 m 131 261 l 675 261 l 675 344 l 131 344 l 131 261 z "},">":{"ha":806,"x_min":124,"x_max":682,"o":"m 682 493 l 124 726 l 124 635 l 600 440 l 124 246 l 124 154 l 682 388 l 682 493 z "},"?":{"ha":672,"x_min":58,"x_max":628,"o":"m 308 -11 q 256 10 268 -11 q 243 69 243 32 q 246 109 243 94 q 264 138 249 124 q 308 151 279 151 q 364 129 351 151 q 376 69 376 107 q 374 41 376 53 q 366 16 372 29 q 345 -4 360 3 q 308 -11 331 -11 m 379 463 q 567 540 507 482 q 628 743 628 599 q 560 960 628 886 q 332 1033 492 1033 q 123 972 188 1033 q 58 794 58 911 l 142 794 q 331 951 142 951 q 489 898 444 951 q 533 740 533 844 q 483 585 533 629 q 339 529 433 540 l 268 521 l 278 257 l 342 257 l 357 460 l 379 463 z "},"@":{"ha":1361,"x_min":125,"x_max":1236,"o":"m 811 -121 q 1144 44 1051 -94 q 1236 456 1236 182 q 1212 709 1236 607 q 1126 888 1188 811 q 955 999 1064 964 q 681 1035 846 1035 q 406 999 515 1035 q 235 888 297 964 q 149 709 174 811 q 125 456 125 607 q 149 202 125 304 q 235 24 174 100 q 406 -88 297 -53 q 681 -124 515 -124 l 681 -47 q 485 -26 567 -47 q 353 33 404 -6 q 272 135 301 71 q 233 274 243 200 q 222 456 222 349 q 233 637 222 563 q 272 776 243 711 q 353 878 301 840 q 485 938 404 917 q 681 958 567 958 q 876 938 794 958 q 1008 878 957 917 q 1088 776 1058 840 q 1128 637 1117 711 q 1139 456 1139 563 q 1129 277 1139 351 q 1094 137 1119 203 q 1022 30 1069 71 q 900 -28 974 -11 l 900 636 q 681 814 900 814 q 504 764 553 814 q 449 614 456 714 l 529 611 q 563 708 533 678 q 678 738 592 738 q 778 714 746 738 q 811 633 811 690 l 811 525 l 617 514 q 462 463 503 507 q 421 324 421 419 q 463 192 421 236 q 608 147 506 147 q 811 221 721 147 l 811 -121 m 628 219 q 538 245 564 219 q 511 324 511 271 q 535 420 511 394 q 628 450 560 446 l 811 461 l 811 297 q 628 219 726 219 z "},"A":{"ha":907,"x_min":7,"x_max":900,"o":"m 386 1014 l 71 69 l 7 69 l 7 0 l 254 0 l 254 69 l 171 69 l 256 328 l 650 328 l 735 69 l 653 69 l 653 0 l 900 0 l 900 69 l 835 69 l 521 1014 l 386 1014 m 453 926 l 624 410 l 283 410 l 453 926 z "},"B":{"ha":874,"x_min":97,"x_max":804,"o":"m 500 0 q 634 15 578 0 q 723 54 690 31 q 774 115 756 78 q 799 188 793 153 q 804 271 804 224 q 765 440 804 375 q 614 525 726 504 q 721 611 693 554 q 749 754 749 668 q 743 834 749 800 q 719 903 738 868 q 667 962 700 939 q 578 999 635 985 q 444 1014 522 1014 l 97 1014 l 97 944 l 181 944 l 181 69 l 97 69 l 97 0 l 500 0 m 281 82 l 281 476 l 500 476 q 663 426 622 476 q 704 276 704 375 q 663 131 704 181 q 500 82 622 82 l 281 82 m 281 561 l 281 932 l 444 932 q 608 885 567 932 q 649 746 649 839 q 608 608 649 656 q 444 561 567 561 l 281 561 z "},"C":{"ha":860,"x_min":83,"x_max":781,"o":"m 706 1014 l 706 911 q 453 1033 635 1033 q 261 999 336 1033 q 148 892 186 965 q 97 731 110 818 q 83 507 83 643 q 88 354 83 417 q 105 226 92 292 q 144 120 118 161 q 213 45 171 79 q 317 -4 254 11 q 467 -19 381 -19 q 617 2 556 -19 q 711 67 678 24 q 760 163 744 111 q 781 290 775 215 l 699 294 q 644 125 694 186 q 467 64 593 64 q 333 85 388 64 q 250 139 279 107 q 206 235 221 171 q 187 354 190 299 q 183 507 183 410 q 188 659 183 599 q 209 780 193 719 q 253 874 225 840 q 332 929 282 908 q 453 950 382 950 q 641 890 585 950 q 706 714 697 829 l 781 714 l 781 1014 l 706 1014 z "},"D":{"ha":956,"x_min":97,"x_max":872,"o":"m 281 1014 l 97 1014 l 97 944 l 181 944 l 181 69 l 97 69 l 97 0 l 479 0 q 656 24 583 0 q 770 86 728 47 q 835 193 813 125 q 865 331 858 261 q 872 507 872 401 q 867 655 872 594 q 849 777 863 715 q 808 878 835 839 q 739 951 782 918 q 631 999 696 985 q 479 1014 567 1014 l 281 1014 m 479 932 q 635 904 575 932 q 725 815 696 876 q 763 686 754 754 q 772 507 772 618 q 763 328 772 396 q 725 199 754 260 q 635 110 696 138 q 479 82 575 82 l 281 82 l 281 932 l 479 932 z "},"E":{"ha":861,"x_min":97,"x_max":778,"o":"m 97 0 l 778 0 l 778 219 l 700 219 l 700 82 l 281 82 l 281 474 l 681 474 l 681 557 l 281 557 l 281 932 l 672 932 l 672 794 l 750 794 l 750 1014 l 97 1014 l 97 944 l 181 944 l 181 69 l 97 69 l 97 0 z "},"F":{"ha":778,"x_min":97,"x_max":722,"o":"m 97 944 l 181 944 l 181 932 l 181 71 l 97 71 l 97 0 l 392 0 l 392 71 l 281 71 l 281 474 l 653 474 l 653 557 l 281 557 l 281 932 l 644 932 l 644 794 l 722 794 l 722 1014 l 97 1014 l 97 944 z "},"G":{"ha":933,"x_min":83,"x_max":794,"o":"m 547 438 l 706 438 l 706 294 q 454 64 699 64 q 344 76 390 64 q 269 116 299 88 q 222 176 239 144 q 196 266 204 208 q 185 373 188 324 q 183 507 183 422 q 188 659 183 599 q 210 780 193 719 q 257 874 226 840 q 340 929 288 908 q 468 950 393 950 q 651 887 597 950 q 713 714 704 824 l 788 714 l 788 1014 l 713 1014 l 713 907 q 468 1033 643 1033 q 299 1009 369 1033 q 188 944 229 985 q 122 833 146 903 q 91 690 99 764 q 83 507 83 615 q 85 374 83 426 q 96 261 88 322 q 119 162 104 200 q 162 85 135 124 q 228 27 189 47 q 324 -6 268 7 q 454 -19 381 -19 q 722 117 646 -19 l 738 0 l 794 0 l 794 507 l 547 507 l 547 438 z "},"H":{"ha":1044,"x_min":97,"x_max":947,"o":"m 681 0 l 947 0 l 947 69 l 864 69 l 864 944 l 947 944 l 947 1014 l 681 1014 l 681 944 l 764 944 l 764 549 l 281 549 l 281 944 l 364 944 l 364 1014 l 97 1014 l 97 944 l 181 944 l 181 69 l 97 69 l 97 0 l 364 0 l 364 69 l 281 69 l 281 465 l 764 465 l 764 69 l 681 69 l 681 0 z "},"I":{"ha":489,"x_min":97,"x_max":392,"o":"m 97 944 l 194 944 l 194 69 l 97 69 l 97 0 l 392 0 l 392 69 l 294 69 l 294 944 l 392 944 l 392 1014 l 97 1014 l 97 944 z "},"J":{"ha":654,"x_min":28,"x_max":592,"o":"m 297 944 l 408 944 l 408 254 q 380 104 408 144 q 264 64 351 64 q 145 106 176 64 q 114 254 114 147 l 28 254 q 29 183 28 210 q 38 121 31 157 q 60 63 44 85 q 100 21 75 42 q 165 -10 125 0 q 261 -19 206 -19 q 374 -5 328 -19 q 446 32 419 10 q 486 92 472 54 q 504 166 500 131 q 508 254 508 201 l 508 944 l 592 944 l 592 1014 l 297 1014 l 297 944 z "},"K":{"ha":874,"x_min":97,"x_max":846,"o":"m 593 0 l 846 0 l 846 69 l 772 69 l 475 511 l 757 944 l 832 944 l 832 1014 l 579 1014 l 579 944 l 653 944 l 401 554 l 281 554 l 281 944 l 364 944 l 364 1014 l 97 1014 l 97 944 l 181 944 l 181 69 l 97 69 l 97 0 l 364 0 l 364 69 l 281 69 l 281 472 l 396 472 l 664 69 l 593 69 l 593 0 z "},"L":{"ha":704,"x_min":97,"x_max":690,"o":"m 97 944 l 181 944 l 181 69 l 97 69 l 97 0 l 690 0 l 690 219 l 613 219 l 613 82 l 281 82 l 281 944 l 392 944 l 392 1014 l 97 1014 l 97 944 z "},"M":{"ha":1244,"x_min":97,"x_max":1147,"o":"m 881 0 l 1147 0 l 1147 69 l 1064 69 l 1064 944 l 1147 944 l 1147 1014 l 926 1014 l 613 197 l 318 1014 l 97 1014 l 97 944 l 181 944 l 181 69 l 97 69 l 97 0 l 364 0 l 364 69 l 281 69 l 281 846 l 561 78 l 661 78 l 964 857 l 964 69 l 881 69 l 881 0 z "},"N":{"ha":1069,"x_min":97,"x_max":986,"o":"m 719 944 l 803 944 l 803 165 l 292 1014 l 97 1014 l 97 944 l 181 944 l 181 69 l 97 69 l 97 0 l 364 0 l 364 69 l 281 69 l 281 847 l 792 0 l 903 0 l 903 944 l 986 944 l 986 1014 l 719 1014 l 719 944 z "},"O":{"ha":951,"x_min":83,"x_max":868,"o":"m 475 -19 q 651 5 579 -19 q 766 69 724 29 q 831 181 808 110 q 861 324 854 251 q 868 507 868 397 q 861 689 868 617 q 831 832 854 761 q 766 943 808 903 q 651 1008 724 983 q 475 1033 579 1033 q 323 1018 388 1033 q 216 969 258 1003 q 147 894 174 935 q 106 788 119 853 q 88 660 93 722 q 83 507 83 597 q 90 324 83 396 q 119 181 97 253 q 184 69 142 110 q 299 5 226 29 q 475 -19 371 -19 m 475 64 q 362 77 410 64 q 282 119 314 90 q 230 182 250 147 q 200 272 210 217 q 187 378 190 326 q 183 507 183 431 q 187 635 183 583 q 200 742 190 688 q 230 832 210 797 q 282 895 250 867 q 362 937 314 924 q 475 950 410 950 q 606 929 553 950 q 692 874 660 908 q 741 780 724 840 q 763 659 758 719 q 768 507 768 599 q 763 355 768 415 q 741 234 758 294 q 692 140 724 174 q 606 85 660 106 q 475 64 553 64 z "},"P":{"ha":832,"x_min":97,"x_max":763,"o":"m 458 382 q 595 400 538 382 q 685 445 653 418 q 735 517 717 472 q 758 601 753 561 q 763 697 763 642 q 753 818 763 769 q 714 915 743 867 q 621 989 685 964 q 458 1014 557 1014 l 181 1014 l 97 1014 l 97 944 l 181 944 l 181 69 l 97 69 l 97 0 l 392 0 l 392 69 l 281 69 l 281 382 l 458 382 m 281 464 l 281 932 l 458 932 q 567 915 525 932 q 630 863 610 899 q 656 791 650 828 q 663 697 663 754 q 656 604 663 640 q 630 533 650 568 q 567 481 610 497 q 458 464 525 464 l 281 464 z "},"Q":{"ha":938,"x_min":83,"x_max":854,"o":"m 558 -267 l 663 -267 l 536 -17 q 678 19 619 -10 q 770 89 736 47 q 824 199 804 131 q 849 335 843 267 q 854 507 854 404 q 847 689 854 617 q 818 832 840 761 q 754 943 796 903 q 642 1008 713 983 q 468 1033 571 1033 q 294 1008 365 1033 q 183 943 224 983 q 119 831 142 903 q 90 688 96 760 q 83 507 83 617 q 90 330 83 400 q 116 190 96 260 q 174 79 136 119 q 276 13 211 39 q 433 -18 340 -14 l 558 -267 m 468 64 q 340 85 393 64 q 257 140 288 106 q 210 234 226 174 q 188 355 193 294 q 183 507 183 415 q 188 659 183 599 q 210 780 193 719 q 257 874 226 840 q 340 929 288 908 q 468 950 393 950 q 596 929 543 950 q 680 874 649 908 q 728 780 711 840 q 749 659 744 719 q 754 507 754 599 q 749 355 754 415 q 728 234 744 294 q 680 140 711 174 q 596 85 649 106 q 468 64 543 64 z "},"R":{"ha":915,"x_min":97,"x_max":874,"o":"m 390 424 q 506 405 465 424 q 571 329 546 386 l 711 0 l 874 0 l 874 69 l 788 69 l 668 346 q 600 438 639 410 q 694 479 657 451 q 748 547 731 507 q 771 626 765 588 q 776 718 776 665 q 772 808 776 771 q 749 888 767 846 q 699 955 731 929 q 609 997 667 981 q 472 1014 551 1014 l 181 1014 l 97 1014 l 97 944 l 181 944 l 181 69 l 97 69 l 97 0 l 364 0 l 364 69 l 281 69 l 281 424 l 390 424 m 281 506 l 281 932 l 472 932 q 582 916 539 932 q 644 868 625 900 q 670 803 664 836 q 676 718 676 769 q 670 635 676 668 q 644 569 664 601 q 582 522 625 538 q 472 506 539 506 l 281 506 z "},"S":{"ha":800,"x_min":65,"x_max":738,"o":"m 140 0 l 140 119 q 419 -19 225 -19 q 666 53 594 -19 q 738 267 738 125 q 678 453 738 396 q 465 540 618 511 l 342 564 q 207 619 239 583 q 175 742 175 656 q 221 899 175 847 q 393 950 267 950 q 638 767 610 950 l 713 767 l 713 1014 l 638 1014 l 638 906 q 372 1033 563 1033 q 142 958 208 1033 q 75 740 75 883 q 131 554 75 610 q 338 469 188 499 l 463 446 q 600 388 563 426 q 638 253 638 349 q 585 111 638 158 q 406 64 533 64 q 208 130 274 64 q 140 300 143 196 l 65 300 l 65 0 l 140 0 z "},"T":{"ha":747,"x_min":14,"x_max":733,"o":"m 733 794 l 733 1014 l 14 1014 l 14 794 l 92 794 l 92 932 l 324 932 l 324 69 l 213 69 l 213 0 l 535 0 l 535 69 l 424 69 l 424 932 l 656 932 l 656 794 l 733 794 z "},"U":{"ha":1042,"x_min":76,"x_max":965,"o":"m 76 944 l 160 944 l 160 335 q 181 175 160 242 q 233 72 201 108 q 314 13 264 35 q 410 -14 364 -8 q 519 -19 456 -19 q 630 -14 583 -19 q 727 13 676 -8 q 809 72 778 35 q 861 175 840 108 q 882 335 882 242 l 882 944 l 965 944 l 965 1014 l 699 1014 l 699 944 l 782 944 l 782 335 q 761 192 782 249 q 700 109 740 135 q 619 74 660 83 q 519 65 578 65 q 422 74 463 65 q 341 109 381 83 q 281 192 301 135 q 260 335 260 249 l 260 944 l 343 944 l 343 1014 l 76 1014 l 76 944 z "},"V":{"ha":899,"x_min":28,"x_max":871,"o":"m 517 0 l 807 944 l 871 944 l 871 1014 l 618 1014 l 618 944 l 706 944 l 449 94 l 193 944 l 281 944 l 281 1014 l 28 1014 l 28 944 l 90 944 l 382 0 l 517 0 z "},"W":{"ha":1235,"x_min":21,"x_max":1214,"o":"m 438 0 l 617 821 l 797 0 l 943 0 l 1156 944 l 1214 944 l 1214 1014 l 961 1014 l 961 944 l 1054 944 l 867 92 l 667 1014 l 568 1014 l 367 92 l 181 944 l 274 944 l 274 1014 l 21 1014 l 21 944 l 78 944 l 292 0 l 438 0 z "},"X":{"ha":876,"x_min":21,"x_max":856,"o":"m 579 944 l 649 944 l 444 606 l 228 944 l 297 944 l 297 1014 l 44 1014 l 44 944 l 114 944 l 378 531 l 90 69 l 21 69 l 21 0 l 274 0 l 274 69 l 203 69 l 431 447 l 672 69 l 603 69 l 603 0 l 856 0 l 856 69 l 786 69 l 497 522 l 761 944 l 832 944 l 832 1014 l 579 1014 l 579 944 z "},"Y":{"ha":808,"x_min":14,"x_max":794,"o":"m 257 0 l 551 0 l 551 69 l 454 69 l 454 354 l 733 944 l 794 944 l 794 1014 l 556 1014 l 556 944 l 632 944 l 404 453 l 176 944 l 253 944 l 253 1014 l 14 1014 l 14 944 l 74 944 l 354 354 l 354 69 l 257 69 l 257 0 z "},"Z":{"ha":757,"x_min":42,"x_max":715,"o":"m 68 932 l 69 932 l 69 794 l 147 794 l 147 932 l 579 932 l 42 64 l 42 0 l 715 0 l 715 219 l 638 219 l 638 82 l 164 82 l 701 950 l 701 1014 l 69 1014 l 68 932 z "},"[":{"ha":394,"x_min":111,"x_max":388,"o":"m 111 -92 l 388 -92 l 388 -18 l 213 -18 l 213 947 l 388 947 l 388 1021 l 111 1021 l 111 -92 z "},"\\":{"ha":428,"x_min":0,"x_max":428,"o":"m 99 1076 l 0 1076 l 329 -147 l 428 -147 l 99 1076 z "},"]":{"ha":394,"x_min":7,"x_max":283,"o":"m 283 1021 l 7 1021 l 7 947 l 182 947 l 182 -18 l 7 -18 l 7 -92 l 283 -92 l 283 1021 z "},"^":{"ha":806,"x_min":144,"x_max":661,"o":"m 350 858 l 144 439 l 236 439 l 403 788 l 569 439 l 661 439 l 456 858 l 350 858 z "},"_":{"ha":806,"x_min":97,"x_max":708,"o":"m 97 -83 l 708 -83 l 708 0 l 97 0 l 97 -83 z "},"`":{"ha":436,"x_min":69,"x_max":367,"o":"m 308 867 l 69 1075 l 143 1149 l 367 925 l 308 867 z "},"a":{"ha":850,"x_min":89,"x_max":767,"o":"m 618 0 l 767 0 l 767 69 l 683 69 l 683 592 q 408 814 683 814 q 269 797 325 814 q 184 745 214 781 q 141 669 154 710 q 124 569 128 629 l 206 565 q 251 692 211 651 q 408 732 290 732 q 586 592 586 732 l 586 453 l 329 436 q 139 374 189 426 q 89 201 89 321 q 141 36 89 92 q 324 -19 193 -19 q 593 90 471 -19 l 618 0 m 338 60 q 218 94 253 60 q 183 197 183 128 q 215 324 183 292 q 335 363 246 357 l 586 378 l 586 168 q 338 60 472 60 z "},"b":{"ha":856,"x_min":56,"x_max":772,"o":"m 56 972 l 139 972 l 139 0 l 204 0 l 224 71 q 481 -19 349 -19 q 611 4 557 -19 q 696 64 665 28 q 744 158 726 100 q 767 270 763 217 q 772 397 772 324 q 767 524 772 469 q 744 635 761 578 q 695 730 726 693 q 610 790 664 767 q 481 814 556 814 q 236 739 363 814 l 236 1042 l 139 1042 l 56 1042 l 56 972 m 467 732 q 547 719 513 732 q 604 682 582 707 q 641 627 626 657 q 663 556 656 597 q 672 480 669 515 q 675 397 675 444 q 672 291 675 333 q 656 201 668 249 q 620 126 643 154 q 555 81 597 99 q 453 63 513 63 q 236 142 340 63 l 236 660 q 467 732 349 732 z "},"c":{"ha":788,"x_min":83,"x_max":700,"o":"m 621 794 l 622 708 q 403 814 553 814 q 263 791 322 814 q 170 732 204 768 q 116 639 136 696 q 90 526 96 582 q 83 397 83 471 q 89 270 83 324 q 114 158 94 217 q 167 64 133 100 q 263 4 201 28 q 410 -19 325 -19 q 551 -3 494 -19 q 639 49 608 14 q 683 125 669 85 q 700 225 696 165 l 621 229 q 573 103 615 143 q 408 63 531 63 q 317 75 356 63 q 253 114 278 88 q 214 168 229 140 q 192 239 199 196 q 183 315 185 282 q 181 397 181 349 q 183 494 181 454 q 199 582 186 533 q 235 660 213 631 q 299 711 257 690 q 401 732 342 732 q 563 678 510 732 q 628 514 615 624 l 692 514 l 692 794 l 621 794 z "},"d":{"ha":883,"x_min":83,"x_max":800,"o":"m 651 0 l 800 0 l 800 69 l 717 69 l 717 1042 l 536 1042 l 536 972 l 619 972 l 619 764 q 389 814 500 814 q 252 790 310 814 q 163 731 194 767 q 112 636 131 694 q 88 524 93 578 q 83 397 83 471 q 88 270 83 324 q 111 158 93 217 q 160 64 129 100 q 248 4 192 28 q 382 -19 304 -19 q 633 83 517 -19 l 651 0 m 399 63 q 225 147 269 63 q 181 397 181 232 q 190 532 181 476 q 222 635 199 588 q 290 708 244 683 q 403 732 335 732 q 619 685 518 732 l 619 156 q 399 63 518 63 z "},"e":{"ha":831,"x_min":97,"x_max":747,"o":"m 429 -19 q 578 1 518 -19 q 670 62 639 22 q 715 144 701 101 q 735 246 729 186 l 654 250 q 599 110 646 158 q 426 63 551 63 q 242 134 289 63 q 194 375 196 206 l 747 375 l 747 397 q 742 524 747 471 q 717 636 736 578 q 663 731 697 694 q 569 790 629 767 q 424 814 508 814 q 278 790 339 814 q 182 731 217 767 q 128 636 147 694 q 103 524 108 578 q 97 397 97 471 q 166 80 97 179 q 429 -19 235 -19 m 422 732 q 540 711 493 732 q 608 648 586 690 q 639 561 631 606 q 649 451 647 517 l 194 451 q 205 558 196 514 q 237 645 214 603 q 306 710 260 688 q 422 732 353 732 z "},"f":{"ha":476,"x_min":83,"x_max":456,"o":"m 275 849 q 294 940 275 914 q 371 972 313 967 l 456 979 l 456 1049 l 371 1049 q 215 999 253 1049 q 178 842 178 950 l 178 794 l 83 794 l 83 725 l 178 725 l 178 69 l 94 69 l 94 0 l 386 0 l 386 69 l 275 69 l 275 725 l 442 725 l 442 794 l 275 794 l 275 849 z "},"g":{"ha":806,"x_min":69,"x_max":750,"o":"m 408 256 q 538 272 483 256 q 622 312 592 288 q 669 375 651 336 q 691 449 686 414 q 696 535 696 485 q 651 726 696 665 l 744 819 l 686 878 l 588 779 q 408 814 518 814 q 280 798 333 814 q 196 758 226 782 q 149 694 165 733 q 127 620 132 656 q 122 535 122 585 q 194 313 122 374 l 135 256 q 74 126 74 194 q 150 11 74 43 q 69 -144 69 -54 q 92 -246 69 -207 q 163 -303 115 -285 q 263 -328 211 -322 q 394 -335 314 -335 q 501 -333 461 -335 q 595 -318 542 -331 q 678 -283 649 -306 q 728 -217 707 -261 q 750 -111 750 -174 q 697 26 750 -21 q 544 74 643 74 l 226 74 q 153 133 153 74 q 189 214 153 179 l 256 278 q 408 256 318 256 m 408 329 q 253 379 290 329 q 217 535 217 429 q 253 690 217 640 q 408 740 290 740 q 565 690 528 740 q 601 535 601 640 q 565 379 601 429 q 408 329 528 329 m 394 -261 q 299 -258 336 -261 q 226 -242 263 -254 q 172 -205 189 -231 q 154 -139 154 -179 q 218 0 154 -53 l 517 0 q 660 -112 660 0 q 601 -235 660 -210 q 394 -261 542 -261 z "},"h":{"ha":946,"x_min":83,"x_max":863,"o":"m 83 972 l 167 972 l 167 69 l 83 69 l 83 0 l 347 0 l 347 69 l 264 69 l 264 629 q 535 732 393 732 q 648 693 614 732 q 682 567 682 654 l 682 69 l 599 69 l 599 0 l 863 0 l 863 69 l 779 69 l 779 565 q 726 753 779 693 q 550 814 672 814 q 264 713 403 814 l 264 1042 l 83 1042 l 83 972 z "},"i":{"ha":444,"x_min":97,"x_max":361,"o":"m 97 725 l 181 725 l 181 69 l 97 69 l 97 0 l 361 0 l 361 69 l 278 69 l 278 794 l 97 794 l 97 725 m 229 933 q 281 953 269 933 q 292 1007 292 972 q 289 1044 292 1031 q 272 1069 286 1057 q 229 1082 257 1082 q 189 1069 203 1082 q 172 1044 175 1057 q 169 1007 169 1031 q 172 972 169 985 q 189 946 175 958 q 229 933 203 933 z "},"j":{"ha":431,"x_min":-14,"x_max":292,"o":"m 83 725 l 167 725 l 167 -108 q 148 -200 167 -174 q 71 -232 129 -226 l -14 -239 l -14 -315 l 71 -315 q 226 -266 189 -315 q 264 -108 264 -217 l 264 794 l 83 794 l 83 725 m 229 933 q 281 953 269 933 q 292 1007 292 972 q 289 1044 292 1031 q 272 1069 286 1057 q 229 1082 257 1082 q 189 1069 203 1082 q 172 1044 175 1057 q 169 1007 169 1031 q 172 972 169 985 q 189 946 175 958 q 229 933 203 933 z "},"k":{"ha":828,"x_min":83,"x_max":786,"o":"m 83 972 l 167 972 l 167 69 l 83 69 l 83 0 l 347 0 l 347 69 l 264 69 l 264 392 l 375 392 l 596 69 l 522 69 l 522 0 l 786 0 l 786 69 l 704 69 l 463 421 l 678 725 l 761 725 l 761 794 l 497 794 l 497 725 l 569 725 l 389 467 l 264 467 l 264 1042 l 83 1042 l 83 972 z "},"l":{"ha":431,"x_min":83,"x_max":347,"o":"m 83 972 l 167 972 l 167 69 l 83 69 l 83 0 l 347 0 l 347 69 l 264 69 l 264 1042 l 83 1042 l 83 972 z "},"m":{"ha":1419,"x_min":97,"x_max":1336,"o":"m 585 0 l 849 0 l 849 69 l 765 69 l 765 567 q 761 629 765 600 q 1007 732 872 732 q 1156 567 1156 732 l 1156 69 l 1072 69 l 1072 0 l 1336 0 l 1336 69 l 1253 69 l 1253 567 q 1019 814 1253 814 q 866 781 942 814 q 742 699 790 747 q 532 814 690 814 q 268 708 385 814 l 246 794 l 181 794 l 97 794 l 97 725 l 181 725 l 181 69 l 97 69 l 97 0 l 361 0 l 361 69 l 278 69 l 278 632 q 519 732 386 732 q 668 567 668 732 l 668 69 l 585 69 l 585 0 z "},"n":{"ha":960,"x_min":97,"x_max":876,"o":"m 97 725 l 181 725 l 181 69 l 97 69 l 97 0 l 361 0 l 361 69 l 278 69 l 278 629 q 549 732 407 732 q 662 693 628 732 q 696 567 696 654 l 696 69 l 613 69 l 613 0 l 876 0 l 876 69 l 793 69 l 793 565 q 740 753 793 693 q 564 814 686 814 q 269 706 410 814 l 246 794 l 97 794 l 97 725 z "},"o":{"ha":844,"x_min":83,"x_max":761,"o":"m 422 63 q 309 83 356 63 q 238 131 263 103 q 200 209 214 160 q 183 298 186 258 q 181 397 181 338 q 183 497 181 457 q 200 585 186 536 q 238 663 214 635 q 309 712 263 692 q 422 732 356 732 q 535 712 489 732 q 606 663 582 692 q 644 585 631 635 q 661 497 658 536 q 664 397 664 457 q 661 298 664 338 q 644 209 658 258 q 606 131 631 160 q 535 83 582 103 q 422 63 489 63 m 422 -19 q 537 -7 486 -19 q 623 26 588 6 q 684 78 658 46 q 724 143 710 110 q 747 222 739 176 q 758 306 756 267 q 761 397 761 346 q 758 488 761 449 q 747 573 756 528 q 724 651 739 618 q 684 717 710 685 q 623 769 658 749 q 537 801 588 789 q 422 814 486 814 q 308 801 358 814 q 222 769 257 789 q 160 717 186 749 q 120 651 135 685 q 97 573 106 618 q 86 488 89 528 q 83 397 83 449 q 86 306 83 346 q 97 222 89 267 q 120 143 106 176 q 160 78 135 110 q 222 26 186 46 q 308 -7 257 6 q 422 -19 358 -19 z "},"p":{"ha":883,"x_min":83,"x_max":800,"o":"m 232 794 l 167 794 l 83 794 l 83 725 l 167 725 l 167 -246 l 83 -246 l 83 -315 l 375 -315 l 375 -246 l 264 -246 l 264 29 q 494 -19 375 -19 q 631 4 574 -19 q 721 64 689 28 q 772 158 753 100 q 795 270 790 217 q 800 397 800 324 q 795 524 800 471 q 772 636 790 578 q 724 731 754 694 q 639 790 693 767 q 508 814 585 814 q 251 719 378 814 l 232 794 m 494 732 q 575 719 540 732 q 632 682 610 707 q 669 627 654 657 q 690 556 683 597 q 700 480 697 515 q 703 397 703 444 q 699 290 703 333 q 683 199 696 246 q 646 126 669 153 q 581 81 622 99 q 481 63 539 63 q 264 107 361 63 l 264 650 q 494 732 371 732 z "},"q":{"ha":883,"x_min":83,"x_max":800,"o":"m 800 -246 l 717 -246 l 717 725 l 800 725 l 800 794 l 651 794 l 635 733 q 389 814 528 814 q 252 790 310 814 q 163 731 194 767 q 112 636 131 694 q 88 524 93 578 q 83 397 83 471 q 88 270 83 324 q 112 158 93 217 q 163 64 131 100 q 252 4 194 28 q 389 -19 310 -19 q 619 36 496 -19 l 619 -246 l 508 -246 l 508 -315 l 800 -315 l 800 -246 m 403 63 q 288 86 333 63 q 219 158 242 110 q 188 262 196 207 q 181 397 181 317 q 185 506 181 460 q 204 598 190 553 q 242 671 218 643 q 307 715 267 699 q 403 732 347 732 q 619 663 531 732 l 619 117 q 403 63 515 63 z "},"r":{"ha":582,"x_min":97,"x_max":568,"o":"m 246 794 l 181 794 l 97 794 l 97 725 l 181 725 l 181 69 l 97 69 l 97 0 l 389 0 l 389 69 l 278 69 l 278 540 q 568 721 372 714 l 568 814 q 276 642 374 807 l 246 794 z "},"s":{"ha":789,"x_min":101,"x_max":692,"o":"m 590 794 l 592 714 q 363 814 528 814 q 167 753 233 814 q 101 594 101 693 q 157 444 101 490 q 342 364 213 397 l 450 335 q 563 283 531 314 q 594 203 594 253 q 406 63 594 63 q 168 281 192 63 l 104 281 l 104 0 l 175 0 l 172 103 q 418 -19 244 -19 q 692 203 692 -19 q 637 348 692 301 q 454 429 582 394 l 346 458 q 231 509 264 479 q 199 596 199 539 q 238 694 199 657 q 363 732 278 732 q 463 724 425 732 q 531 694 500 717 q 576 628 561 671 q 597 514 592 585 l 661 514 l 661 794 l 590 794 z "},"t":{"ha":504,"x_min":49,"x_max":435,"o":"m 49 725 l 174 725 l 174 174 q 176 115 174 139 q 186 64 178 92 q 209 19 194 36 q 251 -8 224 3 q 315 -19 278 -19 q 435 0 365 -19 l 422 68 q 346 57 374 57 q 288 83 306 57 q 271 174 271 110 l 271 725 l 417 725 l 417 794 l 271 794 l 271 972 l 174 953 l 174 794 l 49 794 l 49 725 z "},"u":{"ha":967,"x_min":83,"x_max":883,"o":"m 167 794 l 83 794 l 83 725 l 167 725 l 167 226 q 219 39 167 97 q 401 -19 271 -19 q 707 101 561 -19 l 735 0 l 883 0 l 883 69 l 800 69 l 800 794 l 619 794 l 619 725 l 703 725 l 703 183 q 422 63 571 63 q 299 101 335 63 q 264 228 264 139 l 264 794 l 167 794 z "},"v":{"ha":794,"x_min":14,"x_max":781,"o":"m 244 794 l 14 794 l 14 725 l 68 725 l 344 0 l 450 0 l 726 725 l 781 725 l 781 794 l 550 794 l 550 725 l 628 725 l 397 107 l 165 725 l 244 725 l 244 794 z "},"w":{"ha":1092,"x_min":14,"x_max":1078,"o":"m 1078 794 l 847 794 l 847 725 l 932 725 l 761 121 l 586 725 l 504 725 l 331 121 l 160 725 l 244 725 l 244 794 l 14 794 l 14 725 l 61 725 l 271 0 l 378 0 l 546 581 l 714 0 l 821 0 l 1029 725 l 1078 725 l 1078 794 z "},"x":{"ha":790,"x_min":35,"x_max":756,"o":"m 279 69 l 200 69 l 390 342 l 581 69 l 511 69 l 511 0 l 756 0 l 756 69 l 690 69 l 453 408 l 675 725 l 735 725 l 735 794 l 490 794 l 490 725 l 568 725 l 400 483 l 231 725 l 300 725 l 300 794 l 56 794 l 56 725 l 121 725 l 338 415 l 93 69 l 35 69 l 35 0 l 279 0 l 279 69 z "},"y":{"ha":794,"x_min":14,"x_max":781,"o":"m 138 -315 l 263 -315 q 326 -294 306 -315 q 365 -225 347 -272 l 726 725 l 781 725 l 781 794 l 550 794 l 550 725 l 628 725 l 397 106 l 165 725 l 244 725 l 244 794 l 14 794 l 14 725 l 68 725 l 351 -18 l 288 -189 q 275 -217 281 -208 q 257 -231 269 -225 q 219 -239 244 -237 l 138 -246 l 138 -315 z "},"z":{"ha":675,"x_min":-14,"x_max":606,"o":"m 536 231 l 536 78 l 106 78 l 600 725 l 600 794 l 19 794 l 19 564 l 89 564 l 89 717 l 481 717 l -14 69 l -14 0 l 606 0 l 606 231 l 536 231 z "},"{":{"ha":408,"x_min":29,"x_max":401,"o":"m 168 461 q 216 436 196 461 q 236 369 236 411 q 231 289 236 342 q 225 200 225 236 q 265 48 225 101 q 401 -6 304 -6 l 401 -92 q 122 190 122 -92 q 128 280 122 224 q 133 363 133 336 q 101 415 133 400 q 29 431 68 431 l 29 500 q 101 515 68 500 q 133 568 133 531 q 128 651 133 594 q 122 740 122 707 q 401 1022 122 1022 l 401 936 q 265 883 304 936 q 225 731 225 829 q 231 642 225 694 q 236 561 236 589 q 216 494 236 519 q 168 469 196 469 l 168 461 z "},"|":{"ha":446,"x_min":167,"x_max":279,"o":"m 167 -147 l 279 -147 l 279 1076 l 167 1076 l 167 -147 z "},"}":{"ha":408,"x_min":7,"x_max":379,"o":"m 240 469 q 192 494 213 469 q 172 561 172 519 q 178 642 172 589 q 183 731 183 694 q 144 883 183 829 q 7 936 104 936 l 7 1022 q 286 740 286 1022 q 281 651 286 707 q 275 568 275 594 q 308 515 275 531 q 379 500 340 500 l 379 431 q 308 415 340 431 q 275 363 275 400 q 281 280 275 336 q 286 190 286 224 q 7 -92 286 -92 l 7 -6 q 144 48 104 -6 q 183 200 183 101 q 178 289 183 236 q 172 369 172 342 q 192 436 172 411 q 240 461 213 461 l 240 469 z "},"~":{"ha":806,"x_min":131,"x_max":675,"o":"m 131 400 q 244 369 182 369 q 402 399 296 369 q 561 429 508 429 q 675 400 622 429 l 675 483 q 561 510 624 510 q 402 480 508 510 q 244 450 296 450 q 131 483 178 450 l 131 400 z "},"¡":{"ha":439,"x_min":153,"x_max":286,"o":"m 221 814 q 274 792 261 814 q 286 733 286 771 q 283 694 286 708 q 265 665 281 679 q 221 651 250 651 q 165 674 178 651 q 153 733 153 696 q 155 762 153 750 q 163 787 157 774 q 184 807 169 800 q 221 814 199 814 m 276 -211 l 276 8 l 251 546 l 190 546 l 165 8 l 165 -211 l 276 -211 z "},"¢":{"ha":806,"x_min":117,"x_max":731,"o":"m 407 -103 l 476 -103 l 476 50 q 626 89 569 56 q 703 171 682 122 q 731 293 725 219 l 651 297 q 610 180 649 221 q 476 132 572 139 l 476 799 q 642 615 632 790 l 721 619 q 658 807 711 738 q 476 882 604 876 l 476 1033 l 407 1033 l 407 879 q 276 847 331 874 q 192 784 222 821 q 144 692 161 747 q 122 585 126 636 q 117 465 117 535 q 122 343 117 396 q 146 234 128 290 q 194 141 164 178 q 279 78 225 104 q 407 49 333 53 l 407 -103 m 214 465 q 216 561 214 524 q 229 645 218 599 q 260 719 240 692 q 317 768 279 746 q 407 797 354 790 l 407 132 q 319 157 356 136 q 263 206 283 178 q 231 281 243 235 q 217 367 219 326 q 214 465 214 407 z "},"£":{"ha":806,"x_min":89,"x_max":738,"o":"m 89 404 l 181 404 l 181 228 q 114 78 181 136 l 114 0 l 738 0 l 738 82 l 218 82 q 267 145 254 111 q 281 242 281 179 l 281 404 l 613 404 l 613 474 l 281 474 l 281 679 q 317 822 281 775 q 449 868 353 868 q 585 822 543 868 q 628 674 628 775 l 714 679 q 651 885 714 819 q 443 950 589 950 q 241 882 301 950 q 181 679 181 814 l 181 474 l 89 474 l 89 404 z "},"¤":{"ha":808,"x_min":56,"x_max":753,"o":"m 104 814 l 56 765 l 172 647 q 135 465 135 589 q 169 279 135 340 l 56 165 l 104 117 l 217 229 q 399 182 279 182 q 593 226 524 182 l 704 117 l 753 165 l 644 275 q 688 465 688 336 q 646 658 688 597 l 753 765 l 704 814 l 597 707 q 422 749 536 749 q 219 699 290 749 l 104 814 m 399 264 q 316 276 350 264 q 264 306 282 289 q 236 352 246 322 q 224 406 226 382 q 222 465 222 429 q 224 525 222 501 q 238 578 226 549 q 269 625 249 608 q 328 654 290 642 q 422 667 367 667 q 506 654 471 667 q 558 625 540 642 q 586 578 576 608 q 598 525 596 549 q 600 465 600 501 q 598 406 600 429 q 585 352 596 382 q 553 306 574 322 q 493 276 532 289 q 399 264 454 264 z "},"¥":{"ha":806,"x_min":68,"x_max":738,"o":"m 453 383 l 510 494 l 700 494 l 700 564 l 546 564 l 738 931 l 632 931 l 403 476 l 174 931 l 68 931 l 258 564 l 107 564 l 107 494 l 294 494 l 353 383 l 107 383 l 107 314 l 353 314 l 353 0 l 453 0 l 453 314 l 700 314 l 700 383 l 453 383 z "},"¦":{"ha":446,"x_min":167,"x_max":279,"o":"m 167 589 l 279 589 l 279 1076 l 167 1076 l 167 589 m 167 -147 l 279 -147 l 279 340 l 167 340 l 167 -147 z "},"§":{"ha":800,"x_min":101,"x_max":711,"o":"m 711 335 q 655 496 711 440 q 469 578 599 551 l 342 604 q 213 763 213 631 q 256 904 213 857 q 407 951 299 951 q 565 904 518 951 q 611 760 611 857 l 697 765 q 629 965 697 897 q 404 1033 561 1033 q 181 965 247 1033 q 115 763 115 897 q 189 572 115 633 q 115 363 115 508 q 167 200 115 256 q 342 119 219 144 l 469 93 q 614 -65 614 64 q 568 -207 614 -160 q 406 -254 522 -254 q 238 -206 288 -254 q 188 -60 188 -158 l 101 -65 q 172 -267 101 -199 q 406 -336 242 -336 q 640 -266 569 -336 q 711 -65 711 -196 q 631 125 711 63 q 711 335 711 190 m 481 490 q 610 332 610 464 q 540 163 610 203 l 353 201 q 244 258 276 218 q 213 363 213 297 q 282 532 213 492 l 481 490 z "},"¨":{"ha":428,"x_min":7,"x_max":421,"o":"m 67 933 q 26 946 40 933 q 10 972 13 958 q 7 1007 7 985 q 10 1044 7 1031 q 26 1069 13 1057 q 67 1082 40 1082 q 118 1063 107 1082 q 129 1007 129 1043 q 126 972 129 985 q 109 946 124 958 q 67 933 94 933 m 358 933 q 318 946 332 933 q 301 972 304 958 q 299 1007 299 985 q 301 1044 299 1031 q 318 1069 304 1057 q 358 1082 332 1082 q 410 1063 399 1082 q 421 1007 421 1043 q 418 972 421 985 q 401 946 415 958 q 358 933 386 933 z "},"©":{"ha":1010,"x_min":97,"x_max":913,"o":"m 97 778 q 191 465 97 558 q 504 371 285 371 q 818 465 724 371 q 913 778 913 558 q 818 1092 913 997 q 504 1186 724 1186 q 191 1092 285 1186 q 97 778 97 997 m 164 778 q 240 1047 164 968 q 504 1126 315 1126 q 770 1047 694 1126 q 846 778 846 968 q 770 510 846 589 q 504 431 694 431 q 239 509 314 431 q 164 778 164 588 m 681 911 q 632 1029 672 990 q 503 1068 592 1068 q 332 999 376 1068 q 288 779 288 929 q 330 558 288 626 q 504 489 372 489 q 638 535 599 489 q 682 669 676 581 l 624 672 q 504 549 619 549 q 387 601 414 549 q 360 779 360 654 q 388 955 360 900 q 503 1010 417 1010 q 588 985 561 1010 q 621 907 615 960 l 681 911 z "},"ª":{"ha":593,"x_min":56,"x_max":540,"o":"m 424 486 l 540 486 l 540 546 l 482 546 l 482 900 q 285 1056 482 1056 q 129 1012 172 1056 q 79 881 86 968 l 151 876 q 181 958 154 932 q 282 985 208 985 q 393 896 393 985 l 393 807 l 228 796 q 91 751 126 789 q 56 628 56 713 q 93 512 56 551 q 219 472 131 472 q 407 544 321 472 l 424 486 m 239 542 q 165 563 186 542 q 143 629 143 585 q 164 709 143 688 q 242 733 185 731 l 393 743 l 393 606 q 239 542 325 542 m 65 356 l 540 356 l 540 415 l 65 415 l 65 356 z "},"«":{"ha":722,"x_min":42,"x_max":639,"o":"m 168 438 l 340 219 l 275 156 l 42 415 l 42 460 l 275 719 l 340 656 l 168 438 m 467 438 l 639 219 l 574 156 l 340 415 l 340 460 l 574 719 l 639 656 l 467 438 z "},"¬":{"ha":806,"x_min":131,"x_max":675,"o":"m 131 400 l 597 400 l 597 208 l 675 208 l 675 483 l 131 483 l 131 400 z "},"®":{"ha":1010,"x_min":97,"x_max":913,"o":"m 97 778 q 191 465 97 558 q 504 371 285 371 q 818 465 724 371 q 913 778 913 558 q 818 1092 913 997 q 504 1186 724 1186 q 191 1092 285 1186 q 97 778 97 997 m 164 778 q 240 1047 164 968 q 504 1126 315 1126 q 770 1047 694 1126 q 846 778 846 968 q 770 510 846 589 q 504 431 694 431 q 239 509 314 431 q 164 778 164 588 m 342 1058 l 342 500 l 414 500 l 414 729 l 478 729 q 553 681 532 729 l 631 500 l 708 500 l 625 690 q 592 739 611 721 q 666 794 647 756 q 685 893 685 832 q 651 1015 685 971 q 513 1058 618 1058 l 342 1058 m 414 786 l 414 1000 l 511 1000 q 593 973 574 1000 q 613 893 613 946 q 593 813 613 840 q 511 786 574 786 l 414 786 z "},"¯":{"ha":492,"x_min":69,"x_max":422,"o":"m 69 964 l 422 964 l 422 1054 l 69 1054 l 69 964 z "},"°":{"ha":590,"x_min":67,"x_max":524,"o":"m 294 543 q 217 558 247 543 q 174 602 186 572 q 158 658 161 632 q 154 729 154 685 q 158 800 154 774 q 174 856 161 826 q 217 901 186 886 q 294 915 247 915 q 372 901 342 915 q 415 856 403 886 q 431 800 428 826 q 435 729 435 774 q 431 658 435 685 q 415 602 428 632 q 372 558 403 572 q 294 543 342 543 m 294 472 q 417 492 368 472 q 488 553 465 513 q 517 633 510 593 q 524 729 524 672 q 517 827 524 788 q 488 906 510 867 q 417 966 465 946 q 294 986 368 986 q 173 966 221 986 q 103 906 125 946 q 74 827 81 867 q 67 729 67 788 q 74 633 67 672 q 103 553 81 593 q 173 492 125 513 q 294 472 221 472 z "},"±":{"ha":806,"x_min":131,"x_max":675,"o":"m 131 469 l 361 469 l 361 239 l 444 239 l 444 469 l 675 469 l 675 553 l 444 553 l 444 783 l 361 783 l 361 553 l 131 553 l 131 469 m 131 0 l 675 0 l 675 83 l 131 83 l 131 0 z "},"²":{"ha":575,"x_min":101,"x_max":472,"o":"m 206 542 l 371 721 q 465 901 465 824 q 289 1054 465 1054 q 151 1011 192 1054 q 111 885 111 968 l 178 885 q 201 965 178 939 q 286 992 224 992 q 390 901 390 992 q 378 853 390 878 q 355 815 367 829 q 315 769 343 800 l 101 538 l 101 479 l 472 479 l 472 542 l 206 542 z "},"³":{"ha":575,"x_min":100,"x_max":482,"o":"m 482 622 q 388 761 482 725 q 474 889 474 801 q 289 1054 474 1054 q 152 1011 193 1054 q 111 885 111 968 l 178 885 q 285 992 178 992 q 372 965 346 992 q 397 889 397 939 q 371 815 397 843 q 293 788 344 788 l 208 788 l 208 729 l 292 729 q 406 624 406 729 q 285 529 406 529 q 167 636 167 529 l 100 636 q 142 510 100 551 q 288 468 185 468 q 433 508 385 468 q 482 622 482 549 z "},"´":{"ha":436,"x_min":69,"x_max":367,"o":"m 128 867 l 367 1075 l 293 1149 l 69 925 l 128 867 z "},"µ":{"ha":890,"x_min":167,"x_max":800,"o":"m 167 -315 l 167 794 l 264 794 l 264 183 q 544 63 396 63 q 667 101 632 63 q 703 228 703 139 l 703 794 l 800 794 l 800 226 q 748 39 800 97 q 565 -19 696 -19 q 264 97 413 -19 l 264 -315 l 167 -315 z "},"¶":{"ha":679,"x_min":42,"x_max":582,"o":"m 582 0 l 288 0 l 288 69 l 399 69 l 399 396 l 313 396 q 168 417 225 396 q 85 479 111 438 q 50 562 58 521 q 42 663 42 603 q 50 765 42 724 q 85 847 58 806 q 168 910 111 889 q 313 931 225 931 l 499 931 l 582 931 l 582 861 l 499 861 l 499 69 l 582 69 l 582 0 z "},"·":{"ha":314,"x_min":90,"x_max":224,"o":"m 156 357 q 211 378 199 357 q 224 438 224 400 q 222 467 224 456 q 213 492 219 479 q 192 513 207 506 q 156 519 178 519 q 103 497 115 519 q 90 438 90 475 q 93 399 90 414 q 112 371 96 385 q 156 357 128 357 z "},"¸":{"ha":415,"x_min":69,"x_max":346,"o":"m 69 -203 q 99 -301 69 -268 q 207 -335 129 -335 q 316 -301 286 -335 q 346 -201 346 -268 q 311 -103 346 -129 q 204 -76 276 -78 l 218 0 l 150 0 l 129 -119 l 204 -133 q 256 -155 242 -140 q 269 -203 269 -169 q 259 -251 269 -236 q 211 -265 249 -265 q 163 -251 174 -265 q 153 -203 153 -236 l 69 -203 z "},"¹":{"ha":574,"x_min":149,"x_max":457,"o":"m 150 953 l 264 953 l 264 542 l 149 542 l 149 479 l 457 479 l 457 542 l 342 542 l 342 1042 l 283 1042 q 150 1000 238 1008 l 150 953 z "},"º":{"ha":590,"x_min":53,"x_max":538,"o":"m 294 543 q 223 556 253 543 q 177 587 193 568 q 153 638 161 606 q 142 696 144 669 q 140 764 140 722 q 142 832 140 806 q 153 890 144 858 q 177 941 161 922 q 223 972 193 960 q 294 985 253 985 q 367 972 338 985 q 413 940 397 958 q 436 890 428 922 q 447 831 444 857 q 449 764 449 806 q 447 697 449 722 q 436 638 444 671 q 413 588 428 606 q 367 556 397 569 q 294 543 338 543 m 294 472 q 424 495 374 472 q 499 563 475 518 q 530 653 522 608 q 538 764 538 699 q 530 875 538 831 q 499 965 522 919 q 424 1033 475 1010 q 294 1056 374 1056 q 165 1033 217 1056 q 91 965 114 1010 q 60 874 68 919 q 53 764 53 829 q 57 675 53 713 q 76 597 61 638 q 115 531 90 557 q 185 489 140 506 q 294 472 231 472 m 67 356 l 522 356 l 522 415 l 67 415 l 67 356 z "},"»":{"ha":722,"x_min":42,"x_max":639,"o":"m 513 438 l 340 656 l 406 719 l 639 460 l 639 415 l 406 156 l 340 219 l 513 438 m 214 438 l 42 656 l 107 719 l 340 460 l 340 415 l 107 156 l 42 219 l 214 438 z "},"¼":{"ha":1364,"x_min":160,"x_max":1260,"o":"m 1193 0 l 1193 118 l 1260 118 l 1260 181 l 1193 181 l 1193 563 l 1075 563 l 840 178 l 840 118 l 1118 118 l 1118 0 l 1193 0 m 511 -92 l 583 -92 l 882 1021 l 808 1021 l 511 -92 m 161 849 l 275 849 l 275 438 l 160 438 l 160 375 l 468 375 l 468 438 l 353 438 l 353 938 l 294 938 q 161 896 249 904 l 161 849 m 926 181 l 1118 496 l 1118 181 l 926 181 z "},"½":{"ha":1364,"x_min":160,"x_max":1249,"o":"m 982 63 l 1147 242 q 1242 422 1242 344 q 1065 575 1242 575 q 928 532 968 575 q 888 406 888 489 l 954 406 q 977 486 954 460 q 1063 513 1000 513 q 1167 422 1167 513 q 1155 374 1167 399 q 1131 335 1143 350 q 1092 290 1119 321 l 878 58 l 878 0 l 1249 0 l 1249 63 l 982 63 m 483 -92 l 556 -92 l 854 1021 l 781 1021 l 483 -92 m 161 849 l 275 849 l 275 438 l 160 438 l 160 375 l 468 375 l 468 438 l 353 438 l 353 938 l 294 938 q 161 896 249 904 l 161 849 z "},"¾":{"ha":1364,"x_min":111,"x_max":1260,"o":"m 1193 0 l 1193 118 l 1260 118 l 1260 181 l 1193 181 l 1193 563 l 1075 563 l 840 178 l 840 118 l 1118 118 l 1118 0 l 1193 0 m 493 518 q 399 657 493 622 q 485 785 485 697 q 300 950 485 950 q 163 907 204 950 q 122 781 122 864 l 189 781 q 296 888 189 888 q 383 861 357 888 q 408 785 408 835 q 382 711 408 739 q 304 683 356 683 l 219 683 l 219 625 l 303 625 q 417 519 417 625 q 296 425 417 425 q 178 532 178 425 l 111 532 q 153 406 111 447 q 299 364 196 364 q 444 404 396 364 q 493 518 493 444 m 518 -92 l 590 -92 l 889 1021 l 815 1021 l 518 -92 m 926 181 l 1118 496 l 1118 181 l 926 181 z "},"¿":{"ha":672,"x_min":58,"x_max":628,"o":"m 378 814 q 431 792 418 814 q 443 733 443 771 q 440 694 443 708 q 422 665 438 679 q 378 651 407 651 q 322 674 335 651 q 310 733 310 696 q 312 762 310 750 q 320 787 314 774 q 341 807 326 800 q 378 814 356 814 m 307 340 q 119 263 179 321 q 58 60 58 204 q 126 -157 58 -83 q 354 -231 194 -231 q 563 -169 499 -231 q 628 8 628 -108 l 544 8 q 356 -149 544 -149 q 197 -95 242 -149 q 153 63 153 -42 q 203 218 153 174 q 347 274 253 263 l 418 282 l 408 546 l 344 546 l 329 343 l 307 340 z "},"À":{"ha":907,"x_min":7,"x_max":900,"o":"m 386 1014 l 71 69 l 7 69 l 7 0 l 254 0 l 254 69 l 171 69 l 256 328 l 650 328 l 735 69 l 653 69 l 653 0 l 900 0 l 900 69 l 835 69 l 521 1014 l 386 1014 m 453 926 l 624 410 l 283 410 l 453 926 m 543 1086 l 304 1294 l 378 1368 l 601 1144 l 543 1086 z "},"Á":{"ha":907,"x_min":7,"x_max":900,"o":"m 386 1014 l 71 69 l 7 69 l 7 0 l 254 0 l 254 69 l 171 69 l 256 328 l 650 328 l 735 69 l 653 69 l 653 0 l 900 0 l 900 69 l 835 69 l 521 1014 l 386 1014 m 453 926 l 624 410 l 283 410 l 453 926 m 363 1086 l 601 1294 l 528 1368 l 304 1144 l 363 1086 z "},"Â":{"ha":907,"x_min":7,"x_max":900,"o":"m 386 1014 l 71 69 l 7 69 l 7 0 l 254 0 l 254 69 l 171 69 l 256 328 l 650 328 l 735 69 l 653 69 l 653 0 l 900 0 l 900 69 l 835 69 l 521 1014 l 386 1014 m 453 926 l 624 410 l 283 410 l 453 926 m 303 1086 l 453 1239 l 604 1086 l 663 1144 l 474 1360 l 433 1360 l 244 1144 l 303 1086 z "},"Ã":{"ha":907,"x_min":7,"x_max":900,"o":"m 386 1014 l 71 69 l 7 69 l 7 0 l 254 0 l 254 69 l 171 69 l 256 328 l 650 328 l 735 69 l 653 69 l 653 0 l 900 0 l 900 69 l 835 69 l 521 1014 l 386 1014 m 453 926 l 624 410 l 283 410 l 453 926 m 554 1160 q 676 1289 639 1160 l 607 1311 q 582 1264 596 1278 q 543 1250 568 1250 q 456 1275 525 1250 q 351 1300 386 1300 q 229 1171 267 1300 l 300 1149 q 325 1196 311 1182 q 364 1210 339 1210 q 451 1185 383 1210 q 554 1160 519 1160 z "},"Ä":{"ha":907,"x_min":7,"x_max":900,"o":"m 386 1014 l 71 69 l 7 69 l 7 0 l 254 0 l 254 69 l 171 69 l 256 328 l 650 328 l 735 69 l 653 69 l 653 0 l 900 0 l 900 69 l 835 69 l 521 1014 l 386 1014 m 453 926 l 624 410 l 283 410 l 453 926 m 306 1153 q 265 1165 279 1153 q 249 1191 251 1178 q 246 1226 246 1204 q 249 1263 246 1250 q 265 1289 251 1276 q 306 1301 279 1301 q 357 1282 346 1301 q 368 1226 368 1263 q 365 1191 368 1204 q 348 1165 363 1178 q 306 1153 333 1153 m 597 1153 q 557 1165 571 1153 q 540 1191 543 1178 q 538 1226 538 1204 q 540 1263 538 1250 q 557 1289 543 1276 q 597 1301 571 1301 q 649 1282 638 1301 q 660 1226 660 1263 q 657 1191 660 1204 q 640 1165 654 1178 q 597 1153 625 1153 z "},"Å":{"ha":907,"x_min":7,"x_max":900,"o":"m 386 1014 l 71 69 l 7 69 l 7 0 l 254 0 l 254 69 l 171 69 l 256 328 l 650 328 l 735 69 l 653 69 l 653 0 l 900 0 l 900 69 l 835 69 l 521 1014 l 386 1014 m 453 926 l 624 410 l 283 410 l 453 926 m 451 1151 q 403 1172 414 1151 q 393 1226 393 1192 q 396 1264 393 1250 q 412 1290 399 1278 q 451 1303 425 1303 q 493 1290 479 1303 q 510 1263 507 1276 q 513 1226 513 1250 q 510 1190 513 1204 q 493 1164 507 1176 q 451 1151 479 1151 m 451 1092 q 525 1103 496 1092 q 566 1136 554 1114 q 581 1178 578 1158 q 585 1226 585 1197 q 581 1275 585 1256 q 566 1317 578 1294 q 525 1351 554 1340 q 451 1363 496 1363 q 379 1351 407 1363 q 340 1317 351 1340 q 324 1275 328 1294 q 321 1226 321 1256 q 324 1178 321 1197 q 340 1136 328 1158 q 379 1103 351 1114 q 451 1092 407 1092 z "},"Æ":{"ha":1310,"x_min":7,"x_max":1226,"o":"m 7 0 l 254 0 l 254 69 l 175 69 l 329 474 l 629 474 l 629 69 l 546 69 l 546 0 l 1226 0 l 1226 219 l 1149 219 l 1149 82 l 729 82 l 729 474 l 1129 474 l 1129 557 l 729 557 l 729 932 l 1121 932 l 1121 794 l 1199 794 l 1199 1014 l 1121 1014 l 442 1014 l 75 69 l 7 69 l 7 0 m 629 932 l 629 557 l 361 557 l 506 932 l 629 932 z "},"Ç":{"ha":881,"x_min":104,"x_max":801,"o":"m 299 -203 q 328 -301 299 -268 q 436 -335 358 -335 q 545 -301 515 -335 q 575 -201 575 -268 q 540 -103 575 -129 q 433 -76 506 -78 l 443 -18 q 465 -19 450 -18 q 488 -19 479 -19 q 638 2 576 -19 q 732 67 699 24 q 781 163 765 111 q 801 290 796 215 l 719 294 q 665 125 715 186 q 488 64 614 64 q 354 85 408 64 q 271 139 300 107 q 226 235 242 171 q 208 354 211 299 q 204 507 204 410 q 209 659 204 599 q 230 780 214 719 q 274 874 246 840 q 353 929 303 908 q 474 950 403 950 q 662 890 606 950 q 726 714 718 829 l 801 714 l 801 1014 l 726 1014 l 726 911 q 474 1033 656 1033 q 282 999 357 1033 q 169 892 207 965 q 117 731 131 818 q 104 507 104 643 q 109 346 104 411 q 130 213 114 281 q 175 104 146 146 q 254 32 204 63 q 376 -11 304 1 l 358 -119 l 433 -133 q 485 -155 471 -140 q 499 -203 499 -169 q 488 -251 499 -236 q 440 -265 478 -265 q 392 -251 403 -265 q 382 -203 382 -236 l 299 -203 z "},"È":{"ha":861,"x_min":97,"x_max":778,"o":"m 97 0 l 778 0 l 778 219 l 700 219 l 700 82 l 281 82 l 281 474 l 681 474 l 681 557 l 281 557 l 281 932 l 672 932 l 672 794 l 750 794 l 750 1014 l 97 1014 l 97 944 l 181 944 l 181 69 l 97 69 l 97 0 m 510 1086 l 271 1294 l 344 1368 l 568 1144 l 510 1086 z "},"É":{"ha":861,"x_min":97,"x_max":778,"o":"m 97 0 l 778 0 l 778 219 l 700 219 l 700 82 l 281 82 l 281 474 l 681 474 l 681 557 l 281 557 l 281 932 l 672 932 l 672 794 l 750 794 l 750 1014 l 97 1014 l 97 944 l 181 944 l 181 69 l 97 69 l 97 0 m 329 1086 l 568 1294 l 494 1368 l 271 1144 l 329 1086 z "},"Ê":{"ha":861,"x_min":97,"x_max":778,"o":"m 97 0 l 778 0 l 778 219 l 700 219 l 700 82 l 281 82 l 281 474 l 681 474 l 681 557 l 281 557 l 281 932 l 672 932 l 672 794 l 750 794 l 750 1014 l 97 1014 l 97 944 l 181 944 l 181 69 l 97 69 l 97 0 m 269 1086 l 419 1239 l 571 1086 l 629 1144 l 440 1360 l 400 1360 l 211 1144 l 269 1086 z "},"Ë":{"ha":861,"x_min":97,"x_max":778,"o":"m 97 0 l 778 0 l 778 219 l 700 219 l 700 82 l 281 82 l 281 474 l 681 474 l 681 557 l 281 557 l 281 932 l 672 932 l 672 794 l 750 794 l 750 1014 l 97 1014 l 97 944 l 181 944 l 181 69 l 97 69 l 97 0 m 272 1153 q 232 1165 246 1153 q 215 1191 218 1178 q 213 1226 213 1204 q 215 1263 213 1250 q 232 1289 218 1276 q 272 1301 246 1301 q 324 1282 313 1301 q 335 1226 335 1263 q 332 1191 335 1204 q 315 1165 329 1178 q 272 1153 300 1153 m 564 1153 q 524 1165 538 1153 q 507 1191 510 1178 q 504 1226 504 1204 q 507 1263 504 1250 q 524 1289 510 1276 q 564 1301 538 1301 q 615 1282 604 1301 q 626 1226 626 1263 q 624 1191 626 1204 q 606 1165 621 1178 q 564 1153 592 1153 z "},"Ì":{"ha":489,"x_min":96,"x_max":393,"o":"m 97 944 l 194 944 l 194 69 l 97 69 l 97 0 l 392 0 l 392 69 l 294 69 l 294 944 l 392 944 l 392 1014 l 97 1014 l 97 944 m 335 1086 l 96 1294 l 169 1368 l 393 1144 l 335 1086 z "},"Í":{"ha":489,"x_min":97,"x_max":421,"o":"m 97 944 l 194 944 l 194 69 l 97 69 l 97 0 l 392 0 l 392 69 l 294 69 l 294 944 l 392 944 l 392 1014 l 97 1014 l 97 944 m 182 1086 l 421 1294 l 347 1368 l 124 1144 l 182 1086 z "},"Î":{"ha":489,"x_min":36,"x_max":454,"o":"m 97 944 l 194 944 l 194 69 l 97 69 l 97 0 l 392 0 l 392 69 l 294 69 l 294 944 l 392 944 l 392 1014 l 97 1014 l 97 944 m 94 1086 l 244 1239 l 396 1086 l 454 1144 l 265 1360 l 225 1360 l 36 1144 l 94 1086 z "},"Ï":{"ha":489,"x_min":38,"x_max":451,"o":"m 97 944 l 194 944 l 194 69 l 97 69 l 97 0 l 392 0 l 392 69 l 294 69 l 294 944 l 392 944 l 392 1014 l 97 1014 l 97 944 m 389 1153 q 349 1165 363 1153 q 332 1191 335 1178 q 329 1226 329 1204 q 332 1263 329 1250 q 349 1289 335 1276 q 389 1301 363 1301 q 440 1282 429 1301 q 451 1226 451 1263 q 449 1191 451 1204 q 431 1165 446 1178 q 389 1153 417 1153 m 97 1153 q 57 1165 71 1153 q 40 1191 43 1178 q 38 1226 38 1204 q 40 1263 38 1250 q 57 1289 43 1276 q 97 1301 71 1301 q 149 1282 138 1301 q 160 1226 160 1263 q 157 1191 160 1204 q 140 1165 154 1178 q 97 1153 125 1153 z "},"Ð":{"ha":956,"x_min":97,"x_max":872,"o":"m 97 936 l 181 936 l 181 549 l 97 549 l 97 465 l 181 465 l 181 78 l 97 78 l 97 0 l 479 0 q 656 24 583 0 q 770 86 728 47 q 835 193 813 125 q 865 331 858 261 q 872 507 872 401 q 867 655 872 594 q 849 777 863 715 q 808 878 835 839 q 739 951 782 918 q 631 999 696 985 q 479 1014 567 1014 l 97 1014 l 97 936 m 479 928 q 635 901 575 928 q 725 813 696 874 q 763 685 754 753 q 772 507 772 618 q 763 328 772 396 q 725 201 754 261 q 635 113 696 140 q 479 86 575 86 l 281 86 l 281 465 l 586 465 l 586 549 l 281 549 l 281 928 l 479 928 z "},"Ñ":{"ha":1069,"x_min":97,"x_max":986,"o":"m 719 944 l 803 944 l 803 165 l 292 1014 l 97 1014 l 97 944 l 181 944 l 181 69 l 97 69 l 97 0 l 364 0 l 364 69 l 281 69 l 281 847 l 792 0 l 903 0 l 903 944 l 986 944 l 986 1014 l 719 1014 l 719 944 m 650 1160 q 772 1289 735 1160 l 703 1311 q 678 1264 692 1278 q 639 1250 664 1250 q 551 1275 619 1250 q 447 1300 483 1300 q 325 1171 363 1300 l 396 1149 q 421 1196 407 1182 q 460 1210 435 1210 q 546 1185 478 1210 q 650 1160 614 1160 z "},"Ò":{"ha":951,"x_min":83,"x_max":868,"o":"m 475 -19 q 651 5 579 -19 q 766 69 724 29 q 831 181 808 110 q 861 324 854 251 q 868 507 868 397 q 861 689 868 617 q 831 832 854 761 q 766 943 808 903 q 651 1008 724 983 q 475 1033 579 1033 q 323 1018 388 1033 q 216 969 258 1003 q 147 894 174 935 q 106 788 119 853 q 88 660 93 722 q 83 507 83 597 q 90 324 83 396 q 119 181 97 253 q 184 69 142 110 q 299 5 226 29 q 475 -19 371 -19 m 475 64 q 362 77 410 64 q 282 119 314 90 q 230 182 250 147 q 200 272 210 217 q 187 378 190 326 q 183 507 183 431 q 187 635 183 583 q 200 742 190 688 q 230 832 210 797 q 282 895 250 867 q 362 937 314 924 q 475 950 410 950 q 606 929 553 950 q 692 874 660 908 q 741 780 724 840 q 763 659 758 719 q 768 507 768 599 q 763 355 768 415 q 741 234 758 294 q 692 140 724 174 q 606 85 660 106 q 475 64 553 64 m 565 1086 l 326 1294 l 400 1368 l 624 1144 l 565 1086 z "},"Ó":{"ha":951,"x_min":83,"x_max":868,"o":"m 475 -19 q 651 5 579 -19 q 766 69 724 29 q 831 181 808 110 q 861 324 854 251 q 868 507 868 397 q 861 689 868 617 q 831 832 854 761 q 766 943 808 903 q 651 1008 724 983 q 475 1033 579 1033 q 323 1018 388 1033 q 216 969 258 1003 q 147 894 174 935 q 106 788 119 853 q 88 660 93 722 q 83 507 83 597 q 90 324 83 396 q 119 181 97 253 q 184 69 142 110 q 299 5 226 29 q 475 -19 371 -19 m 475 64 q 362 77 410 64 q 282 119 314 90 q 230 182 250 147 q 200 272 210 217 q 187 378 190 326 q 183 507 183 431 q 187 635 183 583 q 200 742 190 688 q 230 832 210 797 q 282 895 250 867 q 362 937 314 924 q 475 950 410 950 q 606 929 553 950 q 692 874 660 908 q 741 780 724 840 q 763 659 758 719 q 768 507 768 599 q 763 355 768 415 q 741 234 758 294 q 692 140 724 174 q 606 85 660 106 q 475 64 553 64 m 413 1086 l 651 1294 l 578 1368 l 354 1144 l 413 1086 z "},"Ô":{"ha":951,"x_min":83,"x_max":868,"o":"m 475 -19 q 651 5 579 -19 q 766 69 724 29 q 831 181 808 110 q 861 324 854 251 q 868 507 868 397 q 861 689 868 617 q 831 832 854 761 q 766 943 808 903 q 651 1008 724 983 q 475 1033 579 1033 q 323 1018 388 1033 q 216 969 258 1003 q 147 894 174 935 q 106 788 119 853 q 88 660 93 722 q 83 507 83 597 q 90 324 83 396 q 119 181 97 253 q 184 69 142 110 q 299 5 226 29 q 475 -19 371 -19 m 475 64 q 362 77 410 64 q 282 119 314 90 q 230 182 250 147 q 200 272 210 217 q 187 378 190 326 q 183 507 183 431 q 187 635 183 583 q 200 742 190 688 q 230 832 210 797 q 282 895 250 867 q 362 937 314 924 q 475 950 410 950 q 606 929 553 950 q 692 874 660 908 q 741 780 724 840 q 763 659 758 719 q 768 507 768 599 q 763 355 768 415 q 741 234 758 294 q 692 140 724 174 q 606 85 660 106 q 475 64 553 64 m 325 1086 l 475 1239 l 626 1086 l 685 1144 l 496 1360 l 456 1360 l 267 1144 l 325 1086 z "},"Õ":{"ha":951,"x_min":83,"x_max":868,"o":"m 475 -19 q 651 5 579 -19 q 766 69 724 29 q 831 181 808 110 q 861 324 854 251 q 868 507 868 397 q 861 689 868 617 q 831 832 854 761 q 766 943 808 903 q 651 1008 724 983 q 475 1033 579 1033 q 323 1018 388 1033 q 216 969 258 1003 q 147 894 174 935 q 106 788 119 853 q 88 660 93 722 q 83 507 83 597 q 90 324 83 396 q 119 181 97 253 q 184 69 142 110 q 299 5 226 29 q 475 -19 371 -19 m 475 64 q 362 77 410 64 q 282 119 314 90 q 230 182 250 147 q 200 272 210 217 q 187 378 190 326 q 183 507 183 431 q 187 635 183 583 q 200 742 190 688 q 230 832 210 797 q 282 895 250 867 q 362 937 314 924 q 475 950 410 950 q 606 929 553 950 q 692 874 660 908 q 741 780 724 840 q 763 659 758 719 q 768 507 768 599 q 763 355 768 415 q 741 234 758 294 q 692 140 724 174 q 606 85 660 106 q 475 64 553 64 m 576 1160 q 699 1289 661 1160 l 629 1311 q 604 1264 618 1278 q 565 1250 590 1250 q 478 1275 547 1250 q 374 1300 408 1300 q 251 1171 289 1300 l 322 1149 q 347 1196 333 1182 q 386 1210 361 1210 q 474 1185 406 1210 q 576 1160 542 1160 z "},"Ö":{"ha":951,"x_min":83,"x_max":868,"o":"m 475 -19 q 651 5 579 -19 q 766 69 724 29 q 831 181 808 110 q 861 324 854 251 q 868 507 868 397 q 861 689 868 617 q 831 832 854 761 q 766 943 808 903 q 651 1008 724 983 q 475 1033 579 1033 q 323 1018 388 1033 q 216 969 258 1003 q 147 894 174 935 q 106 788 119 853 q 88 660 93 722 q 83 507 83 597 q 90 324 83 396 q 119 181 97 253 q 184 69 142 110 q 299 5 226 29 q 475 -19 371 -19 m 475 64 q 362 77 410 64 q 282 119 314 90 q 230 182 250 147 q 200 272 210 217 q 187 378 190 326 q 183 507 183 431 q 187 635 183 583 q 200 742 190 688 q 230 832 210 797 q 282 895 250 867 q 362 937 314 924 q 475 950 410 950 q 606 929 553 950 q 692 874 660 908 q 741 780 724 840 q 763 659 758 719 q 768 507 768 599 q 763 355 768 415 q 741 234 758 294 q 692 140 724 174 q 606 85 660 106 q 475 64 553 64 m 328 1153 q 288 1165 301 1153 q 271 1191 274 1178 q 268 1226 268 1204 q 271 1263 268 1250 q 288 1289 274 1276 q 328 1301 301 1301 q 379 1282 368 1301 q 390 1226 390 1263 q 388 1191 390 1204 q 370 1165 385 1178 q 328 1153 356 1153 m 619 1153 q 579 1165 593 1153 q 563 1191 565 1178 q 560 1226 560 1204 q 563 1263 560 1250 q 579 1289 565 1276 q 619 1301 593 1301 q 671 1282 660 1301 q 682 1226 682 1263 q 679 1191 682 1204 q 662 1165 676 1178 q 619 1153 647 1153 z "},"×":{"ha":806,"x_min":157,"x_max":649,"o":"m 215 196 l 403 383 l 590 196 l 649 254 l 461 442 l 649 629 l 590 688 l 403 500 l 215 688 l 157 629 l 344 442 l 157 254 l 215 196 z "},"Ø":{"ha":951,"x_min":83,"x_max":868,"o":"m 290 -131 l 363 -131 l 389 -15 q 475 -19 428 -19 q 651 5 579 -19 q 766 69 724 29 q 831 181 808 110 q 861 324 854 251 q 868 507 868 397 q 860 694 868 619 q 828 840 851 769 q 755 953 804 910 q 629 1015 706 996 l 661 1149 l 588 1149 l 560 1028 q 475 1033 507 1033 q 323 1018 388 1033 q 216 969 258 1003 q 147 894 174 935 q 106 788 119 853 q 88 660 93 722 q 83 507 83 597 q 91 317 83 392 q 122 172 99 243 q 194 60 146 101 q 319 -1 243 18 l 290 -131 m 475 64 q 408 68 439 64 l 610 928 q 737 792 706 892 q 768 507 768 692 q 763 355 768 415 q 741 234 758 294 q 692 140 724 174 q 606 85 660 106 q 475 64 553 64 m 183 507 q 187 635 183 583 q 200 742 190 688 q 230 832 210 797 q 282 895 250 867 q 362 937 314 924 q 475 950 410 950 q 540 946 508 950 l 340 85 q 213 220 243 121 q 183 507 183 319 z "},"Ù":{"ha":1042,"x_min":76,"x_max":965,"o":"m 76 944 l 160 944 l 160 335 q 181 175 160 242 q 233 72 201 108 q 314 13 264 35 q 410 -14 364 -8 q 519 -19 456 -19 q 630 -14 583 -19 q 727 13 676 -8 q 809 72 778 35 q 861 175 840 108 q 882 335 882 242 l 882 944 l 965 944 l 965 1014 l 699 1014 l 699 944 l 782 944 l 782 335 q 761 192 782 249 q 700 109 740 135 q 619 74 660 83 q 519 65 578 65 q 422 74 463 65 q 341 109 381 83 q 281 192 301 135 q 260 335 260 249 l 260 944 l 343 944 l 343 1014 l 76 1014 l 76 944 m 569 1086 l 331 1294 l 404 1368 l 628 1144 l 569 1086 z "},"Ú":{"ha":1042,"x_min":76,"x_max":965,"o":"m 76 944 l 160 944 l 160 335 q 181 175 160 242 q 233 72 201 108 q 314 13 264 35 q 410 -14 364 -8 q 519 -19 456 -19 q 630 -14 583 -19 q 727 13 676 -8 q 809 72 778 35 q 861 175 840 108 q 882 335 882 242 l 882 944 l 965 944 l 965 1014 l 699 1014 l 699 944 l 782 944 l 782 335 q 761 192 782 249 q 700 109 740 135 q 619 74 660 83 q 519 65 578 65 q 422 74 463 65 q 341 109 381 83 q 281 192 301 135 q 260 335 260 249 l 260 944 l 343 944 l 343 1014 l 76 1014 l 76 944 m 500 1086 l 739 1294 l 665 1368 l 442 1144 l 500 1086 z "},"Û":{"ha":1042,"x_min":76,"x_max":965,"o":"m 76 944 l 160 944 l 160 335 q 181 175 160 242 q 233 72 201 108 q 314 13 264 35 q 410 -14 364 -8 q 519 -19 456 -19 q 630 -14 583 -19 q 727 13 676 -8 q 809 72 778 35 q 861 175 840 108 q 882 335 882 242 l 882 944 l 965 944 l 965 1014 l 699 1014 l 699 944 l 782 944 l 782 335 q 761 192 782 249 q 700 109 740 135 q 619 74 660 83 q 519 65 578 65 q 422 74 463 65 q 341 109 381 83 q 281 192 301 135 q 260 335 260 249 l 260 944 l 343 944 l 343 1014 l 76 1014 l 76 944 m 369 1086 l 519 1239 l 671 1086 l 729 1144 l 540 1360 l 500 1360 l 311 1144 l 369 1086 z "},"Ü":{"ha":1042,"x_min":76,"x_max":965,"o":"m 76 944 l 160 944 l 160 335 q 181 175 160 242 q 233 72 201 108 q 314 13 264 35 q 410 -14 364 -8 q 519 -19 456 -19 q 630 -14 583 -19 q 727 13 676 -8 q 809 72 778 35 q 861 175 840 108 q 882 335 882 242 l 882 944 l 965 944 l 965 1014 l 699 1014 l 699 944 l 782 944 l 782 335 q 761 192 782 249 q 700 109 740 135 q 619 74 660 83 q 519 65 578 65 q 422 74 463 65 q 341 109 381 83 q 281 192 301 135 q 260 335 260 249 l 260 944 l 343 944 l 343 1014 l 76 1014 l 76 944 m 665 1153 q 625 1165 639 1153 q 608 1191 611 1178 q 606 1226 606 1204 q 608 1263 606 1250 q 625 1289 611 1276 q 665 1301 639 1301 q 717 1282 706 1301 q 728 1226 728 1263 q 725 1191 728 1204 q 708 1165 722 1178 q 665 1153 693 1153 m 374 1153 q 333 1165 347 1153 q 317 1191 319 1178 q 314 1226 314 1204 q 317 1263 314 1250 q 333 1289 319 1276 q 374 1301 347 1301 q 425 1282 414 1301 q 436 1226 436 1263 q 433 1191 436 1204 q 416 1165 431 1178 q 374 1153 401 1153 z "},"Ý":{"ha":808,"x_min":14,"x_max":794,"o":"m 454 354 l 733 944 l 794 944 l 794 1014 l 556 1014 l 556 944 l 632 944 l 404 453 l 176 944 l 253 944 l 253 1014 l 14 1014 l 14 944 l 74 944 l 354 354 l 354 69 l 257 69 l 257 0 l 551 0 l 551 69 l 454 69 l 454 354 m 314 1086 l 553 1294 l 479 1368 l 256 1144 l 314 1086 z "},"Þ":{"ha":832,"x_min":97,"x_max":763,"o":"m 458 190 q 595 208 538 190 q 685 253 653 226 q 735 325 717 281 q 758 410 753 369 q 763 506 763 450 q 753 626 763 578 q 714 724 743 675 q 621 797 685 772 q 458 822 557 822 l 281 822 l 281 936 l 378 936 l 378 1014 l 97 1014 l 97 936 l 181 936 l 181 78 l 97 78 l 97 0 l 378 0 l 378 78 l 281 78 l 281 190 l 458 190 m 281 279 l 281 733 l 458 733 q 568 715 525 733 q 631 663 611 697 q 656 592 650 628 q 663 506 663 557 q 656 419 663 454 q 631 350 650 385 q 568 297 611 315 q 458 279 525 279 l 281 279 z "},"ß":{"ha":883,"x_min":83,"x_max":842,"o":"m 264 779 q 461 967 264 967 q 620 919 575 967 q 665 781 665 872 q 623 632 665 694 q 501 569 581 569 l 407 569 l 407 494 l 567 494 q 744 272 744 494 q 583 63 744 63 q 458 108 489 63 q 426 249 426 153 l 344 249 q 394 47 344 114 q 585 -19 444 -19 q 842 274 842 -19 q 787 461 842 389 q 640 550 732 533 q 729 648 696 588 q 763 779 763 708 q 692 979 763 910 q 461 1049 622 1049 q 240 978 313 1049 q 167 779 167 907 l 167 69 l 83 69 l 83 0 l 264 0 l 264 779 z "},"à":{"ha":850,"x_min":89,"x_max":767,"o":"m 618 0 l 767 0 l 767 69 l 683 69 l 683 592 q 408 814 683 814 q 269 797 325 814 q 184 745 214 781 q 141 669 154 710 q 124 569 128 629 l 206 565 q 251 692 211 651 q 408 732 290 732 q 586 592 586 732 l 586 453 l 329 436 q 139 374 189 426 q 89 201 89 321 q 141 36 89 92 q 324 -19 193 -19 q 593 90 471 -19 l 618 0 m 338 60 q 218 94 253 60 q 183 197 183 128 q 215 324 183 292 q 335 363 246 357 l 586 378 l 586 168 q 338 60 472 60 m 494 867 l 256 1075 l 329 1149 l 553 925 l 494 867 z "},"á":{"ha":850,"x_min":89,"x_max":767,"o":"m 618 0 l 767 0 l 767 69 l 683 69 l 683 592 q 408 814 683 814 q 269 797 325 814 q 184 745 214 781 q 141 669 154 710 q 124 569 128 629 l 206 565 q 251 692 211 651 q 408 732 290 732 q 586 592 586 732 l 586 453 l 329 436 q 139 374 189 426 q 89 201 89 321 q 141 36 89 92 q 324 -19 193 -19 q 593 90 471 -19 l 618 0 m 338 60 q 218 94 253 60 q 183 197 183 128 q 215 324 183 292 q 335 363 246 357 l 586 378 l 586 168 q 338 60 472 60 m 378 867 l 617 1075 l 543 1149 l 319 925 l 378 867 z "},"â":{"ha":850,"x_min":89,"x_max":767,"o":"m 618 0 l 767 0 l 767 69 l 683 69 l 683 592 q 408 814 683 814 q 269 797 325 814 q 184 745 214 781 q 141 669 154 710 q 124 569 128 629 l 206 565 q 251 692 211 651 q 408 732 290 732 q 586 592 586 732 l 586 453 l 329 436 q 139 374 189 426 q 89 201 89 321 q 141 36 89 92 q 324 -19 193 -19 q 593 90 471 -19 l 618 0 m 338 60 q 218 94 253 60 q 183 197 183 128 q 215 324 183 292 q 335 363 246 357 l 586 378 l 586 168 q 338 60 472 60 m 254 867 l 404 1019 l 556 867 l 614 925 l 425 1140 l 385 1140 l 196 925 l 254 867 z "},"ã":{"ha":850,"x_min":89,"x_max":767,"o":"m 618 0 l 767 0 l 767 69 l 683 69 l 683 592 q 408 814 683 814 q 269 797 325 814 q 184 745 214 781 q 141 669 154 710 q 124 569 128 629 l 206 565 q 251 692 211 651 q 408 732 290 732 q 586 592 586 732 l 586 453 l 329 436 q 139 374 189 426 q 89 201 89 321 q 141 36 89 92 q 324 -19 193 -19 q 593 90 471 -19 l 618 0 m 338 60 q 218 94 253 60 q 183 197 183 128 q 215 324 183 292 q 335 363 246 357 l 586 378 l 586 168 q 338 60 472 60 m 506 940 q 628 1069 590 940 l 558 1092 q 533 1044 547 1058 q 494 1031 519 1031 q 407 1056 475 1031 q 303 1081 339 1081 q 181 951 218 1081 l 251 929 q 276 976 263 963 q 315 990 290 990 q 401 965 333 990 q 506 940 469 940 z "},"ä":{"ha":850,"x_min":89,"x_max":767,"o":"m 618 0 l 767 0 l 767 69 l 683 69 l 683 592 q 408 814 683 814 q 269 797 325 814 q 184 745 214 781 q 141 669 154 710 q 124 569 128 629 l 206 565 q 251 692 211 651 q 408 732 290 732 q 586 592 586 732 l 586 453 l 329 436 q 139 374 189 426 q 89 201 89 321 q 141 36 89 92 q 324 -19 193 -19 q 593 90 471 -19 l 618 0 m 338 60 q 218 94 253 60 q 183 197 183 128 q 215 324 183 292 q 335 363 246 357 l 586 378 l 586 168 q 338 60 472 60 m 267 933 q 226 946 240 933 q 210 972 213 958 q 207 1007 207 985 q 210 1044 207 1031 q 226 1069 213 1057 q 267 1082 240 1082 q 318 1063 307 1082 q 329 1007 329 1043 q 326 972 329 985 q 309 946 324 958 q 267 933 294 933 m 558 933 q 518 946 532 933 q 501 972 504 958 q 499 1007 499 985 q 501 1044 499 1031 q 518 1069 504 1057 q 558 1082 532 1082 q 610 1063 599 1082 q 621 1007 621 1043 q 618 972 621 985 q 601 946 615 958 q 558 933 586 933 z "},"å":{"ha":850,"x_min":89,"x_max":767,"o":"m 618 0 l 767 0 l 767 69 l 683 69 l 683 592 q 408 814 683 814 q 269 797 325 814 q 184 745 214 781 q 141 669 154 710 q 124 569 128 629 l 206 565 q 251 692 211 651 q 408 732 290 732 q 586 592 586 732 l 586 453 l 329 436 q 139 374 189 426 q 89 201 89 321 q 141 36 89 92 q 324 -19 193 -19 q 593 90 471 -19 l 618 0 m 338 60 q 218 94 253 60 q 183 197 183 128 q 215 324 183 292 q 335 363 246 357 l 586 378 l 586 168 q 338 60 472 60 m 403 872 q 476 883 447 872 q 517 917 506 894 q 533 958 529 939 q 536 1007 536 978 q 533 1056 536 1036 q 517 1098 529 1075 q 476 1132 506 1121 q 403 1143 447 1143 q 331 1132 358 1143 q 291 1098 303 1121 q 276 1056 279 1075 q 272 1007 272 1036 q 276 958 272 978 q 291 917 279 939 q 331 883 303 894 q 403 872 358 872 m 403 932 q 355 952 365 932 q 344 1007 344 972 q 347 1044 344 1031 q 363 1071 350 1058 q 403 1083 376 1083 q 444 1070 431 1083 q 461 1044 458 1057 q 464 1007 464 1031 q 461 971 464 985 q 444 944 458 957 q 403 932 431 932 z "},"æ":{"ha":1264,"x_min":89,"x_max":1208,"o":"m 890 -19 q 1040 1 979 -19 q 1131 62 1100 22 q 1176 144 1163 101 q 1196 246 1190 186 l 1115 250 q 1060 110 1107 158 q 888 63 1013 63 q 703 134 750 63 q 656 375 657 206 l 1208 375 l 1208 397 q 1203 524 1208 471 q 1178 636 1197 578 q 1124 731 1158 694 q 1030 790 1090 767 q 885 814 969 814 q 642 728 721 814 q 408 814 581 814 q 269 797 325 814 q 184 745 214 781 q 141 669 154 710 q 124 569 128 629 l 206 565 q 251 692 211 651 q 408 732 290 732 q 583 622 565 732 q 558 450 564 561 l 329 436 q 139 374 189 426 q 89 201 89 321 q 141 36 89 92 q 324 -19 193 -19 q 481 15 404 -19 q 611 104 557 49 q 890 -19 682 -19 m 883 732 q 1001 711 954 732 q 1069 648 1047 690 q 1100 561 1092 606 q 1110 451 1108 517 l 656 451 q 666 558 657 514 q 698 645 675 603 q 767 710 721 688 q 883 732 814 732 m 338 60 q 218 94 253 60 q 183 197 183 128 q 215 324 183 292 q 335 363 246 357 l 558 376 q 585 167 558 250 q 338 60 472 60 z "},"ç":{"ha":788,"x_min":83,"x_max":700,"o":"m 251 -203 q 281 -301 251 -268 q 389 -335 311 -335 q 498 -301 468 -335 q 528 -201 528 -268 q 493 -103 528 -129 q 386 -76 458 -78 l 396 -18 q 402 -19 397 -18 q 410 -19 407 -19 q 551 -3 494 -19 q 639 49 608 14 q 683 125 669 85 q 700 225 696 165 l 621 229 q 573 103 615 143 q 408 63 531 63 q 317 75 356 63 q 253 114 278 88 q 214 168 229 140 q 192 239 199 196 q 183 315 185 282 q 181 397 181 349 q 183 494 181 454 q 199 582 186 533 q 235 660 213 631 q 299 711 257 690 q 401 732 342 732 q 563 678 510 732 q 628 514 615 624 l 692 514 l 692 794 l 621 794 l 622 708 q 403 814 553 814 q 263 791 322 814 q 170 732 204 768 q 116 639 136 696 q 90 526 96 582 q 83 397 83 471 q 88 282 83 331 q 106 179 92 233 q 147 89 121 125 q 219 24 172 53 q 329 -14 265 -4 l 311 -119 l 386 -133 q 438 -155 424 -140 q 451 -203 451 -169 q 441 -251 451 -236 q 393 -265 431 -265 q 345 -251 356 -265 q 335 -203 335 -236 l 251 -203 z "},"è":{"ha":817,"x_min":69,"x_max":719,"o":"m 401 -19 q 551 1 490 -19 q 642 62 611 22 q 688 144 674 101 q 707 246 701 186 l 626 250 q 571 110 618 158 q 399 63 524 63 q 215 134 261 63 q 167 375 168 206 l 719 375 l 719 397 q 714 524 719 471 q 689 636 708 578 q 635 731 669 694 q 541 790 601 767 q 396 814 481 814 q 250 790 311 814 q 154 731 189 767 q 100 636 119 694 q 75 524 81 578 q 69 397 69 471 q 138 80 69 179 q 401 -19 207 -19 m 394 732 q 512 711 465 732 q 581 648 558 690 q 611 561 603 606 q 621 451 619 517 l 167 451 q 177 558 168 514 q 209 645 186 603 q 278 710 232 688 q 394 732 325 732 m 494 867 l 256 1075 l 329 1149 l 553 925 l 494 867 z "},"é":{"ha":817,"x_min":69,"x_max":719,"o":"m 401 -19 q 551 1 490 -19 q 642 62 611 22 q 688 144 674 101 q 707 246 701 186 l 626 250 q 571 110 618 158 q 399 63 524 63 q 215 134 261 63 q 167 375 168 206 l 719 375 l 719 397 q 714 524 719 471 q 689 636 708 578 q 635 731 669 694 q 541 790 601 767 q 396 814 481 814 q 250 790 311 814 q 154 731 189 767 q 100 636 119 694 q 75 524 81 578 q 69 397 69 471 q 138 80 69 179 q 401 -19 207 -19 m 394 732 q 512 711 465 732 q 581 648 558 690 q 611 561 603 606 q 621 451 619 517 l 167 451 q 177 558 168 514 q 209 645 186 603 q 278 710 232 688 q 394 732 325 732 m 367 867 l 606 1075 l 532 1149 l 308 925 l 367 867 z "},"ê":{"ha":817,"x_min":69,"x_max":719,"o":"m 401 -19 q 551 1 490 -19 q 642 62 611 22 q 688 144 674 101 q 707 246 701 186 l 626 250 q 571 110 618 158 q 399 63 524 63 q 215 134 261 63 q 167 375 168 206 l 719 375 l 719 397 q 714 524 719 471 q 689 636 708 578 q 635 731 669 694 q 541 790 601 767 q 396 814 481 814 q 250 790 311 814 q 154 731 189 767 q 100 636 119 694 q 75 524 81 578 q 69 397 69 471 q 138 80 69 179 q 401 -19 207 -19 m 394 732 q 512 711 465 732 q 581 648 558 690 q 611 561 603 606 q 621 451 619 517 l 167 451 q 177 558 168 514 q 209 645 186 603 q 278 710 232 688 q 394 732 325 732 m 254 867 l 404 1019 l 556 867 l 614 925 l 425 1140 l 385 1140 l 196 925 l 254 867 z "},"ë":{"ha":817,"x_min":69,"x_max":719,"o":"m 401 -19 q 551 1 490 -19 q 642 62 611 22 q 688 144 674 101 q 707 246 701 186 l 626 250 q 571 110 618 158 q 399 63 524 63 q 215 134 261 63 q 167 375 168 206 l 719 375 l 719 397 q 714 524 719 471 q 689 636 708 578 q 635 731 669 694 q 541 790 601 767 q 396 814 481 814 q 250 790 311 814 q 154 731 189 767 q 100 636 119 694 q 75 524 81 578 q 69 397 69 471 q 138 80 69 179 q 401 -19 207 -19 m 394 732 q 512 711 465 732 q 581 648 558 690 q 611 561 603 606 q 621 451 619 517 l 167 451 q 177 558 168 514 q 209 645 186 603 q 278 710 232 688 q 394 732 325 732 m 257 933 q 217 946 231 933 q 200 972 203 958 q 197 1007 197 985 q 200 1044 197 1031 q 217 1069 203 1057 q 257 1082 231 1082 q 308 1063 297 1082 q 319 1007 319 1043 q 317 972 319 985 q 299 946 314 958 q 257 933 285 933 m 549 933 q 508 946 522 933 q 492 972 494 958 q 489 1007 489 985 q 492 1044 489 1031 q 508 1069 494 1057 q 549 1082 522 1082 q 600 1063 589 1082 q 611 1007 611 1043 q 608 972 611 985 q 591 946 606 958 q 549 933 576 933 z "},"ì":{"ha":444,"x_min":67,"x_max":364,"o":"m 97 725 l 181 725 l 181 69 l 97 69 l 97 0 l 361 0 l 361 69 l 278 69 l 278 794 l 97 794 l 97 725 m 306 867 l 67 1075 l 140 1149 l 364 925 l 306 867 z "},"í":{"ha":444,"x_min":97,"x_max":399,"o":"m 97 725 l 181 725 l 181 69 l 97 69 l 97 0 l 361 0 l 361 69 l 278 69 l 278 794 l 97 794 l 97 725 m 160 867 l 399 1075 l 325 1149 l 101 925 l 160 867 z "},"î":{"ha":444,"x_min":7,"x_max":425,"o":"m 97 725 l 181 725 l 181 69 l 97 69 l 97 0 l 361 0 l 361 69 l 278 69 l 278 794 l 97 794 l 97 725 m 65 867 l 215 1019 l 367 867 l 425 925 l 236 1140 l 196 1140 l 7 925 l 65 867 z "},"ï":{"ha":444,"x_min":8,"x_max":422,"o":"m 97 725 l 181 725 l 181 69 l 97 69 l 97 0 l 361 0 l 361 69 l 278 69 l 278 794 l 97 794 l 97 725 m 360 933 q 319 946 333 933 q 303 972 306 958 q 300 1007 300 985 q 303 1044 300 1031 q 319 1069 306 1057 q 360 1082 333 1082 q 411 1063 400 1082 q 422 1007 422 1043 q 419 972 422 985 q 402 946 417 958 q 360 933 388 933 m 68 933 q 28 946 42 933 q 11 972 14 958 q 8 1007 8 985 q 11 1044 8 1031 q 28 1069 14 1057 q 68 1082 42 1082 q 119 1063 108 1082 q 131 1007 131 1043 q 128 972 131 985 q 110 946 125 958 q 68 933 96 933 z "},"ð":{"ha":844,"x_min":83,"x_max":761,"o":"m 414 1004 q 489 926 457 963 l 383 885 l 383 808 l 533 868 q 643 615 611 751 q 422 703 568 703 q 308 692 358 703 q 222 665 257 682 q 160 619 186 647 q 120 563 135 592 q 97 495 106 535 q 86 421 89 456 q 83 342 83 386 q 86 263 83 297 q 97 188 89 228 q 120 120 106 149 q 160 64 135 92 q 222 19 186 36 q 308 -9 257 1 q 422 -19 358 -19 q 537 -9 486 -19 q 623 19 588 1 q 684 64 658 36 q 724 120 710 92 q 747 188 739 149 q 758 263 756 228 q 761 342 761 297 l 761 372 q 613 900 760 692 l 731 947 l 731 1024 l 567 958 q 463 1061 533 996 l 414 1004 m 422 63 q 309 79 356 63 q 238 120 263 96 q 200 185 214 144 q 183 259 186 226 q 181 342 181 292 q 183 424 181 392 q 200 498 186 457 q 238 563 214 539 q 309 604 263 588 q 422 621 356 621 q 535 604 489 621 q 606 563 582 588 q 644 498 631 539 q 661 424 658 457 q 664 342 664 392 q 661 259 664 292 q 644 185 658 226 q 606 120 631 144 q 535 79 582 96 q 422 63 489 63 z "},"ñ":{"ha":875,"x_min":56,"x_max":835,"o":"m 56 725 l 139 725 l 139 69 l 56 69 l 56 0 l 319 0 l 319 69 l 236 69 l 236 629 q 507 732 365 732 q 620 693 586 732 q 654 567 654 654 l 654 69 l 571 69 l 571 0 l 835 0 l 835 69 l 751 69 l 751 565 q 698 753 751 693 q 522 814 644 814 q 228 706 368 814 l 204 794 l 56 794 l 56 725 m 558 940 q 681 1069 643 940 l 611 1092 q 586 1044 600 1058 q 547 1031 572 1031 q 460 1056 528 1031 q 356 1081 392 1081 q 233 951 271 1081 l 304 929 q 329 976 315 963 q 368 990 343 990 q 454 965 386 990 q 558 940 522 940 z "},"ò":{"ha":844,"x_min":83,"x_max":761,"o":"m 422 63 q 309 83 356 63 q 238 131 263 103 q 200 209 214 160 q 183 298 186 258 q 181 397 181 338 q 183 497 181 457 q 200 585 186 536 q 238 663 214 635 q 309 712 263 692 q 422 732 356 732 q 535 712 489 732 q 606 663 582 692 q 644 585 631 635 q 661 497 658 536 q 664 397 664 457 q 661 298 664 338 q 644 209 658 258 q 606 131 631 160 q 535 83 582 103 q 422 63 489 63 m 422 -19 q 537 -7 486 -19 q 623 26 588 6 q 684 78 658 46 q 724 143 710 110 q 747 222 739 176 q 758 306 756 267 q 761 397 761 346 q 758 488 761 449 q 747 573 756 528 q 724 651 739 618 q 684 717 710 685 q 623 769 658 749 q 537 801 588 789 q 422 814 486 814 q 308 801 358 814 q 222 769 257 789 q 160 717 186 749 q 120 651 135 685 q 97 573 106 618 q 86 488 89 528 q 83 397 83 449 q 86 306 83 346 q 97 222 89 267 q 120 143 106 176 q 160 78 135 110 q 222 26 186 46 q 308 -7 257 6 q 422 -19 358 -19 m 513 867 l 274 1075 l 347 1149 l 571 925 l 513 867 z "},"ó":{"ha":844,"x_min":83,"x_max":761,"o":"m 422 63 q 309 83 356 63 q 238 131 263 103 q 200 209 214 160 q 183 298 186 258 q 181 397 181 338 q 183 497 181 457 q 200 585 186 536 q 238 663 214 635 q 309 712 263 692 q 422 732 356 732 q 535 712 489 732 q 606 663 582 692 q 644 585 631 635 q 661 497 658 536 q 664 397 664 457 q 661 298 664 338 q 644 209 658 258 q 606 131 631 160 q 535 83 582 103 q 422 63 489 63 m 422 -19 q 537 -7 486 -19 q 623 26 588 6 q 684 78 658 46 q 724 143 710 110 q 747 222 739 176 q 758 306 756 267 q 761 397 761 346 q 758 488 761 449 q 747 573 756 528 q 724 651 739 618 q 684 717 710 685 q 623 769 658 749 q 537 801 588 789 q 422 814 486 814 q 308 801 358 814 q 222 769 257 789 q 160 717 186 749 q 120 651 135 685 q 97 573 106 618 q 86 488 89 528 q 83 397 83 449 q 86 306 83 346 q 97 222 89 267 q 120 143 106 176 q 160 78 135 110 q 222 26 186 46 q 308 -7 257 6 q 422 -19 358 -19 m 383 867 l 622 1075 l 549 1149 l 325 925 l 383 867 z "},"ô":{"ha":844,"x_min":83,"x_max":761,"o":"m 422 63 q 309 83 356 63 q 238 131 263 103 q 200 209 214 160 q 183 298 186 258 q 181 397 181 338 q 183 497 181 457 q 200 585 186 536 q 238 663 214 635 q 309 712 263 692 q 422 732 356 732 q 535 712 489 732 q 606 663 582 692 q 644 585 631 635 q 661 497 658 536 q 664 397 664 457 q 661 298 664 338 q 644 209 658 258 q 606 131 631 160 q 535 83 582 103 q 422 63 489 63 m 422 -19 q 537 -7 486 -19 q 623 26 588 6 q 684 78 658 46 q 724 143 710 110 q 747 222 739 176 q 758 306 756 267 q 761 397 761 346 q 758 488 761 449 q 747 573 756 528 q 724 651 739 618 q 684 717 710 685 q 623 769 658 749 q 537 801 588 789 q 422 814 486 814 q 308 801 358 814 q 222 769 257 789 q 160 717 186 749 q 120 651 135 685 q 97 573 106 618 q 86 488 89 528 q 83 397 83 449 q 86 306 83 346 q 97 222 89 267 q 120 143 106 176 q 160 78 135 110 q 222 26 186 46 q 308 -7 257 6 q 422 -19 358 -19 m 271 867 l 421 1019 l 572 867 l 631 925 l 442 1140 l 401 1140 l 213 925 l 271 867 z "},"õ":{"ha":844,"x_min":83,"x_max":761,"o":"m 422 63 q 309 83 356 63 q 238 131 263 103 q 200 209 214 160 q 183 298 186 258 q 181 397 181 338 q 183 497 181 457 q 200 585 186 536 q 238 663 214 635 q 309 712 263 692 q 422 732 356 732 q 535 712 489 732 q 606 663 582 692 q 644 585 631 635 q 661 497 658 536 q 664 397 664 457 q 661 298 664 338 q 644 209 658 258 q 606 131 631 160 q 535 83 582 103 q 422 63 489 63 m 422 -19 q 537 -7 486 -19 q 623 26 588 6 q 684 78 658 46 q 724 143 710 110 q 747 222 739 176 q 758 306 756 267 q 761 397 761 346 q 758 488 761 449 q 747 573 756 528 q 724 651 739 618 q 684 717 710 685 q 623 769 658 749 q 537 801 588 789 q 422 814 486 814 q 308 801 358 814 q 222 769 257 789 q 160 717 186 749 q 120 651 135 685 q 97 573 106 618 q 86 488 89 528 q 83 397 83 449 q 86 306 83 346 q 97 222 89 267 q 120 143 106 176 q 160 78 135 110 q 222 26 186 46 q 308 -7 257 6 q 422 -19 358 -19 m 524 940 q 646 1069 608 940 l 576 1092 q 551 1044 565 1058 q 513 1031 538 1031 q 425 1056 494 1031 q 321 1081 356 1081 q 199 951 236 1081 l 269 929 q 294 976 281 963 q 333 990 308 990 q 421 965 353 990 q 524 940 489 940 z "},"ö":{"ha":844,"x_min":83,"x_max":761,"o":"m 422 63 q 309 83 356 63 q 238 131 263 103 q 200 209 214 160 q 183 298 186 258 q 181 397 181 338 q 183 497 181 457 q 200 585 186 536 q 238 663 214 635 q 309 712 263 692 q 422 732 356 732 q 535 712 489 732 q 606 663 582 692 q 644 585 631 635 q 661 497 658 536 q 664 397 664 457 q 661 298 664 338 q 644 209 658 258 q 606 131 631 160 q 535 83 582 103 q 422 63 489 63 m 422 -19 q 537 -7 486 -19 q 623 26 588 6 q 684 78 658 46 q 724 143 710 110 q 747 222 739 176 q 758 306 756 267 q 761 397 761 346 q 758 488 761 449 q 747 573 756 528 q 724 651 739 618 q 684 717 710 685 q 623 769 658 749 q 537 801 588 789 q 422 814 486 814 q 308 801 358 814 q 222 769 257 789 q 160 717 186 749 q 120 651 135 685 q 97 573 106 618 q 86 488 89 528 q 83 397 83 449 q 86 306 83 346 q 97 222 89 267 q 120 143 106 176 q 160 78 135 110 q 222 26 186 46 q 308 -7 257 6 q 422 -19 358 -19 m 275 933 q 235 946 249 933 q 218 972 221 958 q 215 1007 215 985 q 218 1044 215 1031 q 235 1069 221 1057 q 275 1082 249 1082 q 326 1063 315 1082 q 338 1007 338 1043 q 335 972 338 985 q 317 946 332 958 q 275 933 303 933 m 567 933 q 526 946 540 933 q 510 972 513 958 q 507 1007 507 985 q 510 1044 507 1031 q 526 1069 513 1057 q 567 1082 540 1082 q 618 1063 607 1082 q 629 1007 629 1043 q 626 972 629 985 q 609 946 624 958 q 567 933 594 933 z "},"÷":{"ha":806,"x_min":131,"x_max":675,"o":"m 131 400 l 675 400 l 675 483 l 131 483 l 131 400 m 401 126 q 349 148 361 126 q 336 207 336 169 q 339 247 336 232 q 357 275 342 261 q 401 289 372 289 q 457 267 444 289 q 469 207 469 244 q 467 178 469 190 q 459 153 465 167 q 438 133 453 140 q 401 126 424 126 m 401 581 q 349 602 361 581 q 336 661 336 624 q 339 701 336 686 q 357 729 342 715 q 401 743 372 743 q 457 721 444 743 q 469 661 469 699 q 467 633 469 644 q 459 608 465 621 q 438 588 453 594 q 401 581 424 581 z "},"ø":{"ha":844,"x_min":83,"x_max":761,"o":"m 238 -160 l 310 -160 l 349 -15 q 422 -19 382 -19 q 537 -7 486 -19 q 623 26 588 6 q 684 78 658 46 q 724 143 710 110 q 747 222 739 176 q 758 306 756 267 q 761 397 761 346 q 754 527 761 472 q 728 639 747 582 q 669 735 710 696 q 565 794 628 775 l 608 953 l 535 953 l 496 808 q 422 814 451 814 q 308 801 358 814 q 222 769 257 789 q 160 717 186 749 q 120 651 135 685 q 97 573 106 618 q 86 488 89 528 q 83 397 83 449 q 90 267 83 322 q 116 156 97 213 q 176 59 135 99 q 279 0 217 19 l 238 -160 m 181 397 q 183 497 181 457 q 200 585 186 536 q 238 663 214 635 q 309 712 263 692 q 422 732 356 732 q 475 728 450 732 l 301 83 q 203 195 225 118 q 181 397 181 272 m 422 63 q 369 65 403 63 l 543 710 q 609 659 583 692 q 646 581 635 626 q 660 495 657 535 q 664 397 664 456 q 661 298 664 338 q 644 209 658 258 q 606 131 631 160 q 535 83 582 103 q 422 63 489 63 z "},"ù":{"ha":967,"x_min":83,"x_max":883,"o":"m 167 794 l 83 794 l 83 725 l 167 725 l 167 226 q 219 39 167 97 q 401 -19 271 -19 q 707 101 561 -19 l 735 0 l 883 0 l 883 69 l 800 69 l 800 794 l 619 794 l 619 725 l 703 725 l 703 183 q 422 63 571 63 q 299 101 335 63 q 264 228 264 139 l 264 794 l 167 794 m 542 867 l 303 1075 l 376 1149 l 600 925 l 542 867 z "},"ú":{"ha":967,"x_min":83,"x_max":883,"o":"m 167 794 l 83 794 l 83 725 l 167 725 l 167 226 q 219 39 167 97 q 401 -19 271 -19 q 707 101 561 -19 l 735 0 l 883 0 l 883 69 l 800 69 l 800 794 l 703 794 l 619 794 l 619 725 l 703 725 l 703 183 q 422 63 571 63 q 299 101 335 63 q 264 228 264 139 l 264 794 l 167 794 m 460 867 l 699 1075 l 625 1149 l 401 925 l 460 867 z "},"û":{"ha":967,"x_min":83,"x_max":883,"o":"m 167 794 l 83 794 l 83 725 l 167 725 l 167 226 q 219 39 167 97 q 401 -19 271 -19 q 707 101 561 -19 l 735 0 l 883 0 l 883 69 l 800 69 l 800 794 l 619 794 l 619 725 l 703 725 l 703 183 q 422 63 571 63 q 299 101 335 63 q 264 228 264 139 l 264 794 l 167 794 m 343 867 l 493 1019 l 644 867 l 703 925 l 514 1140 l 474 1140 l 285 925 l 343 867 z "},"ü":{"ha":967,"x_min":83,"x_max":883,"o":"m 264 794 l 83 794 l 83 725 l 167 725 l 167 226 q 219 39 167 97 q 401 -19 271 -19 q 707 101 561 -19 l 735 0 l 883 0 l 883 69 l 800 69 l 800 794 l 703 794 l 619 794 l 619 725 l 703 725 l 703 183 q 422 63 571 63 q 299 101 335 63 q 264 228 264 139 l 264 794 m 638 933 q 597 946 611 933 q 581 972 583 958 q 578 1007 578 985 q 581 1044 578 1031 q 597 1069 583 1057 q 638 1082 611 1082 q 689 1063 678 1082 q 700 1007 700 1043 q 697 972 700 985 q 680 946 694 958 q 638 933 665 933 m 346 933 q 306 946 319 933 q 289 972 292 958 q 286 1007 286 985 q 289 1044 286 1031 q 306 1069 292 1057 q 346 1082 319 1082 q 397 1063 386 1082 q 408 1007 408 1043 q 406 972 408 985 q 388 946 403 958 q 346 933 374 933 z "},"ý":{"ha":794,"x_min":14,"x_max":781,"o":"m 138 -315 l 263 -315 q 326 -294 306 -315 q 365 -225 347 -272 l 726 725 l 781 725 l 781 794 l 550 794 l 550 725 l 628 725 l 397 106 l 165 725 l 244 725 l 244 794 l 14 794 l 14 725 l 68 725 l 351 -18 l 288 -189 q 275 -217 281 -208 q 257 -231 269 -225 q 219 -239 244 -237 l 138 -246 l 138 -315 m 381 867 l 619 1075 l 546 1149 l 322 925 l 381 867 z "},"þ":{"ha":883,"x_min":56,"x_max":774,"o":"m 56 964 l 139 964 l 139 -237 l 56 -237 l 56 -315 l 347 -315 l 347 -237 l 236 -237 l 236 32 q 468 -19 351 -19 q 605 4 547 -19 q 694 64 663 28 q 745 158 726 100 q 769 270 764 217 q 774 397 774 324 q 769 524 774 471 q 745 636 764 578 q 694 731 726 694 q 605 790 663 767 q 468 814 547 814 q 236 721 342 814 l 236 1042 l 56 1042 l 56 964 m 468 725 q 562 706 522 725 q 623 657 601 686 q 657 582 644 628 q 673 494 669 536 q 676 397 676 453 q 670 266 676 318 q 643 165 664 214 q 579 93 622 117 q 468 69 536 69 q 236 114 336 69 l 236 626 q 468 725 340 725 z "},"ÿ":{"ha":794,"x_min":14,"x_max":781,"o":"m 138 -315 l 263 -315 q 326 -294 306 -315 q 365 -225 347 -272 l 726 725 l 781 725 l 781 794 l 550 794 l 550 725 l 628 725 l 397 106 l 165 725 l 244 725 l 244 794 l 14 794 l 14 725 l 68 725 l 351 -18 l 288 -189 q 275 -217 281 -208 q 257 -231 269 -225 q 219 -239 244 -237 l 138 -246 l 138 -315 m 278 933 q 238 946 251 933 q 221 972 224 958 q 218 1007 218 985 q 221 1044 218 1031 q 238 1069 224 1057 q 278 1082 251 1082 q 329 1063 318 1082 q 340 1007 340 1043 q 338 972 340 985 q 320 946 335 958 q 278 933 306 933 m 569 933 q 529 946 543 933 q 513 972 515 958 q 510 1007 510 985 q 513 1044 510 1031 q 529 1069 515 1057 q 569 1082 543 1082 q 621 1063 610 1082 q 632 1007 632 1043 q 629 972 632 985 q 612 946 626 958 q 569 933 597 933 z "},"Ā":{"ha":907,"x_min":7,"x_max":900,"o":"m 386 1014 l 71 69 l 7 69 l 7 0 l 254 0 l 254 69 l 171 69 l 256 328 l 650 328 l 735 69 l 653 69 l 653 0 l 900 0 l 900 69 l 835 69 l 521 1014 l 386 1014 m 453 926 l 624 410 l 283 410 l 453 926 m 276 1183 l 629 1183 l 629 1274 l 276 1274 l 276 1183 z "},"ā":{"ha":850,"x_min":89,"x_max":767,"o":"m 618 0 l 767 0 l 767 69 l 683 69 l 683 592 q 408 814 683 814 q 269 797 325 814 q 184 745 214 781 q 141 669 154 710 q 124 569 128 629 l 206 565 q 251 692 211 651 q 408 732 290 732 q 586 592 586 732 l 586 453 l 329 436 q 139 374 189 426 q 89 201 89 321 q 141 36 89 92 q 324 -19 193 -19 q 593 90 471 -19 l 618 0 m 338 60 q 218 94 253 60 q 183 197 183 128 q 215 324 183 292 q 335 363 246 357 l 586 378 l 586 168 q 338 60 472 60 m 249 964 l 601 964 l 601 1054 l 249 1054 l 249 964 z "},"Ă":{"ha":907,"x_min":7,"x_max":900,"o":"m 386 1014 l 71 69 l 7 69 l 7 0 l 254 0 l 254 69 l 171 69 l 256 328 l 650 328 l 735 69 l 653 69 l 653 0 l 900 0 l 900 69 l 835 69 l 521 1014 l 386 1014 m 453 926 l 624 410 l 283 410 l 453 926 m 628 1301 q 625 1244 628 1268 q 611 1194 622 1221 q 582 1151 600 1168 q 531 1124 564 1135 q 453 1114 499 1114 q 360 1128 397 1114 q 307 1172 324 1143 q 285 1231 290 1201 q 279 1301 279 1260 l 356 1301 q 360 1249 356 1268 q 387 1215 364 1231 q 453 1199 410 1199 q 519 1215 496 1199 q 546 1249 542 1231 q 550 1301 550 1268 l 628 1301 z "},"ă":{"ha":850,"x_min":89,"x_max":767,"o":"m 618 0 l 767 0 l 767 69 l 683 69 l 683 592 q 408 814 683 814 q 269 797 325 814 q 184 745 214 781 q 141 669 154 710 q 124 569 128 629 l 206 565 q 251 692 211 651 q 408 732 290 732 q 586 592 586 732 l 586 453 l 329 436 q 139 374 189 426 q 89 201 89 321 q 141 36 89 92 q 324 -19 193 -19 q 593 90 471 -19 l 618 0 m 338 60 q 218 94 253 60 q 183 197 183 128 q 215 324 183 292 q 335 363 246 357 l 586 378 l 586 168 q 338 60 472 60 m 586 1082 q 583 1025 586 1049 q 569 975 581 1001 q 540 932 558 949 q 490 905 522 915 q 411 894 457 894 q 319 909 356 894 q 265 953 282 924 q 243 1011 249 982 q 238 1082 238 1040 l 314 1082 q 318 1030 314 1049 q 345 995 322 1011 q 411 979 368 979 q 477 995 454 979 q 504 1030 500 1011 q 508 1082 508 1049 l 586 1082 z "},"Ą":{"ha":907,"x_min":7,"x_max":954,"o":"m 896 -156 q 848 -218 879 -194 q 782 -242 817 -242 q 713 -171 713 -242 q 726 -118 713 -139 q 785 -71 740 -97 l 900 0 l 900 69 l 835 69 l 521 1014 l 386 1014 l 71 69 l 7 69 l 7 0 l 254 0 l 254 69 l 171 69 l 256 328 l 650 328 l 735 69 l 653 69 l 653 0 l 786 0 l 746 -21 q 658 -90 683 -53 q 632 -178 632 -128 q 775 -315 632 -315 q 879 -282 831 -315 q 954 -194 928 -249 l 896 -156 m 453 926 l 624 410 l 283 410 l 453 926 z "},"ą":{"ha":850,"x_min":89,"x_max":821,"o":"m 763 -156 q 715 -218 746 -194 q 649 -242 683 -242 q 579 -171 579 -242 q 593 -118 579 -139 q 651 -71 607 -97 l 767 0 l 767 69 l 683 69 l 683 592 q 408 814 683 814 q 269 797 325 814 q 184 745 214 781 q 141 669 154 710 q 124 569 128 629 l 206 565 q 251 692 211 651 q 408 732 290 732 q 586 592 586 732 l 586 453 l 329 436 q 139 374 189 426 q 89 201 89 321 q 141 36 89 92 q 324 -19 193 -19 q 593 90 471 -19 l 618 0 l 653 0 l 613 -21 q 524 -90 550 -53 q 499 -178 499 -128 q 642 -315 499 -315 q 746 -282 697 -315 q 821 -194 794 -249 l 763 -156 m 338 60 q 218 94 253 60 q 183 197 183 128 q 215 324 183 292 q 335 363 246 357 l 586 378 l 586 168 q 338 60 472 60 z "},"Ć":{"ha":860,"x_min":83,"x_max":781,"o":"m 706 1014 l 706 911 q 453 1033 635 1033 q 261 999 336 1033 q 148 892 186 965 q 97 731 110 818 q 83 507 83 643 q 88 354 83 417 q 105 226 92 292 q 144 120 118 161 q 213 45 171 79 q 317 -4 254 11 q 467 -19 381 -19 q 617 2 556 -19 q 711 67 678 24 q 760 163 744 111 q 781 290 775 215 l 699 294 q 644 125 694 186 q 467 64 593 64 q 333 85 388 64 q 250 139 279 107 q 206 235 221 171 q 187 354 190 299 q 183 507 183 410 q 188 659 183 599 q 209 780 193 719 q 253 874 225 840 q 332 929 282 908 q 453 950 382 950 q 641 890 585 950 q 706 714 697 829 l 781 714 l 781 1014 l 706 1014 m 394 1086 l 633 1294 l 560 1368 l 336 1144 l 394 1086 z "},"ć":{"ha":788,"x_min":83,"x_max":700,"o":"m 621 794 l 622 708 q 403 814 553 814 q 263 791 322 814 q 170 732 204 768 q 116 639 136 696 q 90 526 96 582 q 83 397 83 471 q 89 270 83 324 q 114 158 94 217 q 167 64 133 100 q 263 4 201 28 q 410 -19 325 -19 q 551 -3 494 -19 q 639 49 608 14 q 683 125 669 85 q 700 225 696 165 l 621 229 q 573 103 615 143 q 408 63 531 63 q 317 75 356 63 q 253 114 278 88 q 214 168 229 140 q 192 239 199 196 q 183 315 185 282 q 181 397 181 349 q 183 494 181 454 q 199 582 186 533 q 235 660 213 631 q 299 711 257 690 q 401 732 342 732 q 563 678 510 732 q 628 514 615 624 l 692 514 l 692 794 l 621 794 m 344 867 l 583 1075 l 510 1149 l 286 925 l 344 867 z "},"Ĉ":{"ha":860,"x_min":83,"x_max":781,"o":"m 706 1014 l 706 911 q 453 1033 635 1033 q 261 999 336 1033 q 148 892 186 965 q 97 731 110 818 q 83 507 83 643 q 88 354 83 417 q 105 226 92 292 q 144 120 118 161 q 213 45 171 79 q 317 -4 254 11 q 467 -19 381 -19 q 617 2 556 -19 q 711 67 678 24 q 760 163 744 111 q 781 290 775 215 l 699 294 q 644 125 694 186 q 467 64 593 64 q 333 85 388 64 q 250 139 279 107 q 206 235 221 171 q 187 354 190 299 q 183 507 183 410 q 188 659 183 599 q 209 780 193 719 q 253 874 225 840 q 332 929 282 908 q 453 950 382 950 q 641 890 585 950 q 706 714 697 829 l 781 714 l 781 1014 l 706 1014 m 307 1086 l 457 1239 l 608 1086 l 667 1144 l 478 1360 l 438 1360 l 249 1144 l 307 1086 z "},"ĉ":{"ha":788,"x_min":83,"x_max":700,"o":"m 621 794 l 622 708 q 403 814 553 814 q 263 791 322 814 q 170 732 204 768 q 116 639 136 696 q 90 526 96 582 q 83 397 83 471 q 89 270 83 324 q 114 158 94 217 q 167 64 133 100 q 263 4 201 28 q 410 -19 325 -19 q 551 -3 494 -19 q 639 49 608 14 q 683 125 669 85 q 700 225 696 165 l 621 229 q 573 103 615 143 q 408 63 531 63 q 317 75 356 63 q 253 114 278 88 q 214 168 229 140 q 192 239 199 196 q 183 315 185 282 q 181 397 181 349 q 183 494 181 454 q 199 582 186 533 q 235 660 213 631 q 299 711 257 690 q 401 732 342 732 q 563 678 510 732 q 628 514 615 624 l 692 514 l 692 794 l 621 794 m 257 867 l 407 1019 l 558 867 l 617 925 l 428 1140 l 388 1140 l 199 925 l 257 867 z "},"Ċ":{"ha":860,"x_min":83,"x_max":781,"o":"m 706 1014 l 706 911 q 453 1033 635 1033 q 261 999 336 1033 q 148 892 186 965 q 97 731 110 818 q 83 507 83 643 q 88 354 83 417 q 105 226 92 292 q 144 120 118 161 q 213 45 171 79 q 317 -4 254 11 q 467 -19 381 -19 q 617 2 556 -19 q 711 67 678 24 q 760 163 744 111 q 781 290 775 215 l 699 294 q 644 125 694 186 q 467 64 593 64 q 333 85 388 64 q 250 139 279 107 q 206 235 221 171 q 187 354 190 299 q 183 507 183 410 q 188 659 183 599 q 209 780 193 719 q 253 874 225 840 q 332 929 282 908 q 453 950 382 950 q 641 890 585 950 q 706 714 697 829 l 781 714 l 781 1014 l 706 1014 m 456 1136 q 505 1151 488 1136 q 526 1183 522 1167 q 529 1226 529 1200 q 526 1271 529 1254 q 505 1303 522 1288 q 456 1318 488 1318 q 408 1303 425 1318 q 388 1271 392 1288 q 385 1226 385 1254 q 387 1194 385 1207 q 395 1166 389 1181 q 417 1144 401 1151 q 456 1136 432 1136 z "},"ċ":{"ha":788,"x_min":83,"x_max":700,"o":"m 621 794 l 622 708 q 403 814 553 814 q 263 791 322 814 q 170 732 204 768 q 116 639 136 696 q 90 526 96 582 q 83 397 83 471 q 89 270 83 324 q 114 158 94 217 q 167 64 133 100 q 263 4 201 28 q 410 -19 325 -19 q 551 -3 494 -19 q 639 49 608 14 q 683 125 669 85 q 700 225 696 165 l 621 229 q 573 103 615 143 q 408 63 531 63 q 317 75 356 63 q 253 114 278 88 q 214 168 229 140 q 192 239 199 196 q 183 315 185 282 q 181 397 181 349 q 183 494 181 454 q 199 582 186 533 q 235 660 213 631 q 299 711 257 690 q 401 732 342 732 q 563 678 510 732 q 628 514 615 624 l 692 514 l 692 794 l 621 794 m 419 917 q 469 932 451 917 q 490 964 486 947 q 493 1007 493 981 q 490 1051 493 1035 q 469 1083 486 1068 q 419 1099 451 1099 q 372 1083 389 1099 q 352 1051 356 1068 q 349 1007 349 1035 q 351 974 349 988 q 359 947 353 961 q 381 924 365 932 q 419 917 396 917 z "},"Č":{"ha":860,"x_min":83,"x_max":781,"o":"m 706 1014 l 706 911 q 453 1033 635 1033 q 261 999 336 1033 q 148 892 186 965 q 97 731 110 818 q 83 507 83 643 q 88 354 83 417 q 105 226 92 292 q 144 120 118 161 q 213 45 171 79 q 317 -4 254 11 q 467 -19 381 -19 q 617 2 556 -19 q 711 67 678 24 q 760 163 744 111 q 781 290 775 215 l 699 294 q 644 125 694 186 q 467 64 593 64 q 333 85 388 64 q 250 139 279 107 q 206 235 221 171 q 187 354 190 299 q 183 507 183 410 q 188 659 183 599 q 209 780 193 719 q 253 874 225 840 q 332 929 282 908 q 453 950 382 950 q 641 890 585 950 q 706 714 697 829 l 781 714 l 781 1014 l 706 1014 m 608 1368 l 458 1215 l 307 1368 l 249 1310 l 438 1094 l 478 1094 l 667 1310 l 608 1368 z "},"č":{"ha":788,"x_min":83,"x_max":700,"o":"m 621 794 l 622 708 q 403 814 553 814 q 263 791 322 814 q 170 732 204 768 q 116 639 136 696 q 90 526 96 582 q 83 397 83 471 q 89 270 83 324 q 114 158 94 217 q 167 64 133 100 q 263 4 201 28 q 410 -19 325 -19 q 551 -3 494 -19 q 639 49 608 14 q 683 125 669 85 q 700 225 696 165 l 621 229 q 573 103 615 143 q 408 63 531 63 q 317 75 356 63 q 253 114 278 88 q 214 168 229 140 q 192 239 199 196 q 183 315 185 282 q 181 397 181 349 q 183 494 181 454 q 199 582 186 533 q 235 660 213 631 q 299 711 257 690 q 401 732 342 732 q 563 678 510 732 q 628 514 615 624 l 692 514 l 692 794 l 621 794 m 558 1149 l 408 996 l 257 1149 l 199 1090 l 388 875 l 428 875 l 617 1090 l 558 1149 z "},"Ď":{"ha":956,"x_min":97,"x_max":872,"o":"m 281 1014 l 97 1014 l 97 944 l 181 944 l 181 69 l 97 69 l 97 0 l 479 0 q 656 24 583 0 q 770 86 728 47 q 835 193 813 125 q 865 331 858 261 q 872 507 872 401 q 867 655 872 594 q 849 777 863 715 q 808 878 835 839 q 739 951 782 918 q 631 999 696 985 q 479 1014 567 1014 l 281 1014 m 479 932 q 635 904 575 932 q 725 815 696 876 q 763 686 754 754 q 772 507 772 618 q 763 328 772 396 q 725 199 754 260 q 635 110 696 138 q 479 82 575 82 l 281 82 l 281 932 l 479 932 m 629 1368 l 479 1215 l 328 1368 l 269 1310 l 458 1094 l 499 1094 l 688 1310 l 629 1368 z "},"ď":{"ha":929,"x_min":83,"x_max":929,"o":"m 651 0 l 800 0 l 800 69 l 717 69 l 717 1042 l 619 1042 l 536 1042 l 536 972 l 619 972 l 619 764 q 389 814 500 814 q 252 790 310 814 q 163 731 194 767 q 112 636 131 694 q 88 524 93 578 q 83 397 83 471 q 88 270 83 324 q 111 158 93 217 q 160 64 129 100 q 248 4 192 28 q 382 -19 304 -19 q 633 83 517 -19 l 651 0 m 399 63 q 225 147 269 63 q 181 397 181 232 q 190 532 181 476 q 222 635 199 588 q 290 708 244 683 q 403 732 335 732 q 619 685 518 732 l 619 156 q 399 63 518 63 m 808 1024 q 816 969 808 1003 q 824 917 824 935 q 786 824 824 868 l 817 792 q 894 888 860 828 q 929 1017 929 947 q 868 1089 929 1089 q 808 1024 808 1089 z "},"Đ":{"ha":956,"x_min":97,"x_max":872,"o":"m 97 944 l 181 944 l 181 549 l 97 549 l 97 465 l 181 465 l 181 69 l 97 69 l 97 0 l 479 0 q 656 24 583 0 q 770 86 728 47 q 835 193 813 125 q 865 331 858 261 q 872 507 872 401 q 867 655 872 594 q 849 777 863 715 q 808 878 835 839 q 739 951 782 918 q 631 999 696 985 q 479 1014 567 1014 l 97 1014 l 97 944 m 479 932 q 635 904 575 932 q 725 815 696 876 q 763 686 754 754 q 772 507 772 618 q 763 328 772 396 q 725 199 754 260 q 635 110 696 138 q 479 82 575 82 l 281 82 l 281 465 l 586 465 l 586 549 l 281 549 l 281 932 l 479 932 z "},"đ":{"ha":883,"x_min":83,"x_max":846,"o":"m 651 0 l 800 0 l 800 69 l 717 69 l 717 861 l 846 861 l 846 931 l 717 931 l 717 1042 l 619 1042 l 619 931 l 449 931 l 449 861 l 619 861 l 619 694 q 389 744 500 744 q 252 723 310 744 q 163 668 194 701 q 112 581 131 635 q 88 479 93 528 q 83 363 83 431 q 88 247 83 296 q 111 144 93 197 q 160 57 129 90 q 248 2 192 24 q 382 -19 304 -19 q 633 83 517 -19 l 651 0 m 399 63 q 225 138 269 63 q 181 358 181 213 q 190 480 181 429 q 222 574 199 531 q 290 640 244 618 q 403 663 335 663 q 619 615 518 663 l 619 156 q 399 63 518 63 z "},"Ē":{"ha":861,"x_min":97,"x_max":778,"o":"m 97 0 l 778 0 l 778 219 l 700 219 l 700 82 l 281 82 l 281 474 l 681 474 l 681 557 l 281 557 l 281 932 l 672 932 l 672 794 l 750 794 l 750 1014 l 97 1014 l 97 944 l 181 944 l 181 69 l 97 69 l 97 0 m 254 1183 l 607 1183 l 607 1274 l 254 1274 l 254 1183 z "},"ē":{"ha":831,"x_min":97,"x_max":747,"o":"m 429 -19 q 578 1 518 -19 q 670 62 639 22 q 715 144 701 101 q 735 246 729 186 l 654 250 q 599 110 646 158 q 426 63 551 63 q 242 134 289 63 q 194 375 196 206 l 747 375 l 747 397 q 742 524 747 471 q 717 636 736 578 q 663 731 697 694 q 569 790 629 767 q 424 814 508 814 q 278 790 339 814 q 182 731 217 767 q 128 636 147 694 q 103 524 108 578 q 97 397 97 471 q 166 80 97 179 q 429 -19 235 -19 m 422 732 q 540 711 493 732 q 608 648 586 690 q 639 561 631 606 q 649 451 647 517 l 194 451 q 205 558 196 514 q 237 645 214 603 q 306 710 260 688 q 422 732 353 732 m 253 964 l 606 964 l 606 1054 l 253 1054 l 253 964 z "},"Ĕ":{"ha":861,"x_min":97,"x_max":778,"o":"m 97 944 l 181 944 l 181 932 l 181 69 l 97 69 l 97 0 l 778 0 l 778 219 l 700 219 l 700 82 l 281 82 l 281 474 l 681 474 l 681 557 l 281 557 l 281 932 l 672 932 l 672 794 l 750 794 l 750 1014 l 97 1014 l 97 944 m 606 1301 q 603 1244 606 1268 q 589 1194 600 1221 q 560 1151 578 1168 q 509 1124 542 1135 q 431 1114 476 1114 q 338 1128 375 1114 q 285 1172 301 1143 q 263 1231 268 1201 q 257 1301 257 1260 l 333 1301 q 338 1249 333 1268 q 365 1215 342 1231 q 431 1199 388 1199 q 497 1215 474 1199 q 524 1249 519 1231 q 528 1301 528 1268 l 606 1301 z "},"ĕ":{"ha":831,"x_min":97,"x_max":747,"o":"m 429 -19 q 578 1 518 -19 q 670 62 639 22 q 715 144 701 101 q 735 246 729 186 l 654 250 q 599 110 646 158 q 426 63 551 63 q 242 134 289 63 q 194 375 196 206 l 747 375 l 747 397 q 742 524 747 471 q 717 636 736 578 q 663 731 697 694 q 569 790 629 767 q 424 814 508 814 q 278 790 339 814 q 182 731 217 767 q 128 636 147 694 q 103 524 108 578 q 97 397 97 471 q 166 80 97 179 q 429 -19 235 -19 m 422 732 q 540 711 493 732 q 608 648 586 690 q 639 561 631 606 q 649 451 647 517 l 194 451 q 205 558 196 514 q 237 645 214 603 q 306 710 260 688 q 422 732 353 732 m 604 1082 q 601 1025 604 1049 q 588 975 599 1001 q 558 932 576 949 q 508 905 540 915 q 429 894 475 894 q 337 909 374 894 q 283 953 300 924 q 261 1011 267 982 q 256 1082 256 1040 l 332 1082 q 336 1030 332 1049 q 363 995 340 1011 q 429 979 386 979 q 495 995 472 979 q 522 1030 518 1011 q 526 1082 526 1049 l 604 1082 z "},"Ė":{"ha":861,"x_min":97,"x_max":778,"o":"m 97 944 l 181 944 l 181 69 l 97 69 l 97 0 l 778 0 l 778 219 l 700 219 l 700 82 l 281 82 l 281 474 l 681 474 l 681 557 l 281 557 l 281 932 l 672 932 l 672 794 l 750 794 l 750 1014 l 97 1014 l 97 944 m 443 1136 q 492 1151 475 1136 q 513 1183 510 1167 q 517 1226 517 1200 q 513 1271 517 1254 q 492 1303 510 1288 q 443 1318 475 1318 q 396 1303 413 1318 q 376 1271 379 1288 q 372 1226 372 1254 q 374 1194 372 1207 q 383 1166 376 1181 q 404 1144 389 1151 q 443 1136 419 1136 z "},"ė":{"ha":831,"x_min":97,"x_max":747,"o":"m 429 -19 q 578 1 518 -19 q 670 62 639 22 q 715 144 701 101 q 735 246 729 186 l 654 250 q 599 110 646 158 q 426 63 551 63 q 242 134 289 63 q 194 375 196 206 l 747 375 l 747 397 q 742 524 747 471 q 717 636 736 578 q 663 731 697 694 q 569 790 629 767 q 424 814 508 814 q 278 790 339 814 q 182 731 217 767 q 128 636 147 694 q 103 524 108 578 q 97 397 97 471 q 166 80 97 179 q 429 -19 235 -19 m 422 732 q 540 711 493 732 q 608 648 586 690 q 639 561 631 606 q 649 451 647 517 l 194 451 q 205 558 196 514 q 237 645 214 603 q 306 710 260 688 q 422 732 353 732 m 428 917 q 477 932 460 917 q 498 964 494 947 q 501 1007 501 981 q 498 1051 501 1035 q 477 1083 494 1068 q 428 1099 460 1099 q 381 1083 397 1099 q 360 1051 364 1068 q 357 1007 357 1035 q 359 974 357 988 q 367 947 361 961 q 389 924 374 932 q 428 917 404 917 z "},"Ę":{"ha":861,"x_min":97,"x_max":832,"o":"m 97 944 l 181 944 l 181 932 l 181 69 l 97 69 l 97 0 l 664 0 l 624 -21 q 535 -90 561 -53 q 510 -178 510 -128 q 653 -315 510 -315 q 757 -282 708 -315 q 832 -194 806 -249 l 774 -156 q 726 -218 757 -194 q 660 -242 694 -242 q 590 -171 590 -242 q 604 -118 590 -139 q 663 -71 618 -97 l 778 0 l 778 219 l 700 219 l 700 82 l 281 82 l 281 474 l 681 474 l 681 557 l 281 557 l 281 932 l 672 932 l 672 794 l 750 794 l 750 1014 l 97 1014 l 97 944 z "},"ę":{"ha":831,"x_min":97,"x_max":747,"o":"m 539 -156 q 491 -218 522 -194 q 425 -242 460 -242 q 356 -171 356 -242 q 369 -118 356 -139 q 428 -71 383 -97 l 524 -11 q 680 74 636 8 q 735 246 724 139 l 654 250 q 599 110 646 158 q 426 63 551 63 q 242 134 289 63 q 194 375 196 206 l 747 375 l 747 397 q 742 524 747 471 q 717 636 736 578 q 663 731 697 694 q 569 790 629 767 q 424 814 508 814 q 278 790 339 814 q 182 731 217 767 q 128 636 147 694 q 103 524 108 578 q 97 397 97 471 q 159 90 97 189 q 393 -18 221 -10 l 389 -21 q 301 -90 326 -53 q 275 -178 275 -128 q 418 -315 275 -315 q 522 -282 474 -315 q 597 -194 571 -249 l 539 -156 m 422 732 q 540 711 493 732 q 608 648 586 690 q 639 561 631 606 q 649 451 647 517 l 194 451 q 205 558 196 514 q 237 645 214 603 q 306 710 260 688 q 422 732 353 732 z "},"Ě":{"ha":861,"x_min":97,"x_max":778,"o":"m 97 944 l 181 944 l 181 932 l 181 69 l 97 69 l 97 0 l 778 0 l 778 219 l 700 219 l 700 82 l 281 82 l 281 474 l 681 474 l 681 557 l 281 557 l 281 932 l 672 932 l 672 794 l 750 794 l 750 1014 l 97 1014 l 97 944 m 610 1368 l 460 1215 l 308 1368 l 250 1310 l 439 1094 l 479 1094 l 668 1310 l 610 1368 z "},"ě":{"ha":831,"x_min":97,"x_max":747,"o":"m 429 -19 q 578 1 518 -19 q 670 62 639 22 q 715 144 701 101 q 735 246 729 186 l 654 250 q 599 110 646 158 q 426 63 551 63 q 242 134 289 63 q 194 375 196 206 l 747 375 l 747 397 q 742 524 747 471 q 717 636 736 578 q 663 731 697 694 q 569 790 629 767 q 424 814 508 814 q 278 790 339 814 q 182 731 217 767 q 128 636 147 694 q 103 524 108 578 q 97 397 97 471 q 166 80 97 179 q 429 -19 235 -19 m 422 732 q 540 711 493 732 q 608 648 586 690 q 639 561 631 606 q 649 451 647 517 l 194 451 q 205 558 196 514 q 237 645 214 603 q 306 710 260 688 q 422 732 353 732 m 581 1149 l 431 996 l 279 1149 l 221 1090 l 410 875 l 450 875 l 639 1090 l 581 1149 z "},"Ĝ":{"ha":933,"x_min":83,"x_max":794,"o":"m 547 438 l 706 438 l 706 294 q 454 64 699 64 q 344 76 390 64 q 269 116 299 88 q 222 176 239 144 q 196 266 204 208 q 185 373 188 324 q 183 507 183 422 q 188 659 183 599 q 210 780 193 719 q 257 874 226 840 q 340 929 288 908 q 468 950 393 950 q 651 887 597 950 q 713 714 704 824 l 788 714 l 788 1014 l 713 1014 l 713 907 q 468 1033 643 1033 q 299 1009 369 1033 q 188 944 229 985 q 122 833 146 903 q 91 690 99 764 q 83 507 83 615 q 85 374 83 426 q 96 261 88 322 q 119 162 104 200 q 162 85 135 124 q 228 27 189 47 q 324 -6 268 7 q 454 -19 381 -19 q 722 117 646 -19 l 738 0 l 794 0 l 794 507 l 547 507 l 547 438 m 317 1086 l 467 1239 l 618 1086 l 676 1144 l 488 1360 l 447 1360 l 258 1144 l 317 1086 z "},"ĝ":{"ha":806,"x_min":69,"x_max":750,"o":"m 408 256 q 538 272 483 256 q 622 312 592 288 q 669 375 651 336 q 691 449 686 414 q 696 535 696 485 q 651 726 696 665 l 744 819 l 686 878 l 588 779 q 408 814 518 814 q 280 798 333 814 q 196 758 226 782 q 149 694 165 733 q 127 620 132 656 q 122 535 122 585 q 194 313 122 374 l 135 256 q 74 126 74 194 q 150 11 74 43 q 69 -144 69 -54 q 92 -246 69 -207 q 163 -303 115 -285 q 263 -328 211 -322 q 394 -335 314 -335 q 501 -333 461 -335 q 595 -318 542 -331 q 678 -283 649 -306 q 728 -217 707 -261 q 750 -111 750 -174 q 697 26 750 -21 q 544 74 643 74 l 226 74 q 153 133 153 74 q 189 214 153 179 l 256 278 q 408 256 318 256 m 408 329 q 253 379 290 329 q 217 535 217 429 q 253 690 217 640 q 408 740 290 740 q 565 690 528 740 q 601 535 601 640 q 565 379 601 429 q 408 329 528 329 m 394 -261 q 299 -258 336 -261 q 226 -242 263 -254 q 172 -205 189 -231 q 154 -139 154 -179 q 218 0 154 -53 l 517 0 q 660 -112 660 0 q 601 -235 660 -210 q 394 -261 542 -261 m 267 867 l 417 1019 l 568 867 l 626 925 l 438 1140 l 397 1140 l 208 925 l 267 867 z "},"Ğ":{"ha":933,"x_min":83,"x_max":794,"o":"m 547 438 l 706 438 l 706 294 q 454 64 699 64 q 344 76 390 64 q 269 116 299 88 q 222 176 239 144 q 196 266 204 208 q 185 373 188 324 q 183 507 183 422 q 188 659 183 599 q 210 780 193 719 q 257 874 226 840 q 340 929 288 908 q 468 950 393 950 q 651 887 597 950 q 713 714 704 824 l 788 714 l 788 1014 l 713 1014 l 713 907 q 468 1033 643 1033 q 299 1009 369 1033 q 188 944 229 985 q 122 833 146 903 q 91 690 99 764 q 83 507 83 615 q 85 374 83 426 q 96 261 88 322 q 119 162 104 200 q 162 85 135 124 q 228 27 189 47 q 324 -6 268 7 q 454 -19 381 -19 q 722 117 646 -19 l 738 0 l 794 0 l 794 507 l 547 507 l 547 438 m 628 1301 q 625 1244 628 1268 q 611 1194 622 1221 q 582 1151 600 1168 q 531 1124 564 1135 q 453 1114 499 1114 q 360 1128 397 1114 q 307 1172 324 1143 q 285 1231 290 1201 q 279 1301 279 1260 l 356 1301 q 360 1249 356 1268 q 387 1215 364 1231 q 453 1199 410 1199 q 519 1215 496 1199 q 546 1249 542 1231 q 550 1301 550 1268 l 628 1301 z "},"ğ":{"ha":806,"x_min":69,"x_max":750,"o":"m 408 256 q 538 272 483 256 q 622 312 592 288 q 669 375 651 336 q 691 449 686 414 q 696 535 696 485 q 651 726 696 665 l 744 819 l 686 878 l 588 779 q 408 814 518 814 q 280 798 333 814 q 196 758 226 782 q 149 694 165 733 q 127 620 132 656 q 122 535 122 585 q 194 313 122 374 l 135 256 q 74 126 74 194 q 150 11 74 43 q 69 -144 69 -54 q 92 -246 69 -207 q 163 -303 115 -285 q 263 -328 211 -322 q 394 -335 314 -335 q 501 -333 461 -335 q 595 -318 542 -331 q 678 -283 649 -306 q 728 -217 707 -261 q 750 -111 750 -174 q 697 26 750 -21 q 544 74 643 74 l 226 74 q 153 133 153 74 q 189 214 153 179 l 256 278 q 408 256 318 256 m 408 329 q 253 379 290 329 q 217 535 217 429 q 253 690 217 640 q 408 740 290 740 q 565 690 528 740 q 601 535 601 640 q 565 379 601 429 q 408 329 528 329 m 394 -261 q 299 -258 336 -261 q 226 -242 263 -254 q 172 -205 189 -231 q 154 -139 154 -179 q 218 0 154 -53 l 517 0 q 660 -112 660 0 q 601 -235 660 -210 q 394 -261 542 -261 m 592 1082 q 589 1025 592 1049 q 575 975 586 1001 q 546 932 564 949 q 495 905 528 915 q 417 894 463 894 q 324 909 361 894 q 271 953 288 924 q 249 1011 254 982 q 243 1082 243 1040 l 319 1082 q 324 1030 319 1049 q 351 995 328 1011 q 417 979 374 979 q 483 995 460 979 q 510 1030 506 1011 q 514 1082 514 1049 l 592 1082 z "},"Ġ":{"ha":933,"x_min":83,"x_max":794,"o":"m 547 438 l 706 438 l 706 294 q 454 64 699 64 q 344 76 390 64 q 269 116 299 88 q 222 176 239 144 q 196 266 204 208 q 185 373 188 324 q 183 507 183 422 q 188 659 183 599 q 210 780 193 719 q 257 874 226 840 q 340 929 288 908 q 468 950 393 950 q 651 887 597 950 q 713 714 704 824 l 788 714 l 788 1014 l 713 1014 l 713 907 q 468 1033 643 1033 q 299 1009 369 1033 q 188 944 229 985 q 122 833 146 903 q 91 690 99 764 q 83 507 83 615 q 85 374 83 426 q 96 261 88 322 q 119 162 104 200 q 162 85 135 124 q 228 27 189 47 q 324 -6 268 7 q 454 -19 381 -19 q 722 117 646 -19 l 738 0 l 794 0 l 794 507 l 547 507 l 547 438 m 465 1136 q 515 1151 497 1136 q 535 1183 532 1167 q 539 1226 539 1200 q 535 1271 539 1254 q 515 1303 532 1288 q 465 1318 497 1318 q 418 1303 435 1318 q 398 1271 401 1288 q 394 1226 394 1254 q 397 1194 394 1207 q 405 1166 399 1181 q 426 1144 411 1151 q 465 1136 442 1136 z "},"ġ":{"ha":806,"x_min":69,"x_max":750,"o":"m 408 256 q 538 272 483 256 q 622 312 592 288 q 669 375 651 336 q 691 449 686 414 q 696 535 696 485 q 651 726 696 665 l 744 819 l 686 878 l 588 779 q 408 814 518 814 q 280 798 333 814 q 196 758 226 782 q 149 694 165 733 q 127 620 132 656 q 122 535 122 585 q 194 313 122 374 l 135 256 q 74 126 74 194 q 150 11 74 43 q 69 -144 69 -54 q 92 -246 69 -207 q 163 -303 115 -285 q 263 -328 211 -322 q 394 -335 314 -335 q 501 -333 461 -335 q 595 -318 542 -331 q 678 -283 649 -306 q 728 -217 707 -261 q 750 -111 750 -174 q 697 26 750 -21 q 544 74 643 74 l 226 74 q 153 133 153 74 q 189 214 153 179 l 256 278 q 408 256 318 256 m 408 329 q 253 379 290 329 q 217 535 217 429 q 253 690 217 640 q 408 740 290 740 q 565 690 528 740 q 601 535 601 640 q 565 379 601 429 q 408 329 528 329 m 394 -261 q 299 -258 336 -261 q 226 -242 263 -254 q 172 -205 189 -231 q 154 -139 154 -179 q 218 0 154 -53 l 517 0 q 660 -112 660 0 q 601 -235 660 -210 q 394 -261 542 -261 m 415 917 q 465 932 447 917 q 485 964 482 947 q 489 1007 489 981 q 485 1051 489 1035 q 465 1083 482 1068 q 415 1099 447 1099 q 368 1083 385 1099 q 348 1051 351 1068 q 344 1007 344 1035 q 347 974 344 988 q 355 947 349 961 q 376 924 361 932 q 415 917 392 917 z "},"Ģ":{"ha":933,"x_min":83,"x_max":794,"o":"m 547 438 l 706 438 l 706 294 q 454 64 699 64 q 344 76 390 64 q 269 116 299 88 q 222 176 239 144 q 196 266 204 208 q 185 373 188 324 q 183 507 183 422 q 188 659 183 599 q 210 780 193 719 q 257 874 226 840 q 340 929 288 908 q 468 950 393 950 q 651 887 597 950 q 713 714 704 824 l 788 714 l 788 1014 l 713 1014 l 713 907 q 468 1033 643 1033 q 299 1009 369 1033 q 188 944 229 985 q 122 833 146 903 q 91 690 99 764 q 83 507 83 615 q 85 374 83 426 q 96 261 88 322 q 119 162 104 200 q 162 85 135 124 q 228 27 189 47 q 324 -6 268 7 q 454 -19 381 -19 q 722 117 646 -19 l 738 0 l 794 0 l 794 507 l 547 507 l 547 438 m 411 -114 q 419 -169 411 -135 q 426 -221 426 -203 q 389 -314 426 -269 l 419 -346 q 497 -250 463 -310 q 532 -121 532 -190 q 471 -49 532 -49 q 411 -114 411 -49 z "},"ģ":{"ha":806,"x_min":69,"x_max":750,"o":"m 408 256 q 538 272 483 256 q 622 312 592 288 q 669 375 651 336 q 691 449 686 414 q 696 535 696 485 q 651 726 696 665 l 744 819 l 686 878 l 588 779 q 408 814 518 814 q 280 798 333 814 q 196 758 226 782 q 149 694 165 733 q 127 620 132 656 q 122 535 122 585 q 194 313 122 374 l 135 256 q 74 126 74 194 q 150 11 74 43 q 69 -144 69 -54 q 92 -246 69 -207 q 163 -303 115 -285 q 263 -328 211 -322 q 394 -335 314 -335 q 501 -333 461 -335 q 595 -318 542 -331 q 678 -283 649 -306 q 728 -217 707 -261 q 750 -111 750 -174 q 697 26 750 -21 q 544 74 643 74 l 226 74 q 153 133 153 74 q 189 214 153 179 l 256 278 q 408 256 318 256 m 408 329 q 253 379 290 329 q 217 535 217 429 q 253 690 217 640 q 408 740 290 740 q 565 690 528 740 q 601 535 601 640 q 565 379 601 429 q 408 329 528 329 m 394 -261 q 299 -258 336 -261 q 226 -242 263 -254 q 172 -205 189 -231 q 154 -139 154 -179 q 218 0 154 -53 l 517 0 q 660 -112 660 0 q 601 -235 660 -210 q 394 -261 542 -261 m 479 940 q 472 995 479 961 q 464 1047 464 1029 q 501 1140 464 1096 l 471 1172 q 393 1076 428 1136 q 358 947 358 1017 q 419 875 358 875 q 479 940 479 875 z "},"Ĥ":{"ha":1044,"x_min":97,"x_max":947,"o":"m 681 0 l 947 0 l 947 69 l 864 69 l 864 944 l 947 944 l 947 1014 l 681 1014 l 681 944 l 764 944 l 764 549 l 281 549 l 281 944 l 364 944 l 364 1014 l 97 1014 l 97 944 l 181 944 l 181 69 l 97 69 l 97 0 l 364 0 l 364 69 l 281 69 l 281 465 l 764 465 l 764 69 l 681 69 l 681 0 m 372 1086 l 522 1239 l 674 1086 l 732 1144 l 543 1360 l 503 1360 l 314 1144 l 372 1086 z "},"ĥ":{"ha":946,"x_min":-14,"x_max":863,"o":"m 83 972 l 167 972 l 167 69 l 83 69 l 83 0 l 347 0 l 347 69 l 264 69 l 264 629 q 535 732 393 732 q 648 693 614 732 q 682 567 682 654 l 682 69 l 599 69 l 599 0 l 863 0 l 863 69 l 779 69 l 779 565 q 726 753 779 693 q 550 814 672 814 q 264 713 403 814 l 264 1042 l 83 1042 l 83 972 m 44 1085 l 194 1238 l 346 1085 l 404 1143 l 215 1358 l 175 1358 l -14 1143 l 44 1085 z "},"Ħ":{"ha":1044,"x_min":44,"x_max":1000,"o":"m 97 944 l 181 944 l 181 776 l 44 776 l 44 707 l 181 707 l 181 69 l 97 69 l 97 0 l 364 0 l 364 69 l 281 69 l 281 465 l 764 465 l 764 69 l 681 69 l 681 0 l 947 0 l 947 69 l 864 69 l 864 707 l 1000 707 l 1000 776 l 864 776 l 864 944 l 947 944 l 947 1014 l 681 1014 l 681 944 l 764 944 l 764 776 l 281 776 l 281 944 l 364 944 l 364 1014 l 97 1014 l 97 944 m 281 707 l 764 707 l 764 549 l 281 549 l 281 707 z "},"ħ":{"ha":733,"x_min":38,"x_max":863,"o":"m 83 0 l 347 0 l 347 69 l 264 69 l 264 560 q 535 663 393 663 q 648 624 614 663 q 682 497 682 585 l 682 69 l 599 69 l 599 0 l 863 0 l 863 69 l 779 69 l 779 496 q 726 684 779 624 q 550 744 672 744 q 264 643 403 744 l 264 861 l 435 861 l 435 931 l 264 931 l 264 1042 l 167 1042 l 167 931 l 38 931 l 38 861 l 167 861 l 167 69 l 83 69 l 83 0 z "},"Ĩ":{"ha":489,"x_min":21,"x_max":468,"o":"m 97 944 l 194 944 l 194 69 l 97 69 l 97 0 l 392 0 l 392 69 l 294 69 l 294 944 l 392 944 l 392 1014 l 97 1014 l 97 944 m 346 1160 q 468 1289 431 1160 l 399 1311 q 374 1264 388 1278 q 335 1250 360 1250 q 247 1275 317 1250 q 143 1300 178 1300 q 21 1171 58 1300 l 92 1149 q 117 1196 103 1182 q 156 1210 131 1210 q 243 1185 175 1210 q 346 1160 311 1160 z "},"ĩ":{"ha":444,"x_min":-19,"x_max":428,"o":"m 97 725 l 181 725 l 181 69 l 97 69 l 97 0 l 361 0 l 361 69 l 278 69 l 278 794 l 97 794 l 97 725 m 306 940 q 428 1069 390 940 l 358 1092 q 333 1044 347 1058 q 294 1031 319 1031 q 206 1056 275 1031 q 103 1081 138 1081 q -19 951 18 1081 l 51 929 q 76 976 63 963 q 115 990 90 990 q 203 965 135 990 q 306 940 271 940 z "},"Ī":{"ha":489,"x_min":68,"x_max":421,"o":"m 97 944 l 194 944 l 194 69 l 97 69 l 97 0 l 392 0 l 392 69 l 294 69 l 294 944 l 392 944 l 392 1014 l 97 1014 l 97 944 m 68 1183 l 421 1183 l 421 1274 l 68 1274 l 68 1183 z "},"ī":{"ha":444,"x_min":32,"x_max":385,"o":"m 97 725 l 181 725 l 181 69 l 97 69 l 97 0 l 361 0 l 361 69 l 278 69 l 278 794 l 97 794 l 97 725 m 32 964 l 385 964 l 385 1054 l 32 1054 l 32 964 z "},"Ĭ":{"ha":489,"x_min":71,"x_max":419,"o":"m 97 944 l 194 944 l 194 69 l 97 69 l 97 0 l 392 0 l 392 69 l 294 69 l 294 944 l 392 944 l 392 1014 l 97 1014 l 97 944 m 419 1301 q 417 1244 419 1268 q 403 1194 414 1221 q 374 1151 392 1168 q 323 1124 356 1135 q 244 1114 290 1114 q 152 1128 189 1114 q 99 1172 115 1143 q 76 1231 82 1201 q 71 1301 71 1260 l 147 1301 q 151 1249 147 1268 q 178 1215 156 1231 q 244 1199 201 1199 q 310 1215 288 1199 q 338 1249 333 1231 q 342 1301 342 1268 l 419 1301 z "},"ĭ":{"ha":444,"x_min":51,"x_max":400,"o":"m 97 725 l 181 725 l 181 69 l 97 69 l 97 0 l 361 0 l 361 69 l 278 69 l 278 794 l 97 794 l 97 725 m 400 1082 q 397 1025 400 1049 q 383 975 394 1001 q 354 932 372 949 q 303 905 336 915 q 225 894 271 894 q 133 909 169 894 q 79 953 96 924 q 57 1011 63 982 q 51 1082 51 1040 l 128 1082 q 132 1030 128 1049 q 159 995 136 1011 q 225 979 182 979 q 291 995 268 979 q 318 1030 314 1011 q 322 1082 322 1049 l 400 1082 z "},"Į":{"ha":356,"x_min":89,"x_max":411,"o":"m 97 944 l 194 944 l 194 69 l 97 69 l 97 0 l 243 0 l 203 -21 q 115 -90 140 -53 q 89 -178 89 -128 q 232 -315 89 -315 q 336 -282 288 -315 q 411 -194 385 -249 l 353 -156 q 305 -218 336 -194 q 239 -242 274 -242 q 169 -171 169 -242 q 183 -118 169 -139 q 242 -71 197 -97 l 357 0 l 392 0 l 392 69 l 294 69 l 294 944 l 392 944 l 392 1014 l 97 1014 l 97 944 z "},"į":{"ha":340,"x_min":65,"x_max":388,"o":"m 97 725 l 181 725 l 181 69 l 97 69 l 97 0 l 219 0 l 179 -21 q 91 -90 117 -53 q 65 -178 65 -128 q 208 -315 65 -315 q 313 -282 264 -315 q 388 -194 361 -249 l 329 -156 q 281 -218 313 -194 q 215 -242 250 -242 q 146 -171 146 -242 q 160 -118 146 -139 q 218 -71 174 -97 l 333 0 l 361 0 l 361 69 l 278 69 l 278 794 l 97 794 l 97 725 m 229 933 q 281 953 269 933 q 292 1007 292 972 q 289 1044 292 1031 q 272 1069 286 1057 q 229 1082 257 1082 q 189 1069 203 1082 q 172 1044 175 1057 q 169 1007 169 1031 q 172 972 169 985 q 189 946 175 958 q 229 933 203 933 z "},"İ":{"ha":489,"x_min":97,"x_max":392,"o":"m 97 944 l 194 944 l 194 69 l 97 69 l 97 0 l 392 0 l 392 69 l 294 69 l 294 944 l 392 944 l 392 1014 l 97 1014 l 97 944 m 243 1136 q 292 1151 275 1136 q 313 1183 310 1167 q 317 1226 317 1200 q 313 1271 317 1254 q 292 1303 310 1288 q 243 1318 275 1318 q 196 1303 213 1318 q 176 1271 179 1288 q 172 1226 172 1254 q 174 1194 172 1207 q 183 1166 176 1181 q 204 1144 189 1151 q 243 1136 219 1136 z "},"ı":{"ha":444,"x_min":97,"x_max":361,"o":"m 97 725 l 181 725 l 181 69 l 97 69 l 97 0 l 361 0 l 361 69 l 278 69 l 278 794 l 97 794 l 97 725 z "},"Ĳ":{"ha":1143,"x_min":97,"x_max":1081,"o":"m 786 944 l 897 944 l 897 254 q 869 104 897 144 q 753 64 840 64 q 634 106 665 64 q 603 254 603 147 l 517 254 q 518 183 517 210 q 526 121 519 157 q 549 63 533 85 q 589 21 564 42 q 654 -10 614 0 q 750 -19 694 -19 q 863 -5 817 -19 q 935 32 908 10 q 975 92 961 54 q 993 166 989 131 q 997 254 997 201 l 997 944 l 1081 944 l 1081 1014 l 786 1014 l 786 944 m 97 944 l 194 944 l 194 69 l 97 69 l 97 0 l 392 0 l 392 69 l 294 69 l 294 944 l 392 944 l 392 1014 l 97 1014 l 97 944 z "},"ĳ":{"ha":875,"x_min":97,"x_max":736,"o":"m 528 725 l 611 725 l 611 -108 q 592 -200 611 -174 q 515 -232 574 -226 l 431 -239 l 431 -315 l 515 -315 q 671 -266 633 -315 q 708 -108 708 -217 l 708 794 l 528 794 l 528 725 m 97 725 l 181 725 l 181 69 l 97 69 l 97 0 l 361 0 l 361 69 l 278 69 l 278 794 l 97 794 l 97 725 m 674 933 q 725 953 714 933 q 736 1007 736 972 q 733 1044 736 1031 q 716 1069 731 1057 q 674 1082 701 1082 q 633 1069 647 1082 q 617 1044 619 1057 q 614 1007 614 1031 q 617 972 614 985 q 633 946 619 958 q 674 933 647 933 m 229 933 q 281 953 269 933 q 292 1007 292 972 q 289 1044 292 1031 q 272 1069 286 1057 q 229 1082 257 1082 q 189 1069 203 1082 q 172 1044 175 1057 q 169 1007 169 1031 q 172 972 169 985 q 189 946 175 958 q 229 933 203 933 z "},"Ĵ":{"ha":654,"x_min":28,"x_max":650,"o":"m 297 944 l 408 944 l 408 254 q 380 104 408 144 q 264 64 351 64 q 145 106 176 64 q 114 254 114 147 l 28 254 q 29 183 28 210 q 38 121 31 157 q 60 63 44 85 q 100 21 75 42 q 165 -10 125 0 q 261 -19 206 -19 q 374 -5 328 -19 q 446 32 419 10 q 486 92 472 54 q 504 166 500 131 q 508 254 508 201 l 508 944 l 592 944 l 592 1014 l 297 1014 l 297 944 m 290 1086 l 440 1239 l 592 1086 l 650 1144 l 461 1360 l 421 1360 l 232 1144 l 290 1086 z "},"ĵ":{"ha":431,"x_min":-14,"x_max":432,"o":"m 83 725 l 167 725 l 167 -108 q 148 -200 167 -174 q 71 -232 129 -226 l -14 -239 l -14 -315 l 71 -315 q 226 -266 189 -315 q 264 -108 264 -217 l 264 794 l 83 794 l 83 725 m 72 867 l 222 1019 l 374 867 l 432 925 l 243 1140 l 203 1140 l 14 925 l 72 867 z "},"Ķ":{"ha":874,"x_min":97,"x_max":846,"o":"m 593 0 l 846 0 l 846 69 l 772 69 l 475 511 l 757 944 l 832 944 l 832 1014 l 579 1014 l 579 944 l 653 944 l 401 554 l 281 554 l 281 944 l 364 944 l 364 1014 l 97 1014 l 97 944 l 181 944 l 181 69 l 97 69 l 97 0 l 364 0 l 364 69 l 281 69 l 281 472 l 396 472 l 664 69 l 593 69 l 593 0 m 407 -114 q 415 -169 407 -135 q 422 -221 422 -203 q 385 -314 422 -269 l 415 -346 q 493 -250 458 -310 q 528 -121 528 -190 q 467 -49 528 -49 q 407 -114 407 -49 z "},"ķ":{"ha":828,"x_min":83,"x_max":786,"o":"m 83 972 l 167 972 l 167 69 l 83 69 l 83 0 l 347 0 l 347 69 l 264 69 l 264 392 l 375 392 l 596 69 l 522 69 l 522 0 l 786 0 l 786 69 l 704 69 l 463 421 l 678 725 l 761 725 l 761 794 l 497 794 l 497 725 l 569 725 l 389 467 l 264 467 l 264 1042 l 83 1042 l 83 972 m 385 -114 q 392 -169 385 -135 q 400 -221 400 -203 q 363 -314 400 -269 l 393 -346 q 471 -250 436 -310 q 506 -121 506 -190 q 444 -49 506 -49 q 385 -114 385 -49 z "},"ĸ":{"ha":879,"x_min":83,"x_max":838,"o":"m 83 725 l 174 725 l 174 69 l 83 69 l 83 0 l 363 0 l 363 69 l 271 69 l 271 392 l 397 392 l 638 69 l 558 69 l 558 0 l 838 0 l 838 69 l 746 69 l 485 419 l 717 725 l 811 725 l 811 794 l 531 794 l 531 725 l 608 725 l 413 467 l 271 467 l 271 794 l 83 794 l 83 725 z "},"Ĺ":{"ha":704,"x_min":97,"x_max":690,"o":"m 97 944 l 181 944 l 181 69 l 97 69 l 97 0 l 690 0 l 690 219 l 613 219 l 613 82 l 281 82 l 281 944 l 392 944 l 392 1014 l 97 1014 l 97 944 m 169 1086 l 408 1294 l 335 1368 l 111 1144 l 169 1086 z "},"ĺ":{"ha":431,"x_min":67,"x_max":364,"o":"m 83 972 l 167 972 l 167 69 l 83 69 l 83 0 l 347 0 l 347 69 l 264 69 l 264 1042 l 83 1042 l 83 972 m 125 1086 l 364 1294 l 290 1368 l 67 1144 l 125 1086 z "},"Ļ":{"ha":704,"x_min":97,"x_max":690,"o":"m 97 944 l 181 944 l 181 69 l 97 69 l 97 0 l 690 0 l 690 219 l 613 219 l 613 82 l 281 82 l 281 944 l 392 944 l 392 1014 l 97 1014 l 97 944 m 364 -114 q 372 -169 364 -135 q 379 -221 379 -203 q 342 -314 379 -269 l 372 -346 q 450 -250 415 -310 q 485 -121 485 -190 q 424 -49 485 -49 q 364 -114 364 -49 z "},"ļ":{"ha":431,"x_min":83,"x_max":347,"o":"m 83 972 l 167 972 l 167 69 l 83 69 l 83 0 l 347 0 l 347 69 l 264 69 l 264 1042 l 83 1042 l 83 972 m 172 -114 q 180 -169 172 -135 q 188 -221 188 -203 q 150 -314 188 -269 l 181 -346 q 258 -250 224 -310 q 293 -121 293 -190 q 232 -49 293 -49 q 172 -114 172 -49 z "},"Ľ":{"ha":704,"x_min":97,"x_max":690,"o":"m 97 944 l 181 944 l 181 69 l 97 69 l 97 0 l 690 0 l 690 219 l 613 219 l 613 82 l 281 82 l 281 944 l 392 944 l 392 1014 l 97 1014 l 97 944 m 508 1024 q 516 969 508 1003 q 524 917 524 935 q 486 824 524 868 l 517 792 q 594 888 560 828 q 629 1017 629 947 q 568 1089 629 1089 q 508 1024 508 1089 z "},"ľ":{"ha":476,"x_min":83,"x_max":476,"o":"m 83 972 l 167 972 l 167 69 l 83 69 l 83 0 l 347 0 l 347 69 l 264 69 l 264 1042 l 83 1042 l 83 972 m 356 1024 q 363 969 356 1003 q 371 917 371 935 q 333 824 371 868 l 364 792 q 442 888 407 828 q 476 1017 476 947 q 415 1089 476 1089 q 356 1024 356 1089 z "},"Ŀ":{"ha":704,"x_min":97,"x_max":690,"o":"m 97 0 l 690 0 l 690 219 l 613 219 l 613 82 l 281 82 l 281 944 l 392 944 l 392 1014 l 97 1014 l 97 944 l 181 944 l 181 69 l 97 69 l 97 0 m 485 426 q 540 448 528 426 q 553 507 553 469 q 551 537 553 525 q 542 562 549 549 q 522 582 536 575 q 485 589 507 589 q 432 567 444 589 q 419 507 419 544 q 422 469 419 483 q 441 440 425 454 q 485 426 457 426 z "},"ŀ":{"ha":460,"x_min":83,"x_max":494,"o":"m 83 972 l 167 972 l 167 69 l 83 69 l 83 0 l 347 0 l 347 69 l 264 69 l 264 1042 l 83 1042 l 83 972 m 426 426 q 482 448 469 426 q 494 507 494 469 q 492 537 494 525 q 484 562 490 549 q 463 582 478 575 q 426 589 449 589 q 374 567 386 589 q 361 507 361 544 q 364 469 361 483 q 383 440 367 454 q 426 426 399 426 z "},"Ł":{"ha":704,"x_min":57,"x_max":690,"o":"m 97 944 l 181 944 l 181 544 l 57 496 l 57 419 l 181 468 l 181 69 l 97 69 l 97 0 l 690 0 l 690 219 l 613 219 l 613 82 l 281 82 l 281 508 l 404 558 l 404 635 l 281 585 l 281 944 l 392 944 l 392 1014 l 97 1014 l 97 944 z "},"ł":{"ha":431,"x_min":42,"x_max":389,"o":"m 83 972 l 167 972 l 167 546 l 42 496 l 42 419 l 167 469 l 167 69 l 83 69 l 83 0 l 347 0 l 347 69 l 264 69 l 264 508 l 389 558 l 389 635 l 264 585 l 264 1042 l 83 1042 l 83 972 z "},"Ń":{"ha":1069,"x_min":97,"x_max":986,"o":"m 719 944 l 803 944 l 803 165 l 292 1014 l 97 1014 l 97 944 l 181 944 l 181 69 l 97 69 l 97 0 l 364 0 l 364 69 l 281 69 l 281 847 l 792 0 l 903 0 l 903 944 l 986 944 l 986 1014 l 719 1014 l 719 944 m 486 1086 l 725 1294 l 651 1368 l 428 1144 l 486 1086 z "},"ń":{"ha":960,"x_min":97,"x_max":876,"o":"m 97 725 l 181 725 l 181 69 l 97 69 l 97 0 l 361 0 l 361 69 l 278 69 l 278 629 q 549 732 407 732 q 662 693 628 732 q 696 567 696 654 l 696 69 l 613 69 l 613 0 l 876 0 l 876 69 l 793 69 l 793 565 q 740 753 793 693 q 564 814 686 814 q 269 706 410 814 l 246 794 l 97 794 l 97 725 m 417 867 l 656 1075 l 582 1149 l 358 925 l 417 867 z "},"Ņ":{"ha":1069,"x_min":97,"x_max":986,"o":"m 719 944 l 803 944 l 803 165 l 292 1014 l 97 1014 l 97 944 l 181 944 l 181 69 l 97 69 l 97 0 l 364 0 l 364 69 l 281 69 l 281 847 l 792 0 l 903 0 l 903 944 l 986 944 l 986 1014 l 719 1014 l 719 944 m 492 -114 q 499 -169 492 -135 q 507 -221 507 -203 q 469 -314 507 -269 l 500 -346 q 578 -250 543 -310 q 613 -121 613 -190 q 551 -49 613 -49 q 492 -114 492 -49 z "},"ņ":{"ha":960,"x_min":97,"x_max":876,"o":"m 97 725 l 181 725 l 181 69 l 97 69 l 97 0 l 361 0 l 361 69 l 278 69 l 278 629 q 549 732 407 732 q 662 693 628 732 q 696 567 696 654 l 696 69 l 613 69 l 613 0 l 876 0 l 876 69 l 793 69 l 793 565 q 740 753 793 693 q 564 814 686 814 q 269 706 410 814 l 246 794 l 97 794 l 97 725 m 436 -114 q 444 -169 436 -135 q 451 -221 451 -203 q 414 -314 451 -269 l 444 -346 q 522 -250 488 -310 q 557 -121 557 -190 q 496 -49 557 -49 q 436 -114 436 -49 z "},"Ň":{"ha":1069,"x_min":97,"x_max":986,"o":"m 719 944 l 803 944 l 803 165 l 292 1014 l 97 1014 l 97 944 l 181 944 l 181 69 l 97 69 l 97 0 l 364 0 l 364 69 l 281 69 l 281 847 l 792 0 l 903 0 l 903 944 l 986 944 l 986 1014 l 719 1014 l 719 944 m 686 1368 l 536 1215 l 385 1368 l 326 1310 l 515 1094 l 556 1094 l 744 1310 l 686 1368 z "},"ň":{"ha":960,"x_min":97,"x_max":876,"o":"m 97 725 l 181 725 l 181 69 l 97 69 l 97 0 l 361 0 l 361 69 l 278 69 l 278 629 q 549 732 407 732 q 662 693 628 732 q 696 567 696 654 l 696 69 l 613 69 l 613 0 l 876 0 l 876 69 l 793 69 l 793 565 q 740 753 793 693 q 564 814 686 814 q 269 706 410 814 l 246 794 l 97 794 l 97 725 m 631 1149 l 481 996 l 329 1149 l 271 1090 l 460 875 l 500 875 l 689 1090 l 631 1149 z "},"ŉ":{"ha":1082,"x_min":49,"x_max":999,"o":"m 219 725 l 303 725 l 303 69 l 219 69 l 219 0 l 483 0 l 483 69 l 400 69 l 400 629 q 671 732 529 732 q 784 693 750 732 q 818 567 818 654 l 818 69 l 735 69 l 735 0 l 999 0 l 999 69 l 915 69 l 915 565 q 862 753 915 693 q 686 814 808 814 q 392 706 532 814 l 368 794 l 219 794 l 219 725 m 71 968 q 78 913 71 947 q 86 861 86 879 q 49 768 86 813 l 79 736 q 157 832 122 772 q 192 961 192 892 q 131 1033 192 1033 q 71 968 71 1033 z "},"Ŋ":{"ha":1069,"x_min":97,"x_max":986,"o":"m 719 944 l 803 944 l 803 165 l 292 1014 l 97 1014 l 97 944 l 181 944 l 181 69 l 97 69 l 97 0 l 364 0 l 364 69 l 281 69 l 281 847 l 806 -24 l 806 -108 q 787 -200 806 -174 q 710 -232 768 -226 l 625 -239 l 625 -315 l 710 -315 q 865 -266 828 -315 q 903 -108 903 -217 l 903 944 l 986 944 l 986 1014 l 719 1014 l 719 944 z "},"ŋ":{"ha":960,"x_min":97,"x_max":793,"o":"m 97 725 l 181 725 l 181 69 l 97 69 l 97 0 l 361 0 l 361 69 l 278 69 l 278 629 q 549 732 407 732 q 662 693 628 732 q 696 567 696 654 l 696 -108 q 677 -200 696 -174 q 600 -232 658 -226 l 515 -239 l 515 -315 l 600 -315 q 756 -266 718 -315 q 793 -108 793 -217 l 793 565 q 740 753 793 693 q 564 814 686 814 q 269 706 410 814 l 246 794 l 97 794 l 97 725 z "},"Ō":{"ha":951,"x_min":83,"x_max":868,"o":"m 475 -19 q 651 5 579 -19 q 766 69 724 29 q 831 181 808 110 q 861 324 854 251 q 868 507 868 397 q 861 689 868 617 q 831 832 854 761 q 766 943 808 903 q 651 1008 724 983 q 475 1033 579 1033 q 323 1018 388 1033 q 216 969 258 1003 q 147 894 174 935 q 106 788 119 853 q 88 660 93 722 q 83 507 83 597 q 90 324 83 396 q 119 181 97 253 q 184 69 142 110 q 299 5 226 29 q 475 -19 371 -19 m 475 64 q 362 77 410 64 q 282 119 314 90 q 230 182 250 147 q 200 272 210 217 q 187 378 190 326 q 183 507 183 431 q 187 635 183 583 q 200 742 190 688 q 230 832 210 797 q 282 895 250 867 q 362 937 314 924 q 475 950 410 950 q 606 929 553 950 q 692 874 660 908 q 741 780 724 840 q 763 659 758 719 q 768 507 768 599 q 763 355 768 415 q 741 234 758 294 q 692 140 724 174 q 606 85 660 106 q 475 64 553 64 m 299 1183 l 651 1183 l 651 1274 l 299 1274 l 299 1183 z "},"ō":{"ha":844,"x_min":83,"x_max":761,"o":"m 422 63 q 309 83 356 63 q 238 131 263 103 q 200 209 214 160 q 183 298 186 258 q 181 397 181 338 q 183 497 181 457 q 200 585 186 536 q 238 663 214 635 q 309 712 263 692 q 422 732 356 732 q 535 712 489 732 q 606 663 582 692 q 644 585 631 635 q 661 497 658 536 q 664 397 664 457 q 661 298 664 338 q 644 209 658 258 q 606 131 631 160 q 535 83 582 103 q 422 63 489 63 m 422 -19 q 537 -7 486 -19 q 623 26 588 6 q 684 78 658 46 q 724 143 710 110 q 747 222 739 176 q 758 306 756 267 q 761 397 761 346 q 758 488 761 449 q 747 573 756 528 q 724 651 739 618 q 684 717 710 685 q 623 769 658 749 q 537 801 588 789 q 422 814 486 814 q 308 801 358 814 q 222 769 257 789 q 160 717 186 749 q 120 651 135 685 q 97 573 106 618 q 86 488 89 528 q 83 397 83 449 q 86 306 83 346 q 97 222 89 267 q 120 143 106 176 q 160 78 135 110 q 222 26 186 46 q 308 -7 257 6 q 422 -19 358 -19 m 246 964 l 599 964 l 599 1054 l 246 1054 l 246 964 z "},"Ŏ":{"ha":951,"x_min":83,"x_max":868,"o":"m 475 -19 q 651 5 579 -19 q 766 69 724 29 q 831 181 808 110 q 861 324 854 251 q 868 507 868 397 q 861 689 868 617 q 831 832 854 761 q 766 943 808 903 q 651 1008 724 983 q 475 1033 579 1033 q 323 1018 388 1033 q 216 969 258 1003 q 147 894 174 935 q 106 788 119 853 q 88 660 93 722 q 83 507 83 597 q 90 324 83 396 q 119 181 97 253 q 184 69 142 110 q 299 5 226 29 q 475 -19 371 -19 m 475 64 q 362 77 410 64 q 282 119 314 90 q 230 182 250 147 q 200 272 210 217 q 187 378 190 326 q 183 507 183 431 q 187 635 183 583 q 200 742 190 688 q 230 832 210 797 q 282 895 250 867 q 362 937 314 924 q 475 950 410 950 q 606 929 553 950 q 692 874 660 908 q 741 780 724 840 q 763 659 758 719 q 768 507 768 599 q 763 355 768 415 q 741 234 758 294 q 692 140 724 174 q 606 85 660 106 q 475 64 553 64 m 650 1301 q 647 1244 650 1268 q 633 1194 644 1221 q 604 1151 622 1168 q 553 1124 586 1135 q 475 1114 521 1114 q 383 1128 419 1114 q 329 1172 346 1143 q 307 1231 313 1201 q 301 1301 301 1260 l 378 1301 q 382 1249 378 1268 q 409 1215 386 1231 q 475 1199 432 1199 q 541 1215 518 1199 q 568 1249 564 1231 q 572 1301 572 1268 l 650 1301 z "},"ŏ":{"ha":844,"x_min":83,"x_max":761,"o":"m 422 63 q 309 83 356 63 q 238 131 263 103 q 200 209 214 160 q 183 298 186 258 q 181 397 181 338 q 183 497 181 457 q 200 585 186 536 q 238 663 214 635 q 309 712 263 692 q 422 732 356 732 q 535 712 489 732 q 606 663 582 692 q 644 585 631 635 q 661 497 658 536 q 664 397 664 457 q 661 298 664 338 q 644 209 658 258 q 606 131 631 160 q 535 83 582 103 q 422 63 489 63 m 422 -19 q 537 -7 486 -19 q 623 26 588 6 q 684 78 658 46 q 724 143 710 110 q 747 222 739 176 q 758 306 756 267 q 761 397 761 346 q 758 488 761 449 q 747 573 756 528 q 724 651 739 618 q 684 717 710 685 q 623 769 658 749 q 537 801 588 789 q 422 814 486 814 q 308 801 358 814 q 222 769 257 789 q 160 717 186 749 q 120 651 135 685 q 97 573 106 618 q 86 488 89 528 q 83 397 83 449 q 86 306 83 346 q 97 222 89 267 q 120 143 106 176 q 160 78 135 110 q 222 26 186 46 q 308 -7 257 6 q 422 -19 358 -19 m 597 1082 q 594 1025 597 1049 q 581 975 592 1001 q 551 932 569 949 q 501 905 533 915 q 422 894 468 894 q 330 909 367 894 q 276 953 293 924 q 254 1011 260 982 q 249 1082 249 1040 l 325 1082 q 329 1030 325 1049 q 356 995 333 1011 q 422 979 379 979 q 488 995 465 979 q 515 1030 511 1011 q 519 1082 519 1049 l 597 1082 z "},"Ő":{"ha":951,"x_min":83,"x_max":868,"o":"m 475 -19 q 651 5 579 -19 q 766 69 724 29 q 831 181 808 110 q 861 324 854 251 q 868 507 868 397 q 861 689 868 617 q 831 832 854 761 q 766 943 808 903 q 651 1008 724 983 q 475 1033 579 1033 q 323 1018 388 1033 q 216 969 258 1003 q 147 894 174 935 q 106 788 119 853 q 88 660 93 722 q 83 507 83 597 q 90 324 83 396 q 119 181 97 253 q 184 69 142 110 q 299 5 226 29 q 475 -19 371 -19 m 475 64 q 362 77 410 64 q 282 119 314 90 q 230 182 250 147 q 200 272 210 217 q 187 378 190 326 q 183 507 183 431 q 187 635 183 583 q 200 742 190 688 q 230 832 210 797 q 282 895 250 867 q 362 937 314 924 q 475 950 410 950 q 606 929 553 950 q 692 874 660 908 q 741 780 724 840 q 763 659 758 719 q 768 507 768 599 q 763 355 768 415 q 741 234 758 294 q 692 140 724 174 q 606 85 660 106 q 475 64 553 64 m 265 1086 l 504 1294 l 431 1368 l 207 1144 l 265 1086 m 589 1086 l 828 1294 l 754 1368 l 531 1144 l 589 1086 z "},"ő":{"ha":713,"x_min":17,"x_max":722,"o":"m 356 63 q 242 83 289 63 q 172 131 196 103 q 133 209 147 160 q 117 298 119 258 q 114 397 114 338 q 117 497 114 457 q 133 585 119 536 q 172 663 147 635 q 242 712 196 692 q 356 732 289 732 q 469 712 422 732 q 540 663 515 692 q 578 585 564 635 q 594 497 592 536 q 597 397 597 457 q 594 298 597 338 q 578 209 592 258 q 540 131 564 160 q 469 83 515 103 q 356 63 422 63 m 356 -19 q 470 -7 419 -19 q 556 26 521 6 q 617 78 592 46 q 658 143 643 110 q 681 222 672 176 q 692 306 689 267 q 694 397 694 346 q 692 488 694 449 q 681 573 689 528 q 658 651 672 618 q 617 717 643 685 q 556 769 592 749 q 470 801 521 789 q 356 814 419 814 q 241 801 292 814 q 155 769 190 789 q 94 717 119 749 q 53 651 68 685 q 31 573 39 618 q 19 488 22 528 q 17 397 17 449 q 19 306 17 346 q 31 222 22 267 q 53 143 39 176 q 94 78 68 110 q 155 26 119 46 q 241 -7 190 6 q 356 -19 292 -19 m 160 867 l 399 1075 l 325 1149 l 101 925 l 160 867 m 483 867 l 722 1075 l 649 1149 l 425 925 l 483 867 z "},"Œ":{"ha":1407,"x_min":83,"x_max":1324,"o":"m 1296 794 l 1296 1014 l 468 1014 q 294 990 365 1014 q 183 927 224 965 q 119 820 142 889 q 90 682 96 751 q 83 507 83 613 q 90 331 83 400 q 119 193 96 263 q 183 85 142 124 q 294 24 224 47 q 468 0 365 0 l 1324 0 l 1324 219 l 1246 219 l 1246 82 l 747 82 q 829 231 807 138 q 854 474 851 325 l 1226 474 l 1226 557 l 854 557 q 828 787 851 696 q 747 932 806 878 l 1218 932 l 1218 794 l 1296 794 m 468 932 l 486 932 q 606 908 557 929 q 684 853 656 886 q 728 764 713 821 q 749 650 744 707 q 754 507 754 593 q 749 364 754 421 q 728 250 744 307 q 684 160 713 193 q 606 105 656 126 q 486 82 557 83 l 468 82 q 340 102 393 82 q 257 155 288 122 q 210 245 226 188 q 188 360 193 303 q 183 507 183 418 q 188 653 183 596 q 210 769 193 711 q 257 859 226 826 q 340 912 288 892 q 468 932 393 932 z "},"œ":{"ha":1371,"x_min":83,"x_max":1288,"o":"m 969 -19 q 1119 1 1058 -19 q 1210 62 1179 22 q 1256 144 1242 101 q 1275 246 1269 186 l 1194 250 q 1139 110 1186 158 q 967 63 1092 63 q 783 134 829 63 q 735 375 736 206 l 1288 375 l 1288 397 q 1282 524 1288 471 q 1257 636 1276 578 q 1203 731 1238 694 q 1109 790 1169 767 q 964 814 1049 814 q 699 699 775 814 q 422 814 618 814 q 308 801 358 814 q 222 769 257 789 q 160 717 186 749 q 120 651 135 685 q 97 573 106 618 q 86 488 89 528 q 83 397 83 449 q 86 306 83 346 q 97 222 89 267 q 120 143 106 176 q 160 78 135 110 q 222 26 186 46 q 308 -7 257 6 q 422 -19 358 -19 q 696 93 619 -19 q 969 -19 769 -19 m 422 63 q 309 83 356 63 q 238 131 263 103 q 200 209 214 160 q 183 298 186 258 q 181 397 181 338 q 183 497 181 457 q 200 585 186 536 q 238 663 214 635 q 309 712 263 692 q 422 732 356 732 q 585 687 528 732 q 650 568 642 642 q 638 397 638 499 q 649 225 638 292 q 585 107 642 151 q 422 63 528 63 m 963 732 q 1080 711 1033 732 q 1149 648 1126 690 q 1179 561 1171 606 q 1189 451 1188 517 l 735 451 q 745 558 736 514 q 777 645 754 603 q 847 710 800 688 q 963 732 893 732 z "},"Ŕ":{"ha":915,"x_min":97,"x_max":874,"o":"m 390 424 q 506 405 465 424 q 571 329 546 386 l 711 0 l 874 0 l 874 69 l 788 69 l 668 346 q 600 438 639 410 q 694 479 657 451 q 748 547 731 507 q 771 626 765 588 q 776 718 776 665 q 772 808 776 771 q 749 888 767 846 q 699 955 731 929 q 609 997 667 981 q 472 1014 551 1014 l 181 1014 l 97 1014 l 97 944 l 181 944 l 181 69 l 97 69 l 97 0 l 364 0 l 364 69 l 281 69 l 281 424 l 390 424 m 281 506 l 281 932 l 472 932 q 582 916 539 932 q 644 868 625 900 q 670 803 664 836 q 676 718 676 769 q 670 635 676 668 q 644 569 664 601 q 582 522 625 538 q 472 506 539 506 l 281 506 m 381 1086 l 619 1294 l 546 1368 l 322 1144 l 381 1086 z "},"ŕ":{"ha":582,"x_min":97,"x_max":568,"o":"m 246 794 l 181 794 l 97 794 l 97 725 l 181 725 l 181 69 l 97 69 l 97 0 l 389 0 l 389 69 l 278 69 l 278 540 q 568 721 372 714 l 568 814 q 276 642 374 807 l 246 794 m 228 867 l 467 1075 l 393 1149 l 169 925 l 228 867 z "},"Ŗ":{"ha":915,"x_min":97,"x_max":874,"o":"m 390 424 q 506 405 465 424 q 571 329 546 386 l 711 0 l 874 0 l 874 69 l 788 69 l 668 346 q 600 438 639 410 q 694 479 657 451 q 748 547 731 507 q 771 626 765 588 q 776 718 776 665 q 772 808 776 771 q 749 888 767 846 q 699 955 731 929 q 609 997 667 981 q 472 1014 551 1014 l 181 1014 l 97 1014 l 97 944 l 181 944 l 181 69 l 97 69 l 97 0 l 364 0 l 364 69 l 281 69 l 281 424 l 390 424 m 281 506 l 281 932 l 472 932 q 582 916 539 932 q 644 868 625 900 q 670 803 664 836 q 676 718 676 769 q 670 635 676 668 q 644 569 664 601 q 582 522 625 538 q 472 506 539 506 l 281 506 m 414 -114 q 422 -169 414 -135 q 429 -221 429 -203 q 392 -314 429 -269 l 422 -346 q 500 -250 465 -310 q 535 -121 535 -190 q 474 -49 535 -49 q 414 -114 414 -49 z "},"ŗ":{"ha":582,"x_min":97,"x_max":568,"o":"m 246 794 l 181 794 l 97 794 l 97 725 l 181 725 l 181 69 l 97 69 l 97 0 l 389 0 l 389 69 l 278 69 l 278 540 q 568 721 372 714 l 568 814 q 276 642 374 807 l 246 794 m 175 -114 q 183 -169 175 -135 q 190 -221 190 -203 q 153 -314 190 -269 l 183 -346 q 261 -250 226 -310 q 296 -121 296 -190 q 235 -49 296 -49 q 175 -114 175 -49 z "},"Ř":{"ha":915,"x_min":97,"x_max":874,"o":"m 390 424 q 506 405 465 424 q 571 329 546 386 l 711 0 l 874 0 l 874 69 l 788 69 l 668 346 q 600 438 639 410 q 694 479 657 451 q 748 547 731 507 q 771 626 765 588 q 776 718 776 665 q 772 808 776 771 q 749 888 767 846 q 699 955 731 929 q 609 997 667 981 q 472 1014 551 1014 l 181 1014 l 97 1014 l 97 944 l 181 944 l 181 69 l 97 69 l 97 0 l 364 0 l 364 69 l 281 69 l 281 424 l 390 424 m 281 506 l 281 932 l 472 932 q 582 916 539 932 q 644 868 625 900 q 670 803 664 836 q 676 718 676 769 q 670 635 676 668 q 644 569 664 601 q 582 522 625 538 q 472 506 539 506 l 281 506 m 608 1368 l 458 1215 l 307 1368 l 249 1310 l 438 1094 l 478 1094 l 667 1310 l 608 1368 z "},"ř":{"ha":582,"x_min":97,"x_max":568,"o":"m 246 794 l 181 794 l 97 794 l 97 725 l 181 725 l 181 69 l 97 69 l 97 0 l 389 0 l 389 69 l 278 69 l 278 540 q 568 721 372 714 l 568 814 q 276 642 374 807 l 246 794 m 469 1149 l 319 996 l 168 1149 l 110 1090 l 299 875 l 339 875 l 528 1090 l 469 1149 z "},"Ś":{"ha":800,"x_min":65,"x_max":738,"o":"m 140 0 l 140 119 q 419 -19 225 -19 q 666 53 594 -19 q 738 267 738 125 q 678 453 738 396 q 465 540 618 511 l 342 564 q 207 619 239 583 q 175 742 175 656 q 221 899 175 847 q 393 950 267 950 q 638 767 610 950 l 713 767 l 713 1014 l 638 1014 l 638 906 q 372 1033 563 1033 q 142 958 208 1033 q 75 740 75 883 q 131 554 75 610 q 338 469 188 499 l 463 446 q 600 388 563 426 q 638 253 638 349 q 585 111 638 158 q 406 64 533 64 q 208 130 274 64 q 140 300 143 196 l 65 300 l 65 0 l 140 0 m 351 1086 l 590 1294 l 517 1368 l 293 1144 l 351 1086 z "},"ś":{"ha":789,"x_min":101,"x_max":692,"o":"m 590 794 l 592 714 q 363 814 528 814 q 167 753 233 814 q 101 594 101 693 q 157 444 101 490 q 342 364 213 397 l 450 335 q 563 283 531 314 q 594 203 594 253 q 406 63 594 63 q 168 281 192 63 l 104 281 l 104 0 l 175 0 l 172 103 q 418 -19 244 -19 q 692 203 692 -19 q 637 348 692 301 q 454 429 582 394 l 346 458 q 231 509 264 479 q 199 596 199 539 q 238 694 199 657 q 363 732 278 732 q 463 724 425 732 q 531 694 500 717 q 576 628 561 671 q 597 514 592 585 l 661 514 l 661 794 l 590 794 m 318 867 l 557 1075 l 483 1149 l 260 925 l 318 867 z "},"Ŝ":{"ha":800,"x_min":65,"x_max":738,"o":"m 140 0 l 140 119 q 419 -19 225 -19 q 666 53 594 -19 q 738 267 738 125 q 678 453 738 396 q 465 540 618 511 l 342 564 q 207 619 239 583 q 175 742 175 656 q 221 899 175 847 q 393 950 267 950 q 638 767 610 950 l 713 767 l 713 1014 l 638 1014 l 638 906 q 372 1033 563 1033 q 142 958 208 1033 q 75 740 75 883 q 131 554 75 610 q 338 469 188 499 l 463 446 q 600 388 563 426 q 638 253 638 349 q 585 111 638 158 q 406 64 533 64 q 208 130 274 64 q 140 300 143 196 l 65 300 l 65 0 l 140 0 m 264 1086 l 414 1239 l 565 1086 l 624 1144 l 435 1360 l 394 1360 l 206 1144 l 264 1086 z "},"ŝ":{"ha":789,"x_min":101,"x_max":692,"o":"m 590 794 l 592 714 q 363 814 528 814 q 167 753 233 814 q 101 594 101 693 q 157 444 101 490 q 342 364 213 397 l 450 335 q 563 283 531 314 q 594 203 594 253 q 406 63 594 63 q 168 281 192 63 l 104 281 l 104 0 l 175 0 l 172 103 q 418 -19 244 -19 q 692 203 692 -19 q 637 348 692 301 q 454 429 582 394 l 346 458 q 231 509 264 479 q 199 596 199 539 q 238 694 199 657 q 363 732 278 732 q 463 724 425 732 q 531 694 500 717 q 576 628 561 671 q 597 514 592 585 l 661 514 l 661 794 l 590 794 m 244 867 l 394 1019 l 546 867 l 604 925 l 415 1140 l 375 1140 l 186 925 l 244 867 z "},"Ş":{"ha":800,"x_min":65,"x_max":738,"o":"m 140 0 l 140 119 q 340 -12 207 11 l 322 -119 l 397 -133 q 449 -155 435 -140 q 463 -203 463 -169 q 452 -251 463 -236 q 404 -265 442 -265 q 356 -251 367 -265 q 346 -203 346 -236 l 263 -203 q 292 -301 263 -268 q 400 -335 322 -335 q 509 -301 479 -335 q 539 -201 539 -268 q 504 -103 539 -129 q 397 -76 469 -78 l 407 -19 l 419 -19 q 666 53 594 -19 q 738 267 738 125 q 678 453 738 396 q 465 540 618 511 l 342 564 q 207 619 239 583 q 175 742 175 656 q 221 899 175 847 q 393 950 267 950 q 638 767 610 950 l 713 767 l 713 1014 l 638 1014 l 638 906 q 372 1033 563 1033 q 142 958 208 1033 q 75 740 75 883 q 131 554 75 610 q 338 469 188 499 l 463 446 q 600 388 563 426 q 638 253 638 349 q 585 111 638 158 q 406 64 533 64 q 208 130 274 64 q 140 300 143 196 l 65 300 l 65 0 l 140 0 z "},"ş":{"ha":789,"x_min":101,"x_max":692,"o":"m 590 794 l 592 714 q 363 814 528 814 q 167 753 233 814 q 101 594 101 693 q 157 444 101 490 q 342 364 213 397 l 450 335 q 563 283 531 314 q 594 203 594 253 q 406 63 594 63 q 168 281 192 63 l 104 281 l 104 0 l 175 0 l 172 103 q 335 -11 225 13 l 317 -119 l 392 -133 q 443 -155 429 -140 q 457 -203 457 -169 q 447 -251 457 -236 q 399 -265 436 -265 q 351 -251 361 -265 q 340 -203 340 -236 l 257 -203 q 287 -301 257 -268 q 394 -335 317 -335 q 503 -301 474 -335 q 533 -201 533 -268 q 499 -103 533 -129 q 392 -76 464 -78 l 401 -19 l 418 -19 q 692 203 692 -19 q 637 348 692 301 q 454 429 582 394 l 346 458 q 231 509 264 479 q 199 596 199 539 q 238 694 199 657 q 363 732 278 732 q 463 724 425 732 q 531 694 500 717 q 576 628 561 671 q 597 514 592 585 l 661 514 l 661 794 l 590 794 z "},"Š":{"ha":858,"x_min":96,"x_max":768,"o":"m 171 0 l 171 119 q 450 -19 256 -19 q 697 53 625 -19 q 768 267 768 125 q 708 453 768 396 q 496 540 649 511 l 372 564 q 238 619 269 583 q 206 742 206 656 q 251 899 206 847 q 424 950 297 950 q 668 767 640 950 l 743 767 l 743 1014 l 668 1014 l 668 906 q 403 1033 593 1033 q 172 958 239 1033 q 106 740 106 883 q 162 554 106 610 q 368 469 218 499 l 493 446 q 631 388 593 426 q 668 253 668 349 q 616 111 668 158 q 436 64 564 64 q 239 130 304 64 q 171 300 174 196 l 96 300 l 96 0 l 171 0 m 579 1368 l 429 1215 l 278 1368 l 219 1310 l 408 1094 l 449 1094 l 638 1310 l 579 1368 z "},"š":{"ha":789,"x_min":101,"x_max":692,"o":"m 590 794 l 592 714 q 363 814 528 814 q 167 753 233 814 q 101 594 101 693 q 157 444 101 490 q 342 364 213 397 l 450 335 q 563 283 531 314 q 594 203 594 253 q 406 63 594 63 q 168 281 192 63 l 104 281 l 104 0 l 175 0 l 172 103 q 418 -19 244 -19 q 692 203 692 -19 q 637 348 692 301 q 454 429 582 394 l 346 458 q 231 509 264 479 q 199 596 199 539 q 238 694 199 657 q 363 732 278 732 q 463 724 425 732 q 531 694 500 717 q 576 628 561 671 q 597 514 592 585 l 661 514 l 661 794 l 590 794 m 547 1149 l 397 996 l 246 1149 l 188 1090 l 376 875 l 417 875 l 606 1090 l 547 1149 z "},"Ţ":{"ha":747,"x_min":14,"x_max":733,"o":"m 92 794 l 92 932 l 324 932 l 324 69 l 213 69 l 213 0 l 331 0 l 310 -119 l 385 -133 q 436 -155 422 -140 q 450 -203 450 -169 q 440 -251 450 -236 q 392 -265 429 -265 q 344 -251 354 -265 q 333 -203 333 -236 l 250 -203 q 280 -301 250 -268 q 388 -335 310 -335 q 497 -301 467 -335 q 526 -201 526 -268 q 492 -103 526 -129 q 385 -76 457 -78 l 399 0 l 535 0 l 535 69 l 424 69 l 424 932 l 656 932 l 656 794 l 733 794 l 733 1014 l 14 1014 l 14 794 l 92 794 z "},"ţ":{"ha":504,"x_min":49,"x_max":435,"o":"m 49 725 l 174 725 l 174 174 q 185 65 174 108 q 232 0 196 22 l 194 0 l 174 -119 l 249 -133 q 300 -155 286 -140 q 314 -203 314 -169 q 303 -251 314 -236 q 256 -265 293 -265 q 208 -251 218 -265 q 197 -203 197 -236 l 114 -203 q 144 -301 114 -268 q 251 -335 174 -335 q 360 -301 331 -335 q 390 -201 390 -268 q 356 -103 390 -129 q 249 -76 321 -78 l 260 -11 q 315 -19 283 -19 q 435 0 365 -19 l 422 68 q 346 57 374 57 q 288 83 306 57 q 271 174 271 110 l 271 725 l 417 725 l 417 794 l 271 794 l 271 972 l 174 953 l 174 794 l 49 794 l 49 725 z "},"Ť":{"ha":747,"x_min":14,"x_max":733,"o":"m 92 794 l 92 932 l 324 932 l 324 69 l 213 69 l 213 0 l 535 0 l 535 69 l 424 69 l 424 932 l 656 932 l 656 794 l 733 794 l 733 1014 l 14 1014 l 14 794 l 92 794 m 525 1368 l 375 1215 l 224 1368 l 165 1310 l 354 1094 l 394 1094 l 583 1310 l 525 1368 z "},"ť":{"ha":504,"x_min":49,"x_max":483,"o":"m 49 725 l 174 725 l 174 174 q 176 115 174 139 q 186 64 178 92 q 209 19 194 36 q 251 -8 224 3 q 315 -19 278 -19 q 435 0 365 -19 l 422 68 q 346 57 374 57 q 288 83 306 57 q 271 174 271 110 l 271 725 l 417 725 l 417 794 l 271 794 l 271 972 l 174 953 l 174 794 l 49 794 l 49 725 m 363 1079 q 370 1024 363 1058 q 378 972 378 990 q 340 879 378 924 l 371 847 q 449 943 414 883 q 483 1072 483 1003 q 422 1144 483 1144 q 363 1079 363 1144 z "},"Ŧ":{"ha":747,"x_min":14,"x_max":733,"o":"m 639 440 l 639 510 l 424 510 l 424 932 l 656 932 l 656 794 l 733 794 l 733 1014 l 14 1014 l 14 794 l 92 794 l 92 932 l 324 932 l 324 510 l 108 510 l 108 440 l 324 440 l 324 69 l 213 69 l 213 0 l 535 0 l 535 69 l 424 69 l 424 440 l 639 440 z "},"ŧ":{"ha":504,"x_min":36,"x_max":435,"o":"m 49 725 l 174 725 l 174 440 l 36 440 l 36 371 l 174 371 l 174 174 q 176 115 174 139 q 186 64 178 92 q 209 19 194 36 q 251 -8 224 3 q 315 -19 278 -19 q 435 0 365 -19 l 422 68 q 346 57 374 57 q 288 83 306 57 q 271 174 271 110 l 271 371 l 413 371 l 413 440 l 271 440 l 271 725 l 417 725 l 417 794 l 271 794 l 271 972 l 174 953 l 174 794 l 49 794 l 49 725 z "},"Ũ":{"ha":1042,"x_min":76,"x_max":965,"o":"m 76 944 l 160 944 l 160 335 q 181 175 160 242 q 233 72 201 108 q 314 13 264 35 q 410 -14 364 -8 q 519 -19 456 -19 q 630 -14 583 -19 q 727 13 676 -8 q 809 72 778 35 q 861 175 840 108 q 882 335 882 242 l 882 944 l 965 944 l 965 1014 l 699 1014 l 699 944 l 782 944 l 782 335 q 761 192 782 249 q 700 109 740 135 q 619 74 660 83 q 519 65 578 65 q 422 74 463 65 q 341 109 381 83 q 281 192 301 135 q 260 335 260 249 l 260 944 l 343 944 l 343 1014 l 76 1014 l 76 944 m 622 1160 q 744 1289 707 1160 l 675 1311 q 650 1264 664 1278 q 611 1250 636 1250 q 524 1275 592 1250 q 419 1300 456 1300 q 297 1171 335 1300 l 368 1149 q 393 1196 379 1182 q 432 1210 407 1210 q 518 1185 450 1210 q 622 1160 586 1160 z "},"ũ":{"ha":967,"x_min":83,"x_max":883,"o":"m 167 794 l 83 794 l 83 725 l 167 725 l 167 226 q 219 39 167 97 q 401 -19 271 -19 q 707 101 561 -19 l 735 0 l 883 0 l 883 69 l 800 69 l 800 794 l 703 794 l 619 794 l 619 725 l 703 725 l 703 183 q 422 63 571 63 q 299 101 335 63 q 264 228 264 139 l 264 794 l 167 794 m 585 940 q 707 1069 669 940 l 638 1092 q 613 1044 626 1058 q 574 1031 599 1031 q 486 1056 556 1031 q 382 1081 417 1081 q 260 951 297 1081 l 331 929 q 356 976 342 963 q 394 990 369 990 q 481 965 414 990 q 585 940 549 940 z "},"Ū":{"ha":1042,"x_min":76,"x_max":965,"o":"m 76 944 l 160 944 l 160 335 q 181 175 160 242 q 233 72 201 108 q 314 13 264 35 q 410 -14 364 -8 q 519 -19 456 -19 q 630 -14 583 -19 q 727 13 676 -8 q 809 72 778 35 q 861 175 840 108 q 882 335 882 242 l 882 944 l 965 944 l 965 1014 l 699 1014 l 699 944 l 782 944 l 782 335 q 761 192 782 249 q 700 109 740 135 q 619 74 660 83 q 519 65 578 65 q 422 74 463 65 q 341 109 381 83 q 281 192 301 135 q 260 335 260 249 l 260 944 l 343 944 l 343 1014 l 76 1014 l 76 944 m 344 1183 l 697 1183 l 697 1274 l 344 1274 l 344 1183 z "},"ū":{"ha":967,"x_min":83,"x_max":883,"o":"m 167 794 l 83 794 l 83 725 l 167 725 l 167 226 q 219 39 167 97 q 401 -19 271 -19 q 707 101 561 -19 l 735 0 l 883 0 l 883 69 l 800 69 l 800 794 l 619 794 l 619 725 l 703 725 l 703 183 q 422 63 571 63 q 299 101 335 63 q 264 228 264 139 l 264 794 l 167 794 m 307 964 l 660 964 l 660 1054 l 307 1054 l 307 964 z "},"Ŭ":{"ha":1042,"x_min":76,"x_max":965,"o":"m 76 944 l 160 944 l 160 335 q 181 175 160 242 q 233 72 201 108 q 314 13 264 35 q 410 -14 364 -8 q 519 -19 456 -19 q 630 -14 583 -19 q 727 13 676 -8 q 809 72 778 35 q 861 175 840 108 q 882 335 882 242 l 882 944 l 965 944 l 965 1014 l 699 1014 l 699 944 l 782 944 l 782 335 q 761 192 782 249 q 700 109 740 135 q 619 74 660 83 q 519 65 578 65 q 422 74 463 65 q 341 109 381 83 q 281 192 301 135 q 260 335 260 249 l 260 944 l 343 944 l 343 1014 l 76 1014 l 76 944 m 696 1301 q 693 1244 696 1268 q 679 1194 690 1221 q 650 1151 668 1168 q 599 1124 632 1135 q 521 1114 567 1114 q 428 1128 465 1114 q 375 1172 392 1143 q 353 1231 358 1201 q 347 1301 347 1260 l 424 1301 q 428 1249 424 1268 q 455 1215 432 1231 q 521 1199 478 1199 q 587 1215 564 1199 q 614 1249 610 1231 q 618 1301 618 1268 l 696 1301 z "},"ŭ":{"ha":967,"x_min":83,"x_max":883,"o":"m 167 794 l 83 794 l 83 725 l 167 725 l 167 226 q 219 39 167 97 q 401 -19 271 -19 q 707 101 561 -19 l 735 0 l 883 0 l 883 69 l 800 69 l 800 794 l 703 794 l 619 794 l 619 725 l 703 725 l 703 183 q 422 63 571 63 q 299 101 335 63 q 264 228 264 139 l 264 794 l 167 794 m 658 1082 q 656 1025 658 1049 q 642 975 653 1001 q 613 932 631 949 q 562 905 594 915 q 483 894 529 894 q 391 909 428 894 q 338 953 354 924 q 315 1011 321 982 q 310 1082 310 1040 l 386 1082 q 390 1030 386 1049 q 417 995 394 1011 q 483 979 440 979 q 549 995 526 979 q 576 1030 572 1011 q 581 1082 581 1049 l 658 1082 z "},"Ů":{"ha":1042,"x_min":76,"x_max":965,"o":"m 76 944 l 160 944 l 160 335 q 181 175 160 242 q 233 72 201 108 q 314 13 264 35 q 410 -14 364 -8 q 519 -19 456 -19 q 630 -14 583 -19 q 727 13 676 -8 q 809 72 778 35 q 861 175 840 108 q 882 335 882 242 l 882 944 l 965 944 l 965 1014 l 699 1014 l 699 944 l 782 944 l 782 335 q 761 192 782 249 q 700 109 740 135 q 619 74 660 83 q 519 65 578 65 q 422 74 463 65 q 341 109 381 83 q 281 192 301 135 q 260 335 260 249 l 260 944 l 343 944 l 343 1014 l 76 1014 l 76 944 m 519 1092 q 593 1103 564 1092 q 634 1136 622 1114 q 649 1178 646 1158 q 653 1226 653 1197 q 649 1275 653 1256 q 634 1317 646 1294 q 593 1351 622 1340 q 519 1363 564 1363 q 447 1351 475 1363 q 408 1317 419 1340 q 392 1275 396 1294 q 389 1226 389 1256 q 392 1178 389 1197 q 408 1136 396 1158 q 447 1103 419 1114 q 519 1092 475 1092 m 519 1151 q 472 1172 482 1151 q 461 1226 461 1192 q 464 1264 461 1250 q 480 1290 467 1278 q 519 1303 493 1303 q 561 1290 547 1303 q 578 1263 575 1276 q 581 1226 581 1250 q 578 1190 581 1204 q 561 1164 575 1176 q 519 1151 547 1151 z "},"ů":{"ha":967,"x_min":83,"x_max":883,"o":"m 264 794 l 83 794 l 83 725 l 167 725 l 167 226 q 219 39 167 97 q 401 -19 271 -19 q 707 101 561 -19 l 735 0 l 883 0 l 883 69 l 800 69 l 800 794 l 619 794 l 619 725 l 703 725 l 703 183 q 422 63 571 63 q 299 101 335 63 q 264 228 264 139 l 264 794 m 482 872 q 556 883 526 872 q 597 917 585 894 q 612 958 608 939 q 615 1007 615 978 q 612 1056 615 1036 q 597 1098 608 1075 q 556 1132 585 1121 q 482 1143 526 1143 q 410 1132 438 1143 q 370 1098 382 1121 q 355 1056 358 1075 q 351 1007 351 1036 q 355 958 351 978 q 370 917 358 939 q 410 883 382 894 q 482 872 438 872 m 482 932 q 434 952 444 932 q 424 1007 424 972 q 426 1044 424 1031 q 442 1071 429 1058 q 482 1083 456 1083 q 524 1070 510 1083 q 540 1044 538 1057 q 543 1007 543 1031 q 540 971 543 985 q 524 944 538 957 q 482 932 510 932 z "},"Ű":{"ha":1042,"x_min":76,"x_max":965,"o":"m 76 944 l 160 944 l 160 335 q 181 175 160 242 q 233 72 201 108 q 314 13 264 35 q 410 -14 364 -8 q 519 -19 456 -19 q 630 -14 583 -19 q 727 13 676 -8 q 809 72 778 35 q 861 175 840 108 q 882 335 882 242 l 882 944 l 965 944 l 965 1014 l 699 1014 l 699 944 l 782 944 l 782 335 q 761 192 782 249 q 700 109 740 135 q 619 74 660 83 q 519 65 578 65 q 422 74 463 65 q 341 109 381 83 q 281 192 301 135 q 260 335 260 249 l 260 944 l 343 944 l 343 1014 l 76 1014 l 76 944 m 649 1086 l 888 1294 l 814 1368 l 590 1144 l 649 1086 m 325 1086 l 564 1294 l 490 1368 l 267 1144 l 325 1086 z "},"ű":{"ha":967,"x_min":83,"x_max":883,"o":"m 167 794 l 83 794 l 83 725 l 167 725 l 167 226 q 219 39 167 97 q 401 -19 271 -19 q 707 101 561 -19 l 735 0 l 883 0 l 883 69 l 800 69 l 800 794 l 703 794 l 619 794 l 619 725 l 703 725 l 703 183 q 422 63 571 63 q 299 101 335 63 q 264 228 264 139 l 264 794 l 167 794 m 583 867 l 822 1075 l 749 1149 l 525 925 l 583 867 m 260 867 l 499 1075 l 425 1149 l 201 925 l 260 867 z "},"Ų":{"ha":1042,"x_min":76,"x_max":965,"o":"m 76 944 l 160 944 l 160 335 q 177 185 160 249 q 222 83 194 121 q 293 23 250 46 q 379 -8 336 0 q 478 -18 422 -17 l 474 -21 q 385 -90 411 -53 q 360 -178 360 -128 q 503 -315 360 -315 q 607 -282 558 -315 q 682 -194 656 -249 l 624 -156 q 576 -218 607 -194 q 510 -242 544 -242 q 440 -171 440 -242 q 454 -118 440 -139 q 513 -71 468 -97 l 600 -17 q 710 6 664 -11 q 798 61 757 24 q 860 167 839 99 q 882 335 882 236 l 882 944 l 965 944 l 965 1014 l 699 1014 l 699 944 l 782 944 l 782 335 q 761 192 782 249 q 700 109 740 135 q 619 74 660 83 q 519 65 578 65 q 422 74 463 65 q 341 109 381 83 q 281 192 301 135 q 260 335 260 249 l 260 944 l 343 944 l 343 1014 l 76 1014 l 76 944 z "},"ų":{"ha":967,"x_min":83,"x_max":938,"o":"m 167 794 l 83 794 l 83 725 l 167 725 l 167 226 q 219 39 167 97 q 401 -19 271 -19 q 707 101 561 -19 l 735 0 l 769 0 l 729 -21 q 641 -90 667 -53 q 615 -178 615 -128 q 758 -315 615 -315 q 863 -282 814 -315 q 938 -194 911 -249 l 879 -156 q 831 -218 863 -194 q 765 -242 800 -242 q 696 -171 696 -242 q 710 -118 696 -139 q 768 -71 724 -97 l 883 0 l 883 69 l 800 69 l 800 794 l 619 794 l 619 725 l 703 725 l 703 183 q 422 63 571 63 q 299 101 335 63 q 264 228 264 139 l 264 794 l 167 794 z "},"Ŵ":{"ha":1235,"x_min":21,"x_max":1214,"o":"m 438 0 l 617 821 l 797 0 l 943 0 l 1156 944 l 1214 944 l 1214 1014 l 961 1014 l 961 944 l 1054 944 l 867 92 l 667 1014 l 568 1014 l 367 92 l 181 944 l 274 944 l 274 1014 l 21 1014 l 21 944 l 78 944 l 292 0 l 438 0 m 467 1086 l 617 1239 l 768 1086 l 826 1144 l 638 1360 l 597 1360 l 408 1144 l 467 1086 z "},"ŵ":{"ha":1092,"x_min":14,"x_max":1078,"o":"m 1078 794 l 847 794 l 847 725 l 932 725 l 761 121 l 586 725 l 504 725 l 331 121 l 160 725 l 244 725 l 244 794 l 14 794 l 14 725 l 61 725 l 271 0 l 378 0 l 546 581 l 714 0 l 821 0 l 1029 725 l 1078 725 l 1078 794 m 396 867 l 546 1019 l 697 867 l 756 925 l 567 1140 l 526 1140 l 338 925 l 396 867 z "},"Ŷ":{"ha":808,"x_min":14,"x_max":794,"o":"m 454 354 l 733 944 l 794 944 l 794 1014 l 556 1014 l 556 944 l 632 944 l 404 453 l 176 944 l 253 944 l 253 1014 l 14 1014 l 14 944 l 74 944 l 354 354 l 354 69 l 257 69 l 257 0 l 551 0 l 551 69 l 454 69 l 454 354 m 254 1086 l 404 1239 l 556 1086 l 614 1144 l 425 1360 l 385 1360 l 196 1144 l 254 1086 z "},"ŷ":{"ha":794,"x_min":14,"x_max":781,"o":"m 138 -315 l 263 -315 q 326 -294 306 -315 q 365 -225 347 -272 l 726 725 l 781 725 l 781 794 l 550 794 l 550 725 l 628 725 l 397 106 l 165 725 l 244 725 l 244 794 l 14 794 l 14 725 l 68 725 l 351 -18 l 288 -189 q 275 -217 281 -208 q 257 -231 269 -225 q 219 -239 244 -237 l 138 -246 l 138 -315 m 247 867 l 397 1019 l 549 867 l 607 925 l 418 1140 l 378 1140 l 189 925 l 247 867 z "},"Ÿ":{"ha":808,"x_min":14,"x_max":794,"o":"m 454 354 l 733 944 l 794 944 l 794 1014 l 556 1014 l 556 944 l 632 944 l 404 453 l 176 944 l 253 944 l 253 1014 l 14 1014 l 14 944 l 74 944 l 354 354 l 354 69 l 257 69 l 257 0 l 551 0 l 551 69 l 454 69 l 454 354 m 257 1153 q 217 1165 231 1153 q 200 1191 203 1178 q 197 1226 197 1204 q 200 1263 197 1250 q 217 1289 203 1276 q 257 1301 231 1301 q 308 1282 297 1301 q 319 1226 319 1263 q 317 1191 319 1204 q 299 1165 314 1178 q 257 1153 285 1153 m 549 1153 q 508 1165 522 1153 q 492 1191 494 1178 q 489 1226 489 1204 q 492 1263 489 1250 q 508 1289 494 1276 q 549 1301 522 1301 q 600 1282 589 1301 q 611 1226 611 1263 q 608 1191 611 1204 q 591 1165 606 1178 q 549 1153 576 1153 z "},"Ź":{"ha":757,"x_min":42,"x_max":715,"o":"m 68 932 l 69 932 l 69 794 l 147 794 l 147 932 l 579 932 l 42 64 l 42 0 l 715 0 l 715 219 l 638 219 l 638 82 l 164 82 l 701 950 l 701 1014 l 69 1014 l 68 932 m 329 1086 l 568 1294 l 494 1368 l 271 1144 l 329 1086 z "},"ź":{"ha":744,"x_min":56,"x_max":675,"o":"m 606 231 l 606 78 l 175 78 l 669 725 l 669 794 l 89 794 l 89 564 l 158 564 l 158 717 l 550 717 l 56 69 l 56 0 l 675 0 l 675 231 l 606 231 m 324 867 l 563 1075 l 489 1149 l 265 925 l 324 867 z "},"Ż":{"ha":757,"x_min":42,"x_max":715,"o":"m 68 932 l 69 932 l 69 794 l 147 794 l 147 932 l 579 932 l 42 64 l 42 0 l 715 0 l 715 219 l 638 219 l 638 82 l 164 82 l 701 950 l 701 1014 l 69 1014 l 68 932 m 404 1136 q 453 1151 436 1136 q 474 1183 471 1167 q 478 1226 478 1200 q 474 1271 478 1254 q 453 1303 471 1288 q 404 1318 436 1318 q 357 1303 374 1318 q 337 1271 340 1288 q 333 1226 333 1254 q 335 1194 333 1207 q 344 1166 338 1181 q 365 1144 350 1151 q 404 1136 381 1136 z "},"ż":{"ha":744,"x_min":56,"x_max":675,"o":"m 606 231 l 606 78 l 175 78 l 669 725 l 669 794 l 89 794 l 89 564 l 158 564 l 158 717 l 550 717 l 56 69 l 56 0 l 675 0 l 675 231 l 606 231 m 392 917 q 441 932 424 917 q 462 964 458 947 q 465 1007 465 981 q 462 1051 465 1035 q 441 1083 458 1068 q 392 1099 424 1099 q 344 1083 361 1099 q 324 1051 328 1068 q 321 1007 321 1035 q 323 974 321 988 q 331 947 325 961 q 353 924 338 932 q 392 917 368 917 z "},"Ž":{"ha":729,"x_min":42,"x_max":715,"o":"m 68 932 l 69 932 l 69 794 l 147 794 l 147 932 l 579 932 l 42 64 l 42 0 l 715 0 l 715 219 l 638 219 l 638 82 l 164 82 l 701 950 l 701 1014 l 69 1014 l 68 932 m 515 1368 l 365 1215 l 214 1368 l 156 1310 l 344 1094 l 385 1094 l 574 1310 l 515 1368 z "},"ž":{"ha":744,"x_min":56,"x_max":675,"o":"m 606 231 l 606 78 l 175 78 l 669 725 l 669 794 l 89 794 l 89 564 l 158 564 l 158 717 l 550 717 l 56 69 l 56 0 l 675 0 l 675 231 l 606 231 m 539 1149 l 389 996 l 238 1149 l 179 1090 l 368 875 l 408 875 l 597 1090 l 539 1149 z "},"ƒ":{"ha":806,"x_min":158,"x_max":714,"o":"m 714 910 q 558 950 647 950 q 378 881 436 950 q 319 665 319 811 l 319 474 l 158 474 l 158 404 l 319 404 l 319 -8 q 286 -151 319 -110 q 169 -192 253 -192 l 175 -278 q 367 -214 314 -278 q 419 -8 419 -150 l 419 404 l 640 404 l 640 474 l 419 474 l 419 665 q 558 868 419 868 q 681 838 629 868 l 714 910 z "},"Ǻ":{"ha":907,"x_min":7,"x_max":900,"o":"m 386 1014 l 71 69 l 7 69 l 7 0 l 254 0 l 254 69 l 171 69 l 256 328 l 650 328 l 735 69 l 653 69 l 653 0 l 900 0 l 900 69 l 835 69 l 521 1014 l 386 1014 m 453 926 l 624 410 l 283 410 l 453 926 m 456 1092 q 529 1103 500 1092 q 570 1136 558 1114 q 585 1178 582 1158 q 589 1226 589 1197 q 567 1322 589 1292 l 665 1414 l 597 1468 l 511 1356 q 456 1363 486 1363 q 383 1351 411 1363 q 344 1317 356 1340 q 328 1275 332 1294 q 325 1226 325 1256 q 328 1178 325 1197 q 344 1136 332 1158 q 383 1103 356 1114 q 456 1092 411 1092 m 456 1151 q 408 1172 418 1151 q 397 1226 397 1192 q 400 1264 397 1250 q 416 1290 403 1278 q 456 1303 429 1303 q 497 1290 483 1303 q 514 1263 511 1276 q 517 1226 517 1250 q 514 1190 517 1204 q 497 1164 511 1176 q 456 1151 483 1151 z "},"ǻ":{"ha":850,"x_min":89,"x_max":767,"o":"m 618 0 l 767 0 l 767 69 l 683 69 l 683 592 q 408 814 683 814 q 269 797 325 814 q 184 745 214 781 q 141 669 154 710 q 124 569 128 629 l 206 565 q 251 692 211 651 q 408 732 290 732 q 586 592 586 732 l 586 453 l 329 436 q 139 374 189 426 q 89 201 89 321 q 141 36 89 92 q 324 -19 193 -19 q 593 90 471 -19 l 618 0 m 338 60 q 218 94 253 60 q 183 197 183 128 q 215 324 183 292 q 335 363 246 357 l 586 378 l 586 168 q 338 60 472 60 m 414 872 q 488 883 458 872 q 528 917 517 894 q 544 958 540 939 q 547 1007 547 978 q 525 1103 547 1072 l 624 1194 l 556 1249 l 469 1136 q 414 1143 444 1143 q 342 1132 369 1143 q 302 1098 314 1121 q 287 1056 290 1075 q 283 1007 283 1036 q 287 958 283 978 q 302 917 290 939 q 342 883 314 894 q 414 872 369 872 m 414 932 q 366 952 376 932 q 356 1007 356 972 q 358 1044 356 1031 q 374 1071 361 1058 q 414 1083 388 1083 q 456 1070 442 1083 q 472 1044 469 1057 q 475 1007 475 1031 q 472 971 475 985 q 456 944 469 957 q 414 932 442 932 z "},"Ǽ":{"ha":1310,"x_min":7,"x_max":1226,"o":"m 7 0 l 254 0 l 254 69 l 175 69 l 329 474 l 629 474 l 629 69 l 546 69 l 546 0 l 1226 0 l 1226 219 l 1149 219 l 1149 82 l 729 82 l 729 474 l 1129 474 l 1129 557 l 729 557 l 729 932 l 1121 932 l 1121 794 l 1199 794 l 1199 1014 l 442 1014 l 75 69 l 7 69 l 7 0 m 629 932 l 629 557 l 361 557 l 506 932 l 629 932 m 724 1086 l 963 1294 l 889 1368 l 665 1144 l 724 1086 z "},"ǽ":{"ha":1264,"x_min":89,"x_max":1208,"o":"m 890 -19 q 1040 1 979 -19 q 1131 62 1100 22 q 1176 144 1163 101 q 1196 246 1190 186 l 1115 250 q 1060 110 1107 158 q 888 63 1013 63 q 703 134 750 63 q 656 375 657 206 l 1208 375 l 1208 397 q 1203 524 1208 471 q 1178 636 1197 578 q 1124 731 1158 694 q 1030 790 1090 767 q 885 814 969 814 q 642 728 721 814 q 408 814 581 814 q 269 797 325 814 q 184 745 214 781 q 141 669 154 710 q 124 569 128 629 l 206 565 q 251 692 211 651 q 408 732 290 732 q 583 622 565 732 q 558 450 564 561 l 329 436 q 139 374 189 426 q 89 201 89 321 q 141 36 89 92 q 324 -19 193 -19 q 481 15 404 -19 q 611 104 557 49 q 890 -19 682 -19 m 883 732 q 1001 711 954 732 q 1069 648 1047 690 q 1100 561 1092 606 q 1110 451 1108 517 l 656 451 q 666 558 657 514 q 698 645 675 603 q 767 710 721 688 q 883 732 814 732 m 338 60 q 218 94 253 60 q 183 197 183 128 q 215 324 183 292 q 335 363 246 357 l 558 376 q 585 167 558 250 q 338 60 472 60 m 583 867 l 822 1075 l 749 1149 l 525 925 l 583 867 z "},"Ǿ":{"ha":951,"x_min":83,"x_max":868,"o":"m 290 -76 l 363 -76 l 378 -14 q 475 -19 417 -19 q 651 5 579 -19 q 766 69 724 29 q 831 181 808 110 q 861 324 854 251 q 868 507 868 397 q 864 657 868 594 q 846 782 860 719 q 807 887 832 844 q 740 963 782 929 q 640 1013 699 996 l 661 1092 l 588 1092 l 571 1026 q 475 1033 522 1033 q 323 1018 388 1033 q 216 969 258 1003 q 147 894 174 935 q 106 788 119 853 q 88 660 93 722 q 83 507 83 597 q 88 356 83 418 q 105 231 92 294 q 142 125 118 167 q 208 50 167 83 q 310 0 250 17 l 290 -76 m 475 64 q 400 69 429 64 l 618 925 q 739 788 710 886 q 768 507 768 689 q 763 355 768 415 q 741 234 758 294 q 692 140 724 174 q 606 85 660 106 q 475 64 553 64 m 183 507 q 187 635 183 583 q 200 742 190 688 q 230 832 210 797 q 282 895 250 867 q 362 937 314 924 q 475 950 410 950 q 550 944 503 950 l 332 88 q 212 226 240 126 q 183 507 183 325 m 413 1086 l 651 1294 l 578 1368 l 354 1144 l 413 1086 z "},"ǿ":{"ha":844,"x_min":83,"x_max":761,"o":"m 238 -75 l 310 -75 l 329 -12 q 422 -19 375 -19 q 537 -7 486 -19 q 623 26 588 6 q 684 78 658 46 q 724 143 710 110 q 747 222 739 176 q 758 306 756 267 q 761 397 761 346 q 755 523 761 469 q 731 632 749 576 q 676 727 714 688 q 582 788 639 767 l 608 871 l 535 871 l 514 807 q 422 814 468 814 q 308 801 358 814 q 222 769 257 789 q 160 717 186 749 q 120 651 135 685 q 97 573 106 618 q 86 488 89 528 q 83 397 83 449 q 90 271 83 324 q 113 162 96 218 q 168 67 131 106 q 263 6 206 28 l 238 -75 m 181 397 q 183 497 181 457 q 200 585 186 536 q 238 663 214 635 q 309 712 263 692 q 422 732 356 732 q 489 726 450 732 l 289 90 q 201 202 221 126 q 181 397 181 278 m 422 63 q 356 68 382 63 l 556 703 q 644 591 624 667 q 664 397 664 515 q 661 298 664 338 q 644 209 658 258 q 606 131 631 160 q 535 83 582 103 q 422 63 489 63 m 383 867 l 622 1075 l 549 1149 l 325 925 l 383 867 z "},"Ș":{"ha":800,"x_min":65,"x_max":738,"o":"m 140 0 l 140 119 q 419 -19 225 -19 q 666 53 594 -19 q 738 267 738 125 q 678 453 738 396 q 465 540 618 511 l 342 564 q 207 619 239 583 q 175 742 175 656 q 221 899 175 847 q 393 950 267 950 q 638 767 610 950 l 713 767 l 713 1014 l 638 1014 l 638 906 q 372 1033 563 1033 q 142 958 208 1033 q 75 740 75 883 q 131 554 75 610 q 338 469 188 499 l 463 446 q 600 388 563 426 q 638 253 638 349 q 585 111 638 158 q 406 64 533 64 q 208 130 274 64 q 140 300 143 196 l 65 300 l 65 0 l 140 0 m 357 -114 q 365 -169 357 -135 q 372 -221 372 -203 q 335 -314 372 -269 l 365 -346 q 443 -250 408 -310 q 478 -121 478 -190 q 417 -49 478 -49 q 357 -114 357 -49 z "},"ș":{"ha":789,"x_min":101,"x_max":692,"o":"m 590 794 l 592 714 q 363 814 528 814 q 167 753 233 814 q 101 594 101 693 q 157 444 101 490 q 342 364 213 397 l 450 335 q 563 283 531 314 q 594 203 594 253 q 406 63 594 63 q 168 281 192 63 l 104 281 l 104 0 l 175 0 l 172 103 q 418 -19 244 -19 q 692 203 692 -19 q 637 348 692 301 q 454 429 582 394 l 346 458 q 231 509 264 479 q 199 596 199 539 q 238 694 199 657 q 363 732 278 732 q 463 724 425 732 q 531 694 500 717 q 576 628 561 671 q 597 514 592 585 l 661 514 l 661 794 l 590 794 m 351 -114 q 359 -169 351 -135 q 367 -221 367 -203 q 329 -314 367 -269 l 360 -346 q 438 -250 403 -310 q 472 -121 472 -190 q 411 -49 472 -49 q 351 -114 351 -49 z "},"Ț":{"ha":747,"x_min":14,"x_max":733,"o":"m 733 794 l 733 1014 l 14 1014 l 14 794 l 92 794 l 92 932 l 324 932 l 324 69 l 213 69 l 213 0 l 535 0 l 535 69 l 424 69 l 424 932 l 656 932 l 656 794 l 733 794 m 317 -114 q 324 -169 317 -135 q 332 -221 332 -203 q 294 -314 332 -269 l 325 -346 q 403 -250 368 -310 q 438 -121 438 -190 q 376 -49 438 -49 q 317 -114 317 -49 z "},"ț":{"ha":471,"x_min":49,"x_max":435,"o":"m 49 725 l 174 725 l 174 174 q 176 115 174 139 q 186 64 178 92 q 209 19 194 36 q 251 -8 224 3 q 315 -19 278 -19 q 435 0 365 -19 l 422 68 q 346 57 374 57 q 288 83 306 57 q 271 174 271 110 l 271 725 l 417 725 l 417 794 l 271 794 l 271 972 l 174 953 l 174 794 l 49 794 l 49 725 m 192 -114 q 199 -169 192 -135 q 207 -221 207 -203 q 169 -314 207 -269 l 200 -346 q 278 -250 243 -310 q 313 -121 313 -190 q 251 -49 313 -49 q 192 -114 192 -49 z "},"ʼ":{"ha":426,"x_min":131,"x_max":301,"o":"m 168 1082 q 176 1035 168 1064 q 185 993 185 1006 q 176 944 185 965 q 158 911 168 922 q 131 883 149 900 l 163 846 q 174 856 164 847 q 190 869 185 865 q 208 885 196 874 q 226 903 219 896 q 244 925 233 911 q 263 951 256 939 q 278 978 269 963 q 290 1010 286 994 q 298 1044 294 1025 q 301 1082 301 1063 q 299 1112 301 1100 q 291 1137 297 1124 q 270 1157 285 1150 q 233 1164 256 1164 q 181 1142 193 1164 q 168 1082 168 1119 z "},"ˆ":{"ha":557,"x_min":69,"x_max":488,"o":"m 128 867 l 278 1019 l 429 867 l 488 925 l 299 1140 l 258 1140 l 69 925 l 128 867 z "},"ˇ":{"ha":515,"x_min":49,"x_max":467,"o":"m 408 1149 l 258 996 l 107 1149 l 49 1090 l 238 875 l 278 875 l 467 1090 l 408 1149 z "},"ˉ":{"ha":492,"x_min":69,"x_max":422,"o":"m 69 964 l 422 964 l 422 1054 l 69 1054 l 69 964 z "},"˘":{"ha":590,"x_min":121,"x_max":469,"o":"m 469 1082 q 467 1025 469 1049 q 453 975 464 1001 q 424 932 442 949 q 373 905 406 915 q 294 894 340 894 q 202 909 239 894 q 149 953 165 924 q 126 1011 132 982 q 121 1082 121 1040 l 197 1082 q 201 1030 197 1049 q 228 995 206 1011 q 294 979 251 979 q 360 995 338 979 q 388 1030 383 1011 q 392 1082 392 1049 l 469 1082 z "},"˙":{"ha":381,"x_min":129,"x_max":274,"o":"m 200 917 q 249 932 232 917 q 270 964 267 947 q 274 1007 274 981 q 270 1051 274 1035 q 249 1083 267 1068 q 200 1099 232 1099 q 153 1083 169 1099 q 133 1051 136 1068 q 129 1007 129 1035 q 131 974 129 988 q 140 947 133 961 q 161 924 146 932 q 200 917 176 917 z "},"˚":{"ha":381,"x_min":69,"x_max":333,"o":"m 200 932 q 152 952 163 932 q 142 1007 142 972 q 144 1044 142 1031 q 160 1071 147 1058 q 200 1083 174 1083 q 242 1070 228 1083 q 258 1044 256 1057 q 261 1007 261 1031 q 258 971 261 985 q 242 944 256 957 q 200 932 228 932 m 200 872 q 274 883 244 872 q 315 917 303 894 q 330 958 326 939 q 333 1007 333 978 q 330 1056 333 1036 q 315 1098 326 1075 q 274 1132 303 1121 q 200 1143 244 1143 q 128 1132 156 1143 q 88 1098 100 1121 q 73 1056 76 1075 q 69 1007 69 1036 q 73 958 69 978 q 88 917 76 939 q 128 883 100 894 q 200 872 156 872 z "},"˛":{"ha":461,"x_min":69,"x_max":392,"o":"m 333 -156 q 285 -218 317 -194 q 219 -242 254 -242 q 150 -171 150 -242 q 164 -118 150 -139 q 222 -71 178 -97 l 338 0 l 313 44 l 183 -21 q 95 -90 121 -53 q 69 -178 69 -128 q 213 -315 69 -315 q 317 -282 268 -315 q 392 -194 365 -249 l 333 -156 z "},"˜":{"ha":569,"x_min":61,"x_max":508,"o":"m 386 940 q 508 1069 471 940 l 439 1092 q 414 1044 428 1058 q 375 1031 400 1031 q 288 1056 356 1031 q 183 1081 219 1081 q 61 951 99 1081 l 132 929 q 157 976 143 963 q 196 990 171 990 q 282 965 214 990 q 386 940 350 940 z "},"˝":{"ha":760,"x_min":69,"x_max":690,"o":"m 128 867 l 367 1075 l 293 1149 l 69 925 l 128 867 m 451 867 l 690 1075 l 617 1149 l 393 925 l 451 867 z "},"̀":{"ha":436,"x_min":0,"x_max":0,"o":"z "},"́":{"ha":436,"x_min":0,"x_max":0,"o":"z "},"̂":{"ha":557,"x_min":0,"x_max":0,"o":"z "},"̃":{"ha":569,"x_min":0,"x_max":0,"o":"z "},"̄":{"ha":492,"x_min":0,"x_max":0,"o":"z "},"̆":{"ha":590,"x_min":0,"x_max":0,"o":"z "},"̇":{"ha":381,"x_min":0,"x_max":0,"o":"z "},"̈":{"ha":428,"x_min":0,"x_max":0,"o":"z "},"̊":{"ha":381,"x_min":0,"x_max":0,"o":"z "},"̋":{"ha":760,"x_min":0,"x_max":0,"o":"z "},"̌":{"ha":515,"x_min":0,"x_max":0,"o":"z "},"̧":{"ha":415,"x_min":0,"x_max":0,"o":"z "},"Δ":{"ha":794,"x_min":0,"x_max":794,"o":"m 344 931 l 0 0 l 794 0 l 450 931 l 344 931 m 397 819 l 671 69 l 124 69 l 397 819 z "},"Ω":{"ha":1036,"x_min":97,"x_max":939,"o":"m 518 868 q 766 784 693 868 q 839 536 839 700 q 796 349 839 419 q 649 253 753 278 l 649 0 l 901 0 l 901 69 l 732 69 l 732 200 q 939 544 939 282 q 840 846 939 742 q 518 950 740 950 q 197 846 296 950 q 97 544 97 742 q 147 329 97 414 q 303 200 196 244 l 303 0 l 388 0 l 388 253 q 240 349 283 278 q 197 536 197 419 q 270 784 197 700 q 518 868 343 868 m 135 0 l 303 0 l 303 69 l 135 69 l 135 0 z "},"μ":{"ha":890,"x_min":167,"x_max":800,"o":"m 167 -315 l 167 794 l 264 794 l 264 183 q 544 63 396 63 q 667 101 632 63 q 703 228 703 139 l 703 794 l 800 794 l 800 226 q 748 39 800 97 q 565 -19 696 -19 q 264 97 413 -19 l 264 -315 l 167 -315 z "},"π":{"ha":882,"x_min":97,"x_max":785,"o":"m 97 725 l 181 725 l 181 0 l 278 0 l 278 725 l 604 725 l 604 0 l 701 0 l 701 725 l 785 725 l 785 794 l 97 794 l 97 725 z "},"ऀ":{"ha":0,"x_min":-444,"x_max":29,"o":"m -208 1299 q -265 1282 -247 1299 q -282 1228 -282 1265 q -265 1172 -282 1189 q -208 1156 -247 1156 q -154 1172 -171 1156 q -137 1228 -137 1189 q -154 1282 -137 1265 q -208 1299 -171 1299 m -444 1285 q -394 1445 -444 1385 q -207 1506 -343 1506 q -21 1445 -71 1506 q 29 1285 29 1385 l -53 1285 q -84 1385 -53 1349 q -207 1422 -115 1422 q -328 1385 -297 1422 q -360 1285 -360 1349 l -444 1285 z "},"ँ":{"ha":0,"x_min":-444,"x_max":29,"o":"m -207 1363 q -151 1379 -168 1363 q -133 1433 -133 1396 q -151 1489 -133 1472 q -207 1506 -168 1506 q -261 1489 -244 1506 q -278 1433 -278 1472 q -261 1379 -278 1396 q -207 1363 -244 1363 m 29 1376 q -22 1216 29 1276 q -208 1156 -72 1156 q -394 1216 -344 1156 q -444 1376 -444 1276 l -362 1376 q -331 1276 -362 1313 q -208 1239 -300 1239 q -87 1276 -118 1239 q -56 1376 -56 1313 l 29 1376 z "},"ं":{"ha":0,"x_min":-265,"x_max":-121,"o":"m -194 1267 q -138 1283 -156 1267 q -121 1338 -121 1300 q -138 1393 -121 1376 q -194 1410 -156 1410 q -249 1393 -232 1410 q -265 1338 -265 1376 q -249 1283 -265 1300 q -194 1267 -232 1267 z "},"ः":{"ha":517,"x_min":185,"x_max":329,"o":"m 256 643 q 312 660 294 643 q 329 714 329 676 q 312 769 329 753 q 256 786 294 786 q 201 769 218 786 q 185 714 185 753 q 201 660 185 676 q 256 643 218 643 m 256 201 q 312 218 294 201 q 329 272 329 235 q 312 328 329 311 q 256 344 294 344 q 201 328 218 344 q 185 272 185 311 q 201 218 185 235 q 256 201 218 201 z "},"ऄ":{"ha":1161,"x_min":49,"x_max":1175,"o":"m 1001 0 l 1001 944 l 1175 944 l 1175 1014 l 1000 1014 q 975 1126 1001 1079 q 906 1198 949 1172 q 812 1242 864 1224 q 708 1277 760 1261 q 613 1314 656 1293 q 544 1372 571 1335 q 517 1461 517 1408 l 426 1461 q 460 1335 425 1386 q 549 1260 496 1283 q 664 1215 601 1238 q 780 1175 726 1193 q 869 1116 833 1157 q 906 1014 906 1075 l 731 1014 l 731 944 l 904 944 l 904 575 q 838 534 872 549 q 778 515 804 519 q 714 515 751 510 q 656 524 676 519 q 593 542 636 529 q 532 561 550 556 q 650 764 650 632 q 580 964 650 894 q 349 1033 510 1033 q 68 764 68 1033 l 154 764 q 349 951 154 951 q 508 904 463 951 q 553 765 553 857 q 506 634 553 686 q 375 582 458 582 l 268 582 l 268 507 l 374 507 q 519 454 474 507 q 565 314 565 401 q 363 144 565 146 q 200 196 256 146 q 135 356 144 246 l 49 321 q 144 126 67 189 q 363 64 221 64 q 586 128 510 64 q 663 315 663 193 q 625 456 663 396 q 717 434 679 439 q 806 442 756 429 q 904 493 857 454 l 904 0 l 1001 0 z "},"अ":{"ha":1161,"x_min":49,"x_max":1175,"o":"m 1001 0 l 1001 944 l 1175 944 l 1175 1014 l 731 1014 l 731 944 l 904 944 l 904 575 q 838 534 872 549 q 778 515 804 519 q 714 515 751 510 q 656 524 676 519 q 593 542 636 529 q 532 561 550 556 q 650 764 650 632 q 580 964 650 894 q 349 1033 510 1033 q 68 764 68 1033 l 154 764 q 349 951 154 951 q 508 904 463 951 q 553 765 553 857 q 506 634 553 686 q 375 582 458 582 l 268 582 l 268 507 l 374 507 q 519 454 474 507 q 565 314 565 401 q 363 144 565 146 q 200 196 256 146 q 135 356 144 246 l 49 321 q 144 126 67 189 q 363 64 221 64 q 586 128 510 64 q 663 315 663 193 q 625 456 663 396 q 717 434 679 439 q 806 442 756 429 q 904 493 857 454 l 904 0 l 1001 0 z "},"आ":{"ha":1578,"x_min":49,"x_max":1592,"o":"m 904 575 q 838 534 872 549 q 778 515 804 519 q 714 515 751 510 q 656 524 676 519 q 593 542 636 529 q 532 561 550 556 q 650 764 650 632 q 580 964 650 894 q 349 1033 510 1033 q 68 764 68 1033 l 154 764 q 349 951 154 951 q 508 904 463 951 q 553 765 553 857 q 506 634 553 686 q 375 582 458 582 l 268 582 l 268 507 l 374 507 q 519 454 474 507 q 565 314 565 401 q 363 144 565 146 q 200 196 256 146 q 135 356 144 246 l 49 321 q 144 126 67 189 q 363 64 221 64 q 586 128 510 64 q 663 315 663 193 q 625 456 663 396 q 717 434 679 439 q 806 442 756 429 q 904 493 857 454 l 904 0 l 1001 0 l 1001 944 l 1321 944 l 1321 0 l 1418 0 l 1418 944 l 1592 944 l 1592 1014 l 731 1014 l 731 944 l 904 944 l 904 575 z "},"इ":{"ha":847,"x_min":-14,"x_max":861,"o":"m 508 -192 q 317 0 382 -101 q 461 -21 381 -21 q 700 53 621 -21 q 779 254 779 128 q 701 446 779 375 q 463 517 622 517 q 281 482 358 517 q 199 610 199 519 q 368 731 199 731 l 688 731 l 688 944 l 861 944 l 861 1014 l -14 1014 l -14 944 l 590 944 l 590 814 l 368 814 q 169 757 236 814 q 101 608 101 700 q 142 475 101 524 q 261 400 183 426 q 438 433 332 433 q 682 254 682 433 q 440 63 682 63 q 269 99 338 63 q 243 263 243 174 q 186 276 215 276 q 119 247 140 276 q 99 183 99 218 q 181 50 99 94 q 450 -258 261 -110 l 508 -192 z "},"ई":{"ha":847,"x_min":-14,"x_max":882,"o":"m 508 -192 q 317 0 382 -101 q 461 -21 381 -21 q 700 53 621 -21 q 779 254 779 128 q 701 446 779 375 q 463 517 622 517 q 281 482 358 517 q 199 610 199 519 q 368 731 199 731 l 688 731 l 688 944 l 861 944 l 861 1014 l 675 1014 q 580 1149 610 1085 q 550 1288 550 1213 q 707 1431 550 1431 q 875 1407 789 1431 l 882 1483 q 693 1510 794 1510 q 513 1451 574 1510 q 453 1294 453 1393 q 581 1014 453 1151 l -14 1014 l -14 944 l 590 944 l 590 814 l 368 814 q 169 757 236 814 q 101 608 101 700 q 142 475 101 524 q 261 400 183 426 q 438 433 332 433 q 682 254 682 433 q 440 63 682 63 q 269 99 338 63 q 243 263 243 174 q 186 276 215 276 q 119 247 140 276 q 99 183 99 218 q 181 50 99 94 q 450 -258 261 -110 l 508 -192 z "},"उ":{"ha":821,"x_min":-14,"x_max":835,"o":"m 71 350 q 419 57 108 57 q 643 122 567 57 q 719 308 719 186 q 677 456 719 397 q 563 542 635 515 q 667 627 628 571 q 707 757 707 683 q 624 944 707 885 l 835 944 l 835 1014 l -14 1014 l -14 944 l 406 944 q 564 896 518 944 q 610 756 610 847 q 563 626 610 676 q 432 575 515 575 l 325 575 l 325 500 l 431 500 q 574 447 525 500 q 622 307 622 393 q 419 138 622 138 q 165 383 186 138 l 71 350 z "},"ऊ":{"ha":1214,"x_min":-14,"x_max":1228,"o":"m -14 944 l 406 944 q 564 896 518 944 q 610 756 610 847 q 563 626 610 676 q 432 575 515 575 l 325 575 l 325 500 l 431 500 q 574 447 525 500 q 622 307 622 393 q 419 138 622 138 q 165 383 186 138 l 71 350 q 419 57 108 57 q 643 122 567 57 q 719 308 719 186 q 703 407 719 357 q 765 513 714 476 q 892 549 815 549 q 1082 343 1082 549 q 1078 281 1082 306 q 1063 228 1075 256 q 1025 180 1051 200 q 956 146 999 160 l 992 67 q 1090 115 1051 86 q 1147 181 1129 143 q 1172 256 1165 219 q 1179 343 1179 293 q 1166 445 1179 399 q 1124 535 1153 492 q 1038 603 1094 578 q 901 628 981 628 q 753 585 815 628 q 665 469 692 543 q 563 542 626 518 q 667 627 628 571 q 707 757 707 683 q 624 944 707 885 l 1228 944 l 1228 1014 l -14 1014 l -14 944 z "},"ऋ":{"ha":1351,"x_min":-14,"x_max":1365,"o":"m 168 594 q 367 713 228 713 q 505 675 449 713 q 644 547 561 638 l 696 492 l 199 206 l 242 124 l 721 422 l 721 0 l 818 0 l 818 435 q 982 414 881 414 q 1160 440 1071 414 q 1250 242 1232 290 q 1268 157 1268 194 q 1247 78 1268 107 q 1163 50 1226 50 q 1075 88 1096 50 q 1054 206 1054 126 l 961 206 q 967 119 961 154 q 992 50 974 85 q 1050 -2 1010 15 q 1153 -19 1090 -19 q 1264 -4 1219 -19 q 1328 39 1308 11 q 1356 94 1349 67 q 1363 157 1363 121 q 1342 271 1363 213 q 1244 468 1322 329 q 1310 556 1310 503 q 1264 635 1310 601 q 1160 668 1218 668 q 1124 515 1053 668 q 982 496 1061 496 q 818 519 876 496 l 818 944 l 1365 944 l 1365 1014 l -14 1014 l -14 944 l 721 944 l 721 574 l 699 597 q 527 751 596 707 q 357 794 458 794 q 100 644 182 794 l 168 594 z "},"ऌ":{"ha":1243,"x_min":-14,"x_max":1257,"o":"m -14 944 l 863 944 l 863 714 q 617 611 703 710 q 361 714 526 714 q 149 638 226 714 q 71 417 71 563 q 165 167 71 272 q 449 -21 258 63 l 485 58 q 245 217 322 131 q 168 426 168 304 q 220 581 168 529 q 361 633 272 633 q 567 532 507 633 q 533 342 533 453 l 626 328 q 688 554 626 475 q 876 633 750 633 q 1017 581 965 633 q 1069 426 1069 529 q 1047 326 1069 372 q 989 245 1025 279 q 910 180 953 211 q 824 117 867 149 q 744 50 781 85 q 686 -32 708 15 q 664 -135 664 -79 q 724 -282 664 -229 q 888 -335 785 -335 q 1097 -282 996 -335 l 1069 -215 q 903 -264 979 -264 q 797 -231 832 -265 q 761 -135 761 -196 q 791 -44 761 -86 q 866 28 821 -1 q 964 97 911 58 q 1062 176 1017 136 q 1137 278 1107 215 q 1167 417 1167 340 q 1112 611 1167 538 q 960 706 1057 685 l 960 944 l 1257 944 l 1257 1014 l -14 1014 l -14 944 z "},"ऍ":{"ha":826,"x_min":-14,"x_max":840,"o":"m 581 408 q 672 502 649 440 q 694 653 694 564 l 694 944 l 840 944 l 840 1014 l -14 1014 l -14 944 l 132 944 l 132 496 q 247 215 132 333 q 599 3 363 97 l 629 85 q 327 263 425 165 q 229 496 229 360 l 229 944 l 597 944 l 597 653 q 583 544 597 588 q 526 476 569 500 l 581 408 m 633 1376 q 583 1216 633 1276 q 396 1156 532 1156 q 210 1216 260 1156 q 160 1376 160 1276 l 242 1376 q 273 1276 242 1313 q 396 1239 304 1239 q 517 1276 486 1239 q 549 1376 549 1313 l 633 1376 z "},"ऎ":{"ha":826,"x_min":-14,"x_max":840,"o":"m 581 408 q 672 502 649 440 q 694 653 694 564 l 694 944 l 840 944 l 840 1014 l 694 1014 q 669 1126 696 1079 q 601 1198 643 1172 q 506 1242 558 1224 q 402 1277 454 1261 q 308 1314 350 1293 q 238 1372 265 1335 q 211 1461 211 1408 l 121 1461 q 155 1335 119 1386 q 243 1260 190 1283 q 358 1215 296 1238 q 474 1175 421 1193 q 564 1116 528 1157 q 600 1014 600 1075 l -14 1014 l -14 944 l 132 944 l 132 496 q 247 215 132 333 q 599 3 363 97 l 629 85 q 327 263 425 165 q 229 496 229 360 l 229 944 l 597 944 l 597 653 q 583 544 597 588 q 526 476 569 500 l 581 408 z "},"ए":{"ha":826,"x_min":-14,"x_max":840,"o":"m 581 408 q 672 502 649 440 q 694 653 694 564 l 694 944 l 840 944 l 840 1014 l -14 1014 l -14 944 l 132 944 l 132 496 q 247 215 132 333 q 599 3 363 97 l 629 85 q 327 263 425 165 q 229 496 229 360 l 229 944 l 597 944 l 597 653 q 583 544 597 588 q 526 476 569 500 l 581 408 z "},"ऐ":{"ha":826,"x_min":-14,"x_max":840,"o":"m 581 408 q 672 502 649 440 q 694 653 694 564 l 694 944 l 840 944 l 840 1014 l 686 1014 l 282 1481 l 211 1419 l 586 1014 l -14 1014 l -14 944 l 132 944 l 132 496 q 247 215 132 333 q 599 3 363 97 l 629 85 q 327 263 425 165 q 229 496 229 360 l 229 944 l 597 944 l 597 653 q 583 544 597 588 q 526 476 569 500 l 581 408 z "},"ऑ":{"ha":1578,"x_min":49,"x_max":1592,"o":"m 904 575 q 838 534 872 549 q 778 515 804 519 q 714 515 751 510 q 656 524 676 519 q 593 542 636 529 q 532 561 550 556 q 650 764 650 632 q 580 964 650 894 q 349 1033 510 1033 q 68 764 68 1033 l 154 764 q 349 951 154 951 q 508 904 463 951 q 553 765 553 857 q 506 634 553 686 q 375 582 458 582 l 268 582 l 268 507 l 374 507 q 519 454 474 507 q 565 314 565 401 q 363 144 565 146 q 200 196 256 146 q 135 356 144 246 l 49 321 q 144 126 67 189 q 363 64 221 64 q 586 128 510 64 q 663 315 663 193 q 625 456 663 396 q 717 434 679 439 q 806 442 756 429 q 904 493 857 454 l 904 0 l 1001 0 l 1001 944 l 1321 944 l 1321 0 l 1418 0 l 1418 944 l 1592 944 l 1592 1014 l 731 1014 l 731 944 l 904 944 l 904 575 m 1382 1376 q 1331 1216 1382 1276 q 1144 1156 1281 1156 q 958 1216 1008 1156 q 908 1376 908 1276 l 990 1376 q 1022 1276 990 1313 q 1144 1239 1053 1239 q 1266 1276 1235 1239 q 1297 1376 1297 1313 l 1382 1376 z "},"ऒ":{"ha":1578,"x_min":49,"x_max":1592,"o":"m 1417 1014 q 1392 1126 1418 1079 q 1323 1198 1365 1172 q 1228 1242 1281 1224 q 1124 1277 1176 1261 q 1030 1314 1072 1293 q 960 1372 988 1335 q 933 1461 933 1408 l 843 1461 q 877 1335 842 1386 q 965 1260 913 1283 q 1081 1215 1018 1238 q 1197 1175 1143 1193 q 1286 1116 1250 1157 q 1322 1014 1322 1075 l 731 1014 l 731 944 l 904 944 l 904 575 q 838 534 872 549 q 778 515 804 519 q 714 515 751 510 q 656 524 676 519 q 593 542 636 529 q 532 561 550 556 q 650 764 650 632 q 580 964 650 894 q 349 1033 510 1033 q 68 764 68 1033 l 154 764 q 349 951 154 951 q 508 904 463 951 q 553 765 553 857 q 506 634 553 686 q 375 582 458 582 l 268 582 l 268 507 l 374 507 q 519 454 474 507 q 565 314 565 401 q 363 144 565 146 q 200 196 256 146 q 135 356 144 246 l 49 321 q 144 126 67 189 q 363 64 221 64 q 586 128 510 64 q 663 315 663 193 q 625 456 663 396 q 717 434 679 439 q 806 442 756 429 q 904 493 857 454 l 904 0 l 1001 0 l 1001 944 l 1321 944 l 1321 0 l 1418 0 l 1418 944 l 1592 944 l 1592 1014 l 1417 1014 z "},"ओ":{"ha":1578,"x_min":49,"x_max":1592,"o":"m 1411 1014 l 1007 1481 l 936 1419 l 1311 1014 l 731 1014 l 731 944 l 904 944 l 904 575 q 838 534 872 549 q 778 515 804 519 q 714 515 751 510 q 656 524 676 519 q 593 542 636 529 q 532 561 550 556 q 650 764 650 632 q 580 964 650 894 q 349 1033 510 1033 q 68 764 68 1033 l 154 764 q 349 951 154 951 q 508 904 463 951 q 553 765 553 857 q 506 634 553 686 q 375 582 458 582 l 268 582 l 268 507 l 374 507 q 519 454 474 507 q 565 314 565 401 q 363 144 565 146 q 200 196 256 146 q 135 356 144 246 l 49 321 q 144 126 67 189 q 363 64 221 64 q 586 128 510 64 q 663 315 663 193 q 625 456 663 396 q 717 434 679 439 q 806 442 756 429 q 904 493 857 454 l 904 0 l 1001 0 l 1001 944 l 1321 944 l 1321 0 l 1418 0 l 1418 944 l 1592 944 l 1592 1014 l 1411 1014 z "},"औ":{"ha":1578,"x_min":49,"x_max":1592,"o":"m 1422 1014 l 1174 1481 l 1093 1438 l 1299 1097 l 1010 1296 l 958 1222 l 1311 1014 l 731 1014 l 731 944 l 904 944 l 904 575 q 838 534 872 549 q 778 515 804 519 q 714 515 751 510 q 656 524 676 519 q 593 542 636 529 q 532 561 550 556 q 650 764 650 632 q 580 964 650 894 q 349 1033 510 1033 q 68 764 68 1033 l 154 764 q 349 951 154 951 q 508 904 463 951 q 553 765 553 857 q 506 634 553 686 q 375 582 458 582 l 268 582 l 268 507 l 374 507 q 519 454 474 507 q 565 314 565 401 q 363 144 565 146 q 200 196 256 146 q 135 356 144 246 l 49 321 q 144 126 67 189 q 363 64 221 64 q 586 128 510 64 q 663 315 663 193 q 625 456 663 396 q 717 434 679 439 q 806 442 756 429 q 904 493 857 454 l 904 0 l 1001 0 l 1001 944 l 1321 944 l 1321 0 l 1418 0 l 1418 944 l 1592 944 l 1592 1014 l 1422 1014 z "},"क":{"ha":1179,"x_min":-14,"x_max":1193,"o":"m -14 944 l 567 944 l 567 414 q 490 303 546 346 q 365 260 435 260 q 223 319 261 260 q 185 481 185 378 q 225 642 185 583 q 379 700 265 700 q 496 674 443 700 l 514 750 q 363 781 442 781 q 244 763 294 781 q 164 719 193 746 q 117 651 135 692 q 93 572 99 611 q 88 486 88 533 q 98 374 88 424 q 135 278 108 325 q 219 206 163 232 q 357 181 275 181 q 567 272 485 181 l 567 0 l 664 0 l 664 553 q 728 660 681 619 q 844 700 775 700 q 971 649 938 700 q 1004 496 1004 597 q 919 213 1004 326 l 1001 171 q 1100 496 1100 310 q 1050 706 1100 632 q 865 781 1000 781 q 664 699 739 781 l 664 944 l 1193 944 l 1193 1014 l -14 1014 l -14 944 z "},"ख":{"ha":1418,"x_min":-14,"x_max":1432,"o":"m -14 944 l 521 944 l 521 681 q 516 608 521 638 q 497 549 511 579 q 451 503 483 518 q 368 488 418 488 q 256 535 296 488 q 199 669 217 582 l 115 669 q 145 487 122 578 q 214 303 168 396 q 324 140 260 210 q 488 25 389 69 q 704 -19 586 -19 q 1161 121 932 -19 l 1161 0 l 1258 0 l 1258 944 l 1432 944 l 1432 1014 l -14 1014 l -14 944 m 972 299 q 1161 335 1085 299 l 1161 208 q 704 63 939 63 q 408 172 524 63 q 240 446 293 281 q 367 406 292 406 q 477 421 431 406 q 551 460 524 436 q 593 523 578 485 q 613 597 608 561 q 618 681 618 633 l 618 944 l 1161 944 l 1161 417 q 986 376 1085 376 q 859 424 899 376 q 819 547 819 471 q 860 669 819 622 q 990 717 901 717 q 1094 696 1047 717 l 1111 769 q 974 794 1049 794 q 781 726 839 794 q 722 550 722 657 q 780 369 722 440 q 972 299 838 299 z "},"ग":{"ha":882,"x_min":-14,"x_max":896,"o":"m -14 944 l 181 944 l 181 549 l 128 549 q 93 537 104 549 q 82 496 82 525 q 143 392 82 436 q 246 349 204 349 q 278 378 278 349 l 278 944 l 625 944 l 625 0 l 722 0 l 722 944 l 896 944 l 896 1014 l -14 1014 l -14 944 z "},"घ":{"ha":943,"x_min":-14,"x_max":957,"o":"m 546 1014 l -14 1014 l -14 944 l 199 944 q 135 794 135 894 q 170 684 135 733 q 265 608 206 635 q 122 394 122 554 q 191 206 122 271 q 396 140 260 140 q 686 329 594 140 l 686 0 l 783 0 l 783 944 l 957 944 l 957 1014 l 546 1014 m 686 944 l 686 550 q 608 315 686 408 q 406 221 529 221 q 221 393 221 221 q 267 522 221 471 q 400 572 314 572 l 463 572 l 463 642 l 388 642 q 273 684 314 642 q 232 790 232 726 q 269 903 232 863 q 396 944 307 943 l 686 944 z "},"ङ":{"ha":1011,"x_min":-14,"x_max":1025,"o":"m 460 28 q 697 94 615 28 q 778 271 778 160 q 699 449 778 381 q 461 517 619 517 q 276 485 356 517 q 197 610 197 521 q 367 731 197 731 l 688 731 l 688 814 l 367 814 q 167 757 235 814 q 100 608 100 700 q 260 400 100 454 q 436 433 331 433 q 681 278 681 433 q 623 153 681 196 q 460 111 565 111 q 135 258 265 111 l 71 200 q 240 71 150 114 q 460 28 329 28 m 688 814 l 688 944 l 1025 944 l 1025 1014 l -14 1014 l -14 944 l 590 944 l 590 814 l 688 814 m 883 521 q 940 538 922 521 q 957 592 957 554 q 940 647 957 631 q 883 664 922 664 q 829 647 846 664 q 813 592 813 631 q 829 538 813 554 q 883 521 846 521 z "},"च":{"ha":946,"x_min":-14,"x_max":960,"o":"m 521 713 l 18 713 l 18 643 l 268 643 q 151 446 151 583 q 217 274 151 342 q 428 207 282 207 q 689 290 585 207 l 689 0 l 786 0 l 786 944 l 960 944 l 960 1014 l -14 1014 l -14 944 l 689 944 l 689 378 q 428 285 586 285 q 290 331 333 285 q 246 446 246 376 q 297 586 246 533 q 479 643 347 639 l 521 643 l 521 713 z "},"छ":{"ha":1047,"x_min":-14,"x_max":1061,"o":"m 1061 1014 l -14 1014 l -14 944 l 132 944 q 53 776 53 889 q 97 656 53 710 q 214 572 142 601 q 53 326 53 508 q 136 131 53 199 q 376 63 219 63 q 666 119 521 63 q 910 281 811 176 q 1010 506 1010 386 q 1003 600 1010 561 q 979 678 997 639 q 922 741 961 718 q 824 771 883 764 l 824 944 l 1061 944 l 1061 1014 m 726 771 q 645 747 679 765 q 592 706 611 729 q 563 647 574 682 q 549 580 551 611 q 546 506 546 549 q 556 392 546 438 q 606 299 567 346 q 717 226 644 253 q 376 143 563 143 q 150 324 150 143 q 202 476 150 417 q 360 536 254 536 l 436 536 l 436 606 l 346 606 q 203 653 256 606 q 150 772 150 701 q 197 898 150 854 q 364 944 244 942 l 726 944 l 726 771 m 633 506 q 635 565 633 542 q 645 618 638 589 q 667 663 653 647 q 710 691 682 679 q 776 703 738 703 q 856 688 825 703 q 901 640 888 672 q 917 581 914 608 q 921 506 921 553 q 793 276 921 376 q 705 316 739 292 q 656 374 671 340 q 638 435 642 407 q 633 506 633 463 z "},"ज":{"ha":1114,"x_min":-14,"x_max":1128,"o":"m 406 260 q 222 317 304 260 q 89 460 140 374 l 17 407 q 406 179 172 179 q 697 431 697 179 q 585 615 697 557 l 857 615 l 857 0 l 954 0 l 954 944 l 1128 944 l 1128 1014 l -14 1014 l -14 944 l 857 944 l 857 685 l 374 685 l 374 615 q 549 563 497 615 q 600 438 600 511 q 406 260 600 260 z "},"झ":{"ha":982,"x_min":-14,"x_max":996,"o":"m 383 -40 q 240 117 292 33 q 318 110 272 110 q 531 176 457 110 q 604 356 604 243 q 563 481 604 428 q 725 488 650 478 l 725 0 l 822 0 l 822 944 l 996 944 l 996 1014 l -14 1014 l -14 944 l 375 944 l 375 817 l 249 817 q 81 771 138 817 q 24 653 24 725 q 59 536 24 579 q 164 465 94 493 q 307 499 229 494 q 447 467 385 503 q 508 356 508 432 q 456 230 508 274 q 307 186 404 186 q 200 204 244 186 q 183 360 175 285 q 58 336 100 392 q 50 224 22 288 q 126 150 74 176 q 324 -97 188 19 l 383 -40 m 249 747 l 472 747 l 472 944 l 725 944 l 725 557 q 568 550 657 549 q 433 560 479 551 q 188 544 319 588 q 121 653 121 575 q 151 721 121 694 q 249 747 182 747 z "},"ञ":{"ha":1111,"x_min":-14,"x_max":1125,"o":"m 178 601 q 326 629 244 629 q 461 577 413 629 q 510 451 510 525 q 461 326 510 378 q 326 274 413 274 q 46 369 169 274 l 7 297 q 325 193 149 193 q 524 254 454 193 q 604 411 593 315 q 854 414 726 399 l 854 0 l 951 0 l 951 944 l 1125 944 l 1125 1014 l -14 1014 l -14 944 l 854 944 l 854 483 q 606 481 726 468 q 526 645 596 581 q 325 710 457 710 q 150 676 232 710 l 178 601 z "},"ट":{"ha":847,"x_min":-14,"x_max":861,"o":"m 688 944 l 861 944 l 861 1014 l -14 1014 l -14 944 l 590 944 l 590 701 l 429 701 q 71 389 71 701 q 154 111 71 200 q 415 22 238 22 q 667 96 594 22 q 754 313 740 169 l 668 313 q 603 160 660 215 q 415 104 546 104 q 226 172 285 104 q 168 389 168 239 q 230 560 168 503 q 431 618 292 618 l 688 618 l 688 944 z "},"ठ":{"ha":903,"x_min":-14,"x_max":917,"o":"m -14 944 l 476 944 l 476 700 l 429 700 q 71 394 71 700 q 162 113 71 203 q 444 22 253 22 q 738 113 644 22 q 832 394 832 203 q 574 694 832 658 l 574 944 l 917 944 l 917 1014 l -14 1014 l -14 944 m 444 104 q 233 173 297 104 q 168 394 168 242 q 431 618 168 618 l 490 618 q 665 566 596 618 q 735 394 735 514 q 667 173 735 242 q 444 104 599 104 z "},"ड":{"ha":847,"x_min":-14,"x_max":861,"o":"m 368 731 l 688 731 l 688 944 l 861 944 l 861 1014 l -14 1014 l -14 944 l 590 944 l 590 814 l 368 814 q 169 757 236 814 q 101 608 101 700 q 261 400 101 454 q 438 433 332 433 q 682 278 682 433 q 624 153 682 196 q 461 111 567 111 q 136 258 267 111 l 72 200 q 241 71 151 114 q 461 28 331 28 q 698 94 617 28 q 779 271 779 160 q 700 449 779 381 q 463 517 621 517 q 278 485 357 517 q 199 610 199 521 q 368 731 199 731 z "},"ढ":{"ha":907,"x_min":-14,"x_max":921,"o":"m 813 313 q 806 398 813 364 q 778 467 799 432 q 714 519 758 501 q 600 536 669 536 q 486 519 531 536 q 422 467 442 501 q 395 398 401 432 q 389 313 389 364 q 408 190 389 239 q 482 106 426 140 q 444 104 469 104 q 238 177 301 104 q 175 411 175 250 q 239 606 175 553 q 461 660 303 660 l 733 660 l 733 1014 l -14 1014 l -14 944 l 638 944 l 638 742 l 460 742 q 166 665 254 742 q 78 411 78 589 q 167 116 78 210 q 444 22 256 22 q 726 101 639 22 q 813 313 813 181 m 476 313 q 478 360 476 342 q 486 401 479 379 q 506 436 493 424 q 542 458 518 449 q 599 467 565 467 q 668 455 642 467 q 706 419 694 443 q 720 372 717 394 q 724 313 724 350 q 607 132 724 181 q 535 163 563 144 q 495 207 507 181 q 480 256 483 233 q 476 313 476 278 m 733 944 l 921 944 l 921 1014 l 733 1014 l 733 944 z "},"ण":{"ha":1243,"x_min":-14,"x_max":1257,"o":"m -14 944 l 132 944 l 132 597 q 137 513 132 549 q 158 440 142 478 q 204 378 175 401 q 286 338 233 354 q 411 322 339 322 q 561 344 501 322 q 648 408 621 365 q 685 493 675 450 q 694 597 694 536 l 694 944 l 986 944 l 986 0 l 1083 0 l 1083 944 l 1257 944 l 1257 1014 l -14 1014 l -14 944 m 597 944 l 597 597 q 594 540 597 564 q 581 489 592 517 q 551 444 571 461 q 497 416 532 428 q 413 404 463 404 q 313 419 351 404 q 256 466 274 435 q 234 526 239 497 q 229 597 229 554 l 229 944 l 597 944 z "},"त":{"ha":944,"x_min":-14,"x_max":958,"o":"m 958 1014 l -14 1014 l -14 944 l 688 944 l 688 700 l 433 700 q 197 638 271 700 q 122 433 122 576 q 400 -19 122 153 l 446 51 q 219 443 219 203 q 271 586 219 542 q 433 631 322 631 l 688 631 l 688 0 l 785 0 l 785 944 l 958 944 l 958 1014 z "},"थ":{"ha":972,"x_min":42,"x_max":986,"o":"m 715 0 l 813 0 l 813 944 l 986 944 l 986 1014 l 569 1014 l 569 944 l 715 944 l 715 351 q 418 232 596 232 q 143 464 174 232 q 433 556 331 471 q 535 793 535 642 q 478 970 535 907 q 318 1033 422 1033 q 153 981 214 1033 q 93 836 93 929 q 185 644 93 701 l 244 713 q 188 842 188 749 q 220 932 188 900 q 311 964 253 964 q 407 919 374 964 q 440 790 440 874 q 371 602 440 671 q 119 533 301 533 l 42 533 q 138 250 42 349 q 418 151 235 151 q 715 265 594 151 l 715 0 z "},"द":{"ha":847,"x_min":-14,"x_max":861,"o":"m 688 944 l 861 944 l 861 1014 l 688 1014 l -14 1014 l -14 944 l 590 944 l 590 743 l 429 743 q 154 678 238 743 q 71 467 71 613 q 151 235 71 308 q 404 161 232 161 q 564 185 482 161 l 683 -54 l 769 -12 l 647 215 q 713 303 713 250 q 667 382 713 349 q 563 415 621 415 q 529 257 456 415 q 411 243 482 243 q 225 296 282 243 q 168 467 168 349 q 228 626 168 578 q 431 674 289 674 l 688 674 l 688 944 z "},"ध":{"ha":953,"x_min":56,"x_max":967,"o":"m 150 821 q 187 922 150 881 q 289 964 224 964 q 370 934 338 964 q 403 858 403 904 q 335 729 403 774 l 397 675 q 497 860 497 739 q 440 985 497 938 q 289 1033 383 1033 q 119 972 182 1033 q 56 821 56 910 q 210 540 56 639 q 113 356 113 479 q 181 183 113 243 q 383 122 250 122 q 696 239 561 122 l 696 0 l 793 0 l 793 944 l 967 944 l 967 1014 l 600 1014 l 600 944 l 696 944 l 696 326 q 383 203 572 203 q 254 243 299 203 q 210 356 210 283 q 265 477 210 432 q 439 522 321 522 l 514 522 l 514 592 l 431 592 q 297 576 358 592 q 150 821 150 646 z "},"न":{"ha":892,"x_min":-14,"x_max":906,"o":"m 135 576 q 88 565 101 576 q 75 524 75 553 q 136 420 75 464 q 239 376 197 376 q 271 406 271 376 l 271 507 l 635 507 l 635 0 l 732 0 l 732 944 l 906 944 l 906 1014 l -14 1014 l -14 944 l 635 944 l 635 576 l 135 576 z "},"ऩ":{"ha":892,"x_min":-14,"x_max":906,"o":"m 135 576 q 88 565 101 576 q 75 524 75 553 q 136 420 75 464 q 239 376 197 376 q 271 406 271 376 l 271 507 l 635 507 l 635 0 l 732 0 l 732 944 l 906 944 l 906 1014 l -14 1014 l -14 944 l 635 944 l 635 576 l 135 576 m 161 -19 q 217 -3 200 -19 q 235 51 235 14 q 217 107 235 90 q 161 124 200 124 q 107 107 124 124 q 90 51 90 90 q 107 -3 90 14 q 161 -19 124 -19 z "},"प":{"ha":854,"x_min":-14,"x_max":868,"o":"m 597 0 l 694 0 l 694 944 l 868 944 l 868 1014 l -14 1014 l -14 944 l 132 944 l 132 597 q 136 513 132 549 q 156 440 140 478 q 199 378 172 401 q 276 338 226 354 q 393 322 325 322 q 597 392 539 322 l 597 0 m 597 944 l 597 575 q 557 450 594 496 q 413 404 519 404 q 313 419 351 404 q 256 466 274 435 q 234 526 239 497 q 229 597 229 554 l 229 944 l 597 944 z "},"फ":{"ha":1210,"x_min":-14,"x_max":1224,"o":"m 597 0 l 694 0 l 694 553 q 758 660 711 619 q 875 700 806 700 q 1001 649 968 700 q 1035 496 1035 597 q 950 213 1035 326 l 1032 171 q 1131 496 1131 310 q 1081 706 1131 632 q 896 781 1031 781 q 694 699 769 781 l 694 944 l 1224 944 l 1224 1014 l -14 1014 l -14 944 l 132 944 l 132 658 q 141 528 132 582 q 177 424 150 475 q 260 348 204 374 q 403 322 317 322 q 597 393 526 322 l 597 0 m 414 404 q 328 419 364 404 q 274 454 293 433 q 245 512 256 475 q 232 580 235 549 q 229 658 229 611 l 229 944 l 597 944 l 597 508 q 414 404 553 404 z "},"ब":{"ha":824,"x_min":-14,"x_max":838,"o":"m -14 944 l 567 944 l 567 414 q 532 344 553 374 l 328 696 q 379 700 351 700 q 496 674 443 700 l 514 750 q 363 781 442 781 q 244 763 294 781 q 164 719 193 746 q 117 651 135 692 q 93 572 99 611 q 88 486 88 533 q 98 374 88 424 q 135 278 108 325 q 219 206 163 232 q 357 181 275 181 q 567 272 485 181 l 567 0 l 664 0 l 664 944 l 838 944 l 838 1014 l -14 1014 l -14 944 m 365 260 q 223 319 261 260 q 185 481 185 378 q 261 672 185 626 l 481 294 q 365 260 428 260 z "},"भ":{"ha":1047,"x_min":42,"x_max":1061,"o":"m 350 808 l 350 535 l 286 535 q 256 524 264 535 q 247 482 247 513 q 310 383 247 431 q 411 335 372 335 q 443 364 443 335 l 443 465 l 790 465 l 790 0 l 888 0 l 888 944 l 1061 944 l 1061 1014 l 624 1014 l 624 944 l 790 944 l 790 535 l 443 535 l 443 808 q 399 974 443 915 q 242 1033 354 1033 q 42 838 42 1033 q 161 651 42 697 l 203 710 q 136 836 136 746 q 242 964 136 964 q 350 808 350 964 z "},"म":{"ha":901,"x_min":-14,"x_max":915,"o":"m 271 944 l 644 944 l 644 549 l 271 549 l 271 944 m 174 944 l 174 549 l 114 549 q 83 538 92 549 q 75 496 75 526 q 138 397 75 444 q 239 349 200 349 q 271 378 271 349 l 271 479 l 644 479 l 644 0 l 742 0 l 742 944 l 915 944 l 915 1014 l -14 1014 l -14 944 l 174 944 z "},"य":{"ha":944,"x_min":-14,"x_max":958,"o":"m 404 193 q 688 304 572 193 l 688 0 l 785 0 l 785 944 l 958 944 l 958 1014 l -14 1014 l -14 944 l 104 944 q 263 896 217 944 q 308 756 308 847 q 269 622 308 669 q 131 575 229 575 l 53 575 q 142 292 53 390 q 404 193 232 193 m 406 757 q 322 944 406 885 l 688 944 l 688 390 q 404 274 574 274 q 153 506 182 274 q 342 577 278 511 q 406 757 406 643 z "},"र":{"ha":736,"x_min":-14,"x_max":750,"o":"m -14 944 l 497 944 l 497 681 q 495 623 497 647 q 485 572 493 599 q 463 527 478 544 q 423 499 449 510 q 361 488 397 488 q 240 537 285 488 q 188 669 194 586 l 99 669 q 225 272 113 436 q 569 -19 338 108 l 606 60 q 368 234 458 142 q 233 443 278 326 q 360 406 289 406 q 483 427 435 406 q 555 491 532 449 q 586 576 578 533 q 594 681 594 619 l 594 944 l 750 944 l 750 1014 l -14 1014 l -14 944 z "}}}
